<?xml version="1.0" encoding="UTF-8" standalone="no"?>
<!DOCTYPE svg PUBLIC "-//W3C//DTD SVG 1.1//EN"
 "http://www.w3.org/Graphics/SVG/1.1/DTD/svg11.dtd">
<!-- Generated by graphviz version 2.43.0 (0)
 -->
<!-- Title: G Pages: 1 -->
<svg width="464pt" height="305pt"
 viewBox="0.00 0.00 464.00 305.00" xmlns="http://www.w3.org/2000/svg" xmlns:xlink="http://www.w3.org/1999/xlink">
<g id="graph0" class="graph" transform="scale(1 1) rotate(0) translate(4 301)">
<title>G</title>
<polygon fill="white" stroke="transparent" points="-4,4 -4,-301 460,-301 460,4 -4,4"/>
<!-- FATHERED -->
<g id="node1" class="node">
<title>FATHERED</title>
<path fill="none" stroke="black" d="M86,-297C86,-297 12,-297 12,-297 6,-297 0,-291 0,-285 0,-285 0,-273 0,-273 0,-267 6,-261 12,-261 12,-261 86,-261 86,-261 92,-261 98,-267 98,-273 98,-273 98,-285 98,-285 98,-291 92,-297 86,-297"/>
<text text-anchor="middle" x="49" y="-275.3" font-family="Times,serif" font-size="14.00">FATHERED</text>
</g>
<!-- EDUC -->
<g id="node2" class="node">
<title>EDUC</title>
<path fill="none" stroke="black" d="M245.5,-210C245.5,-210 208.5,-210 208.5,-210 202.5,-210 196.5,-204 196.5,-198 196.5,-198 196.5,-186 196.5,-186 196.5,-180 202.5,-174 208.5,-174 208.5,-174 245.5,-174 245.5,-174 251.5,-174 257.5,-180 257.5,-186 257.5,-186 257.5,-198 257.5,-198 257.5,-204 251.5,-210 245.5,-210"/>
<text text-anchor="middle" x="227" y="-188.3" font-family="Times,serif" font-size="14.00">EDUC</text>
</g>
<!-- FATHERED&#45;&gt;EDUC -->
<g id="edge1" class="edge">
<title>FATHERED&#45;&gt;EDUC</title>
<path fill="none" stroke="black" d="M85.02,-260.8C114.67,-246.64 156.64,-226.6 187.26,-211.98"/>
<polygon fill="black" stroke="black" points="188.85,-215.09 196.37,-207.63 185.84,-208.78 188.85,-215.09"/>
<text text-anchor="middle" x="160.5" y="-231.8" font-family="Times,serif" font-size="14.00">0.1</text>
</g>
<!-- POTEXPER -->
<g id="node7" class="node">
<title>POTEXPER</title>
<path fill="none" stroke="black" d="M340,-123C340,-123 266,-123 266,-123 260,-123 254,-117 254,-111 254,-111 254,-99 254,-99 254,-93 260,-87 266,-87 266,-87 340,-87 340,-87 346,-87 352,-93 352,-99 352,-99 352,-111 352,-111 352,-117 346,-123 340,-123"/>
<text text-anchor="middle" x="303" y="-101.3" font-family="Times,serif" font-size="14.00">POTEXPER</text>
</g>
<!-- EDUC&#45;&gt;POTEXPER -->
<g id="edge7" class="edge">
<title>EDUC&#45;&gt;POTEXPER</title>
<path fill="none" stroke="black" d="M242.38,-173.8C253.4,-161.47 268.42,-144.68 280.75,-130.89"/>
<polygon fill="black" stroke="black" points="283.59,-132.96 287.64,-123.18 278.37,-128.3 283.59,-132.96"/>
<text text-anchor="middle" x="276" y="-144.8" font-family="Times,serif" font-size="14.00">&#45;1</text>
</g>
<!-- WAGE -->
<g id="node9" class="node">
<title>WAGE</title>
<path fill="none" stroke="black" d="M322,-36C322,-36 284,-36 284,-36 278,-36 272,-30 272,-24 272,-24 272,-12 272,-12 272,-6 278,0 284,0 284,0 322,0 322,0 328,0 334,-6 334,-12 334,-12 334,-24 334,-24 334,-30 328,-36 322,-36"/>
<text text-anchor="middle" x="303" y="-14.3" font-family="Times,serif" font-size="14.00">WAGE</text>
</g>
<!-- EDUC&#45;&gt;WAGE -->
<g id="edge8" class="edge">
<title>EDUC&#45;&gt;WAGE</title>
<path fill="none" stroke="black" d="M224.81,-173.9C222.85,-152.52 221.98,-115.3 235,-87 242.93,-69.76 257.23,-54.42 270.67,-42.69"/>
<polygon fill="black" stroke="black" points="273,-45.31 278.44,-36.22 268.52,-39.93 273,-45.31"/>
<text text-anchor="middle" x="240" y="-101.3" font-family="Times,serif" font-size="14.00">1</text>
</g>
<!-- MOTHERED -->
<g id="node3" class="node">
<title>MOTHERED</title>
<path fill="none" stroke="black" d="M210,-297C210,-297 128,-297 128,-297 122,-297 116,-291 116,-285 116,-285 116,-273 116,-273 116,-267 122,-261 128,-261 128,-261 210,-261 210,-261 216,-261 222,-267 222,-273 222,-273 222,-285 222,-285 222,-291 216,-297 210,-297"/>
<text text-anchor="middle" x="169" y="-275.3" font-family="Times,serif" font-size="14.00">MOTHERED</text>
</g>
<!-- MOTHERED&#45;&gt;EDUC -->
<g id="edge2" class="edge">
<title>MOTHERED&#45;&gt;EDUC</title>
<path fill="none" stroke="black" d="M180.74,-260.8C188.99,-248.7 200.18,-232.3 209.49,-218.67"/>
<polygon fill="black" stroke="black" points="212.53,-220.41 215.28,-210.18 206.75,-216.46 212.53,-220.41"/>
<text text-anchor="middle" x="213.5" y="-231.8" font-family="Times,serif" font-size="14.00">0.1</text>
</g>
<!-- SIBLINGS -->
<g id="node4" class="node">
<title>SIBLINGS</title>
<path fill="none" stroke="black" d="M317.5,-297C317.5,-297 252.5,-297 252.5,-297 246.5,-297 240.5,-291 240.5,-285 240.5,-285 240.5,-273 240.5,-273 240.5,-267 246.5,-261 252.5,-261 252.5,-261 317.5,-261 317.5,-261 323.5,-261 329.5,-267 329.5,-273 329.5,-273 329.5,-285 329.5,-285 329.5,-291 323.5,-297 317.5,-297"/>
<text text-anchor="middle" x="285" y="-275.3" font-family="Times,serif" font-size="14.00">SIBLINGS</text>
</g>
<!-- SIBLINGS&#45;&gt;EDUC -->
<g id="edge3" class="edge">
<title>SIBLINGS&#45;&gt;EDUC</title>
<path fill="none" stroke="black" d="M273.26,-260.8C265.01,-248.7 253.82,-232.3 244.51,-218.67"/>
<polygon fill="black" stroke="black" points="247.25,-216.46 238.72,-210.18 241.47,-220.41 247.25,-216.46"/>
<text text-anchor="middle" x="273" y="-231.8" font-family="Times,serif" font-size="14.00">&#45;0.1</text>
</g>
<!-- BRKNHOME -->
<g id="node5" class="node">
<title>BRKNHOME</title>
<path fill="none" stroke="black" d="M444,-297C444,-297 360,-297 360,-297 354,-297 348,-291 348,-285 348,-285 348,-273 348,-273 348,-267 354,-261 360,-261 360,-261 444,-261 444,-261 450,-261 456,-267 456,-273 456,-273 456,-285 456,-285 456,-291 450,-297 444,-297"/>
<text text-anchor="middle" x="402" y="-275.3" font-family="Times,serif" font-size="14.00">BRKNHOME</text>
</g>
<!-- BRKNHOME&#45;&gt;EDUC -->
<g id="edge4" class="edge">
<title>BRKNHOME&#45;&gt;EDUC</title>
<path fill="none" stroke="black" d="M366.59,-260.8C337.75,-246.79 297.04,-227.02 267.02,-212.44"/>
<polygon fill="black" stroke="black" points="268.21,-209.12 257.68,-207.9 265.15,-215.42 268.21,-209.12"/>
<text text-anchor="middle" x="338" y="-231.8" font-family="Times,serif" font-size="14.00">&#45;0.5</text>
</g>
<!-- AGE -->
<g id="node6" class="node">
<title>AGE</title>
<path fill="none" stroke="black" d="M318,-210C318,-210 288,-210 288,-210 282,-210 276,-204 276,-198 276,-198 276,-186 276,-186 276,-180 282,-174 288,-174 288,-174 318,-174 318,-174 324,-174 330,-180 330,-186 330,-186 330,-198 330,-198 330,-204 324,-210 318,-210"/>
<text text-anchor="middle" x="303" y="-188.3" font-family="Times,serif" font-size="14.00">AGE</text>
</g>
<!-- AGE&#45;&gt;POTEXPER -->
<g id="edge5" class="edge">
<title>AGE&#45;&gt;POTEXPER</title>
<path fill="none" stroke="black" d="M303,-173.8C303,-162.16 303,-146.55 303,-133.24"/>
<polygon fill="black" stroke="black" points="306.5,-133.18 303,-123.18 299.5,-133.18 306.5,-133.18"/>
<text text-anchor="middle" x="308" y="-144.8" font-family="Times,serif" font-size="14.00">1</text>
</g>
<!-- POTEXPER&#45;&gt;WAGE -->
<g id="edge9" class="edge">
<title>POTEXPER&#45;&gt;WAGE</title>
<path fill="none" stroke="black" d="M303,-86.8C303,-75.16 303,-59.55 303,-46.24"/>
<polygon fill="black" stroke="black" points="306.5,-46.18 303,-36.18 299.5,-46.18 306.5,-46.18"/>
<text text-anchor="middle" x="314.5" y="-57.8" font-family="Times,serif" font-size="14.00">0.5</text>
</g>
<!-- ABILITY -->
<g id="node8" class="node">
<title>ABILITY</title>
<path fill="none" stroke="black" d="M432,-123C432,-123 382,-123 382,-123 376,-123 370,-117 370,-111 370,-111 370,-99 370,-99 370,-93 376,-87 382,-87 382,-87 432,-87 432,-87 438,-87 444,-93 444,-99 444,-99 444,-111 444,-111 444,-117 438,-123 432,-123"/>
<text text-anchor="middle" x="407" y="-101.3" font-family="Times,serif" font-size="14.00">ABILITY</text>
</g>
<!-- ABILITY&#45;&gt;WAGE -->
<g id="edge6" class="edge">
<title>ABILITY&#45;&gt;WAGE</title>
<path fill="none" stroke="black" d="M385.95,-86.8C370.45,-74.13 349.17,-56.73 332.04,-42.74"/>
<polygon fill="black" stroke="black" points="333.97,-39.79 324.01,-36.18 329.54,-45.21 333.97,-39.79"/>
<text text-anchor="middle" x="366" y="-57.8" font-family="Times,serif" font-size="14.00">1</text>
</g>
</g>
</svg>
