<?xml version="1.0" encoding="UTF-8" standalone="no"?>
<!DOCTYPE svg PUBLIC "-//W3C//DTD SVG 1.1//EN"
 "http://www.w3.org/Graphics/SVG/1.1/DTD/svg11.dtd">
<!-- Generated by graphviz version 2.43.0 (0)
 -->
<!-- Title: G Pages: 1 -->
<svg width="464pt" height="313pt"
 viewBox="0.00 0.00 464.00 313.00" xmlns="http://www.w3.org/2000/svg" xmlns:xlink="http://www.w3.org/1999/xlink">
<g id="graph0" class="graph" transform="scale(1 1) rotate(0) translate(4 309)">
<title>G</title>
<polygon fill="white" stroke="transparent" points="-4,4 -4,-309 460,-309 460,4 -4,4"/>
<!-- FATHERED -->
<g id="node1" class="node">
<title>FATHERED</title>
<path fill="none" stroke="black" d="M86,-305C86,-305 12,-305 12,-305 6,-305 0,-299 0,-293 0,-293 0,-279 0,-279 0,-273 6,-267 12,-267 12,-267 86,-267 86,-267 92,-267 98,-273 98,-279 98,-279 98,-293 98,-293 98,-299 92,-305 86,-305"/>
<text text-anchor="middle" x="49" y="-289.8" font-family="Times,serif" font-size="14.00">FATHERED</text>
<text text-anchor="middle" x="49" y="-274.8" font-family="Times,serif" font-size="14.00">0.05</text>
</g>
<!-- EDUC -->
<g id="node2" class="node">
<title>EDUC</title>
<path fill="none" stroke="black" d="M245.5,-216C245.5,-216 208.5,-216 208.5,-216 202.5,-216 196.5,-210 196.5,-204 196.5,-204 196.5,-190 196.5,-190 196.5,-184 202.5,-178 208.5,-178 208.5,-178 245.5,-178 245.5,-178 251.5,-178 257.5,-184 257.5,-190 257.5,-190 257.5,-204 257.5,-204 257.5,-210 251.5,-216 245.5,-216"/>
<text text-anchor="middle" x="227" y="-200.8" font-family="Times,serif" font-size="14.00">EDUC</text>
<text text-anchor="middle" x="227" y="-185.8" font-family="Times,serif" font-size="14.00">0.5</text>
</g>
<!-- FATHERED&#45;&gt;EDUC -->
<g id="edge1" class="edge">
<title>FATHERED&#45;&gt;EDUC</title>
<path fill="none" stroke="black" d="M85.88,-266.97C115.5,-252.49 157.02,-232.2 187.35,-217.38"/>
<polygon fill="black" stroke="black" points="188.94,-220.5 196.38,-212.96 185.86,-214.21 188.94,-220.5"/>
<text text-anchor="middle" x="165" y="-237.8" font-family="Times,serif" font-size="14.00">0.05</text>
</g>
<!-- POTEXPER -->
<g id="node7" class="node">
<title>POTEXPER</title>
<path fill="none" stroke="black" d="M337,-127C337,-127 263,-127 263,-127 257,-127 251,-121 251,-115 251,-115 251,-101 251,-101 251,-95 257,-89 263,-89 263,-89 337,-89 337,-89 343,-89 349,-95 349,-101 349,-101 349,-115 349,-115 349,-121 343,-127 337,-127"/>
<text text-anchor="middle" x="300" y="-111.8" font-family="Times,serif" font-size="14.00">POTEXPER</text>
<text text-anchor="middle" x="300" y="-96.8" font-family="Times,serif" font-size="14.00">0.5</text>
</g>
<!-- EDUC&#45;&gt;POTEXPER -->
<g id="edge7" class="edge">
<title>EDUC&#45;&gt;POTEXPER</title>
<path fill="none" stroke="black" d="M242.13,-177.97C252.6,-165.49 266.7,-148.69 278.36,-134.79"/>
<polygon fill="black" stroke="black" points="281.15,-136.91 284.89,-127 275.78,-132.41 281.15,-136.91"/>
<text text-anchor="middle" x="281" y="-148.8" font-family="Times,serif" font-size="14.00">&#45;0.5</text>
</g>
<!-- WAGE -->
<g id="node9" class="node">
<title>WAGE</title>
<path fill="none" stroke="black" d="M319,-38C319,-38 281,-38 281,-38 275,-38 269,-32 269,-26 269,-26 269,-12 269,-12 269,-6 275,0 281,0 281,0 319,0 319,0 325,0 331,-6 331,-12 331,-12 331,-26 331,-26 331,-32 325,-38 319,-38"/>
<text text-anchor="middle" x="300" y="-22.8" font-family="Times,serif" font-size="14.00">WAGE</text>
<text text-anchor="middle" x="300" y="-7.8" font-family="Times,serif" font-size="14.00">1</text>
</g>
<!-- EDUC&#45;&gt;WAGE -->
<g id="edge8" class="edge">
<title>EDUC&#45;&gt;WAGE</title>
<path fill="none" stroke="black" d="M224.02,-177.69C221.28,-155.64 219.33,-117.96 232,-89 239.55,-71.74 253.51,-56.37 266.83,-44.55"/>
<polygon fill="black" stroke="black" points="269.18,-47.15 274.54,-38.01 264.65,-41.81 269.18,-47.15"/>
<text text-anchor="middle" x="237" y="-104.3" font-family="Times,serif" font-size="14.00">1</text>
</g>
<!-- MOTHERED -->
<g id="node3" class="node">
<title>MOTHERED</title>
<path fill="none" stroke="black" d="M210,-305C210,-305 128,-305 128,-305 122,-305 116,-299 116,-293 116,-293 116,-279 116,-279 116,-273 122,-267 128,-267 128,-267 210,-267 210,-267 216,-267 222,-273 222,-279 222,-279 222,-293 222,-293 222,-299 216,-305 210,-305"/>
<text text-anchor="middle" x="169" y="-289.8" font-family="Times,serif" font-size="14.00">MOTHERED</text>
<text text-anchor="middle" x="169" y="-274.8" font-family="Times,serif" font-size="14.00">0.05</text>
</g>
<!-- MOTHERED&#45;&gt;EDUC -->
<g id="edge2" class="edge">
<title>MOTHERED&#45;&gt;EDUC</title>
<path fill="none" stroke="black" d="M181.02,-266.97C189.18,-254.73 200.12,-238.32 209.28,-224.58"/>
<polygon fill="black" stroke="black" points="212.36,-226.27 215,-216 206.54,-222.38 212.36,-226.27"/>
<text text-anchor="middle" x="218" y="-237.8" font-family="Times,serif" font-size="14.00">0.05</text>
</g>
<!-- SIBLINGS -->
<g id="node4" class="node">
<title>SIBLINGS</title>
<path fill="none" stroke="black" d="M317.5,-305C317.5,-305 252.5,-305 252.5,-305 246.5,-305 240.5,-299 240.5,-293 240.5,-293 240.5,-279 240.5,-279 240.5,-273 246.5,-267 252.5,-267 252.5,-267 317.5,-267 317.5,-267 323.5,-267 329.5,-273 329.5,-279 329.5,-279 329.5,-293 329.5,-293 329.5,-299 323.5,-305 317.5,-305"/>
<text text-anchor="middle" x="285" y="-289.8" font-family="Times,serif" font-size="14.00">SIBLINGS</text>
<text text-anchor="middle" x="285" y="-274.8" font-family="Times,serif" font-size="14.00">&#45;0.05</text>
</g>
<!-- SIBLINGS&#45;&gt;EDUC -->
<g id="edge3" class="edge">
<title>SIBLINGS&#45;&gt;EDUC</title>
<path fill="none" stroke="black" d="M272.98,-266.97C264.82,-254.73 253.88,-238.32 244.72,-224.58"/>
<polygon fill="black" stroke="black" points="247.46,-222.38 239,-216 241.64,-226.27 247.46,-222.38"/>
<text text-anchor="middle" x="277.5" y="-237.8" font-family="Times,serif" font-size="14.00">&#45;0.05</text>
</g>
<!-- BRKNHOME -->
<g id="node5" class="node">
<title>BRKNHOME</title>
<path fill="none" stroke="black" d="M444,-305C444,-305 360,-305 360,-305 354,-305 348,-299 348,-293 348,-293 348,-279 348,-279 348,-273 354,-267 360,-267 360,-267 444,-267 444,-267 450,-267 456,-273 456,-279 456,-279 456,-293 456,-293 456,-299 450,-305 444,-305"/>
<text text-anchor="middle" x="402" y="-289.8" font-family="Times,serif" font-size="14.00">BRKNHOME</text>
<text text-anchor="middle" x="402" y="-274.8" font-family="Times,serif" font-size="14.00">&#45;0.25</text>
</g>
<!-- BRKNHOME&#45;&gt;EDUC -->
<g id="edge4" class="edge">
<title>BRKNHOME&#45;&gt;EDUC</title>
<path fill="none" stroke="black" d="M365.67,-266.78C346.21,-257.03 321.81,-244.83 300,-234 289.23,-228.65 277.56,-222.88 266.77,-217.56"/>
<polygon fill="black" stroke="black" points="268.08,-214.31 257.56,-213.03 264.99,-220.59 268.08,-214.31"/>
<text text-anchor="middle" x="346.5" y="-237.8" font-family="Times,serif" font-size="14.00">&#45;0.25</text>
</g>
<!-- AGE -->
<g id="node6" class="node">
<title>AGE</title>
<path fill="none" stroke="black" d="M322,-216C322,-216 292,-216 292,-216 286,-216 280,-210 280,-204 280,-204 280,-190 280,-190 280,-184 286,-178 292,-178 292,-178 322,-178 322,-178 328,-178 334,-184 334,-190 334,-190 334,-204 334,-204 334,-210 328,-216 322,-216"/>
<text text-anchor="middle" x="307" y="-200.8" font-family="Times,serif" font-size="14.00">AGE</text>
<text text-anchor="middle" x="307" y="-185.8" font-family="Times,serif" font-size="14.00">0.5</text>
</g>
<!-- AGE&#45;&gt;POTEXPER -->
<g id="edge5" class="edge">
<title>AGE&#45;&gt;POTEXPER</title>
<path fill="none" stroke="black" d="M305.55,-177.97C304.6,-166.19 303.34,-150.56 302.27,-137.16"/>
<polygon fill="black" stroke="black" points="305.74,-136.69 301.45,-127 298.76,-137.25 305.74,-136.69"/>
<text text-anchor="middle" x="314.5" y="-148.8" font-family="Times,serif" font-size="14.00">0.5</text>
</g>
<!-- POTEXPER&#45;&gt;WAGE -->
<g id="edge9" class="edge">
<title>POTEXPER&#45;&gt;WAGE</title>
<path fill="none" stroke="black" d="M300,-88.97C300,-77.19 300,-61.56 300,-48.16"/>
<polygon fill="black" stroke="black" points="303.5,-48 300,-38 296.5,-48 303.5,-48"/>
<text text-anchor="middle" x="311.5" y="-59.8" font-family="Times,serif" font-size="14.00">0.5</text>
</g>
<!-- ABILITY -->
<g id="node8" class="node">
<title>ABILITY</title>
<path fill="none" stroke="black" d="M429,-127C429,-127 379,-127 379,-127 373,-127 367,-121 367,-115 367,-115 367,-101 367,-101 367,-95 373,-89 379,-89 379,-89 429,-89 429,-89 435,-89 441,-95 441,-101 441,-101 441,-115 441,-115 441,-121 435,-127 429,-127"/>
<text text-anchor="middle" x="404" y="-111.8" font-family="Times,serif" font-size="14.00">ABILITY</text>
<text text-anchor="middle" x="404" y="-96.8" font-family="Times,serif" font-size="14.00">1</text>
</g>
<!-- ABILITY&#45;&gt;WAGE -->
<g id="edge6" class="edge">
<title>ABILITY&#45;&gt;WAGE</title>
<path fill="none" stroke="black" d="M382.45,-88.97C367.11,-76.14 346.32,-58.74 329.45,-44.63"/>
<polygon fill="black" stroke="black" points="331.44,-41.74 321.52,-38 326.95,-47.1 331.44,-41.74"/>
<text text-anchor="middle" x="363" y="-59.8" font-family="Times,serif" font-size="14.00">1</text>
</g>
</g>
</svg>
