<?xml version="1.0" encoding="UTF-8" standalone="no"?>
<!DOCTYPE svg PUBLIC "-//W3C//DTD SVG 1.1//EN"
 "http://www.w3.org/Graphics/SVG/1.1/DTD/svg11.dtd">
<!-- Generated by graphviz version 2.43.0 (0)
 -->
<!-- Title: G Pages: 1 -->
<svg width="673pt" height="305pt"
 viewBox="0.00 0.00 673.00 305.00" xmlns="http://www.w3.org/2000/svg" xmlns:xlink="http://www.w3.org/1999/xlink">
<g id="graph0" class="graph" transform="scale(1 1) rotate(0) translate(4 301)">
<title>G</title>
<polygon fill="white" stroke="transparent" points="-4,4 -4,-301 669,-301 669,4 -4,4"/>
<!-- FATHERED -->
<g id="node1" class="node">
<title>FATHERED</title>
<path fill="none" stroke="black" d="M212,-297C212,-297 138,-297 138,-297 132,-297 126,-291 126,-285 126,-285 126,-273 126,-273 126,-267 132,-261 138,-261 138,-261 212,-261 212,-261 218,-261 224,-267 224,-273 224,-273 224,-285 224,-285 224,-291 218,-297 212,-297"/>
<text text-anchor="middle" x="175" y="-275.3" font-family="Times,serif" font-size="14.00">FATHERED</text>
</g>
<!-- EDUC -->
<g id="node2" class="node">
<title>EDUC</title>
<path fill="none" stroke="black" d="M209.5,-210C209.5,-210 172.5,-210 172.5,-210 166.5,-210 160.5,-204 160.5,-198 160.5,-198 160.5,-186 160.5,-186 160.5,-180 166.5,-174 172.5,-174 172.5,-174 209.5,-174 209.5,-174 215.5,-174 221.5,-180 221.5,-186 221.5,-186 221.5,-198 221.5,-198 221.5,-204 215.5,-210 209.5,-210"/>
<text text-anchor="middle" x="191" y="-188.3" font-family="Times,serif" font-size="14.00">EDUC</text>
</g>
<!-- FATHERED&#45;&gt;EDUC -->
<g id="edge1" class="edge">
<title>FATHERED&#45;&gt;EDUC</title>
<path fill="none" stroke="black" d="M170.17,-260.61C168.23,-250.87 167.07,-238.59 170,-228 170.82,-225.02 171.98,-222.04 173.32,-219.15"/>
<polygon fill="black" stroke="black" points="176.43,-220.77 178.11,-210.31 170.27,-217.44 176.43,-220.77"/>
<text text-anchor="middle" x="181.5" y="-231.8" font-family="Times,serif" font-size="14.00">0.1</text>
</g>
<!-- POTEXPER -->
<g id="node6" class="node">
<title>POTEXPER</title>
<path fill="none" stroke="black" d="M356,-123C356,-123 282,-123 282,-123 276,-123 270,-117 270,-111 270,-111 270,-99 270,-99 270,-93 276,-87 282,-87 282,-87 356,-87 356,-87 362,-87 368,-93 368,-99 368,-99 368,-111 368,-111 368,-117 362,-123 356,-123"/>
<text text-anchor="middle" x="319" y="-101.3" font-family="Times,serif" font-size="14.00">POTEXPER</text>
</g>
<!-- FATHERED&#45;&gt;POTEXPER -->
<g id="edge5" class="edge">
<title>FATHERED&#45;&gt;POTEXPER</title>
<path fill="none" stroke="black" d="M221.26,-260.9C229.69,-256.13 237.77,-250.22 244,-243 265.11,-218.52 251.86,-202.56 267,-174 275.09,-158.74 286.54,-143.33 296.65,-131.04"/>
<polygon fill="black" stroke="black" points="299.59,-132.97 303.37,-123.07 294.24,-128.46 299.59,-132.97"/>
<text text-anchor="middle" x="281" y="-188.3" font-family="Times,serif" font-size="14.00">&#45;0.1</text>
</g>
<!-- WAGE -->
<g id="node8" class="node">
<title>WAGE</title>
<path fill="none" stroke="black" d="M401,-36C401,-36 363,-36 363,-36 357,-36 351,-30 351,-24 351,-24 351,-12 351,-12 351,-6 357,0 363,0 363,0 401,0 401,0 407,0 413,-6 413,-12 413,-12 413,-24 413,-24 413,-30 407,-36 401,-36"/>
<text text-anchor="middle" x="382" y="-14.3" font-family="Times,serif" font-size="14.00">WAGE</text>
</g>
<!-- FATHERED&#45;&gt;WAGE -->
<g id="edge10" class="edge">
<title>FATHERED&#45;&gt;WAGE</title>
<path fill="none" stroke="black" d="M167.11,-260.83C161.36,-247.33 154.06,-227.89 151,-210 145.73,-179.24 147.94,-167.76 164,-141 192.95,-92.74 205.24,-78.31 256,-54 283,-41.07 315.6,-32.18 340.88,-26.59"/>
<polygon fill="black" stroke="black" points="341.83,-29.97 350.88,-24.47 340.37,-23.12 341.83,-29.97"/>
<text text-anchor="middle" x="180" y="-144.8" font-family="Times,serif" font-size="14.00">0.05</text>
</g>
<!-- EDUC&#45;&gt;POTEXPER -->
<g id="edge16" class="edge">
<title>EDUC&#45;&gt;POTEXPER</title>
<path fill="none" stroke="black" d="M201.08,-173.77C208.05,-163.11 218.18,-149.83 230,-141 239.16,-134.16 249.82,-128.47 260.53,-123.8"/>
<polygon fill="black" stroke="black" points="261.98,-126.99 269.91,-119.96 259.33,-120.51 261.98,-126.99"/>
<text text-anchor="middle" x="237" y="-144.8" font-family="Times,serif" font-size="14.00">&#45;1</text>
</g>
<!-- EDUC&#45;&gt;WAGE -->
<g id="edge17" class="edge">
<title>EDUC&#45;&gt;WAGE</title>
<path fill="none" stroke="black" d="M194.69,-173.63C200.35,-150.94 213.21,-111.24 238,-87 266.9,-58.75 309.74,-40.59 341.19,-30.21"/>
<polygon fill="black" stroke="black" points="342.49,-33.47 350.97,-27.11 340.38,-26.79 342.49,-33.47"/>
<text text-anchor="middle" x="249.5" y="-101.3" font-family="Times,serif" font-size="14.00">0.5</text>
</g>
<!-- MOTHERED -->
<g id="node3" class="node">
<title>MOTHERED</title>
<path fill="none" stroke="black" d="M548,-297C548,-297 466,-297 466,-297 460,-297 454,-291 454,-285 454,-285 454,-273 454,-273 454,-267 460,-261 466,-261 466,-261 548,-261 548,-261 554,-261 560,-267 560,-273 560,-273 560,-285 560,-285 560,-291 554,-297 548,-297"/>
<text text-anchor="middle" x="507" y="-275.3" font-family="Times,serif" font-size="14.00">MOTHERED</text>
</g>
<!-- MOTHERED&#45;&gt;EDUC -->
<g id="edge2" class="edge">
<title>MOTHERED&#45;&gt;EDUC</title>
<path fill="none" stroke="black" d="M453.79,-261.54C419.05,-251.13 372.58,-237.82 331,-228 289.18,-218.12 277.37,-221.64 236,-210 234.54,-209.59 233.07,-209.15 231.58,-208.69"/>
<polygon fill="black" stroke="black" points="232.34,-205.26 221.75,-205.42 230.13,-211.9 232.34,-205.26"/>
<text text-anchor="middle" x="395.5" y="-231.8" font-family="Times,serif" font-size="14.00">0.1</text>
</g>
<!-- MOTHERED&#45;&gt;POTEXPER -->
<g id="edge6" class="edge">
<title>MOTHERED&#45;&gt;POTEXPER</title>
<path fill="none" stroke="black" d="M511.22,-260.56C517.11,-231.54 523.86,-173.35 493,-141 476.2,-123.39 413.41,-127.85 378.37,-123.54"/>
<polygon fill="black" stroke="black" points="378.5,-120.02 368.06,-121.8 377.34,-126.92 378.5,-120.02"/>
<text text-anchor="middle" x="530" y="-188.3" font-family="Times,serif" font-size="14.00">&#45;0.1</text>
</g>
<!-- MOTHERED&#45;&gt;WAGE -->
<g id="edge11" class="edge">
<title>MOTHERED&#45;&gt;WAGE</title>
<path fill="none" stroke="black" d="M522.22,-260.92C538.75,-240.19 561.15,-204.26 548,-174 522.17,-114.53 461.03,-67.51 420.6,-41.48"/>
<polygon fill="black" stroke="black" points="422.39,-38.47 412.06,-36.09 418.65,-44.39 422.39,-38.47"/>
<text text-anchor="middle" x="554" y="-144.8" font-family="Times,serif" font-size="14.00">0.05</text>
</g>
<!-- SIBLINGS -->
<g id="node4" class="node">
<title>SIBLINGS</title>
<path fill="none" stroke="black" d="M416.5,-297C416.5,-297 351.5,-297 351.5,-297 345.5,-297 339.5,-291 339.5,-285 339.5,-285 339.5,-273 339.5,-273 339.5,-267 345.5,-261 351.5,-261 351.5,-261 416.5,-261 416.5,-261 422.5,-261 428.5,-267 428.5,-273 428.5,-273 428.5,-285 428.5,-285 428.5,-291 422.5,-297 416.5,-297"/>
<text text-anchor="middle" x="384" y="-275.3" font-family="Times,serif" font-size="14.00">SIBLINGS</text>
</g>
<!-- SIBLINGS&#45;&gt;EDUC -->
<g id="edge3" class="edge">
<title>SIBLINGS&#45;&gt;EDUC</title>
<path fill="none" stroke="black" d="M344.94,-260.8C311.86,-246.23 264.62,-225.42 231.21,-210.71"/>
<polygon fill="black" stroke="black" points="232.31,-207.37 221.75,-206.54 229.49,-213.78 232.31,-207.37"/>
<text text-anchor="middle" x="313" y="-231.8" font-family="Times,serif" font-size="14.00">&#45;0.1</text>
</g>
<!-- SIBLINGS&#45;&gt;POTEXPER -->
<g id="edge7" class="edge">
<title>SIBLINGS&#45;&gt;POTEXPER</title>
<path fill="none" stroke="black" d="M383.54,-260.79C382.45,-239.63 378.85,-202.96 367,-174 360.69,-158.57 350.31,-143.24 340.82,-131.05"/>
<polygon fill="black" stroke="black" points="343.46,-128.73 334.46,-123.15 338.01,-133.13 343.46,-128.73"/>
<text text-anchor="middle" x="388.5" y="-188.3" font-family="Times,serif" font-size="14.00">0.1</text>
</g>
<!-- SIBLINGS&#45;&gt;WAGE -->
<g id="edge12" class="edge">
<title>SIBLINGS&#45;&gt;WAGE</title>
<path fill="none" stroke="black" d="M400.81,-260.82C404.95,-255.53 408.82,-249.39 411,-243 433.37,-177.37 423.03,-155.28 411,-87 408.47,-72.64 402.47,-57.63 396.58,-45.38"/>
<polygon fill="black" stroke="black" points="399.59,-43.56 391.95,-36.21 393.34,-46.71 399.59,-43.56"/>
<text text-anchor="middle" x="441.5" y="-144.8" font-family="Times,serif" font-size="14.00">&#45;0.05</text>
</g>
<!-- BRKNHOME -->
<g id="node5" class="node">
<title>BRKNHOME</title>
<path fill="none" stroke="black" d="M96,-297C96,-297 12,-297 12,-297 6,-297 0,-291 0,-285 0,-285 0,-273 0,-273 0,-267 6,-261 12,-261 12,-261 96,-261 96,-261 102,-261 108,-267 108,-273 108,-273 108,-285 108,-285 108,-291 102,-297 96,-297"/>
<text text-anchor="middle" x="54" y="-275.3" font-family="Times,serif" font-size="14.00">BRKNHOME</text>
</g>
<!-- BRKNHOME&#45;&gt;EDUC -->
<g id="edge4" class="edge">
<title>BRKNHOME&#45;&gt;EDUC</title>
<path fill="none" stroke="black" d="M81.72,-260.8C102.71,-247.78 131.72,-229.78 154.57,-215.6"/>
<polygon fill="black" stroke="black" points="156.67,-218.42 163.32,-210.18 152.97,-212.47 156.67,-218.42"/>
<text text-anchor="middle" x="145" y="-231.8" font-family="Times,serif" font-size="14.00">&#45;0.5</text>
</g>
<!-- BRKNHOME&#45;&gt;POTEXPER -->
<g id="edge8" class="edge">
<title>BRKNHOME&#45;&gt;POTEXPER</title>
<path fill="none" stroke="black" d="M62.17,-260.93C73.85,-238.21 97.32,-198.08 128,-174 159.23,-149.49 173.65,-154.46 211,-141 220.64,-137.53 240.27,-131.1 260.18,-124.69"/>
<polygon fill="black" stroke="black" points="261.48,-127.95 269.93,-121.56 259.34,-121.28 261.48,-127.95"/>
<text text-anchor="middle" x="139.5" y="-188.3" font-family="Times,serif" font-size="14.00">0.5</text>
</g>
<!-- BRKNHOME&#45;&gt;WAGE -->
<g id="edge13" class="edge">
<title>BRKNHOME&#45;&gt;WAGE</title>
<path fill="none" stroke="black" d="M58.74,-260.74C61.51,-251.05 65.2,-238.77 69,-228 77.62,-203.56 78.4,-196.64 91,-174 116.69,-127.84 130.33,-119.47 172,-87 193.59,-70.18 198.7,-64.45 224,-54 261.96,-38.32 308.08,-29.13 340.67,-24.14"/>
<polygon fill="black" stroke="black" points="341.36,-27.58 350.75,-22.66 340.35,-20.65 341.36,-27.58"/>
<text text-anchor="middle" x="130.5" y="-144.8" font-family="Times,serif" font-size="14.00">&#45;0.25</text>
</g>
<!-- POTEXPER&#45;&gt;WAGE -->
<g id="edge18" class="edge">
<title>POTEXPER&#45;&gt;WAGE</title>
<path fill="none" stroke="black" d="M331.75,-86.8C340.8,-74.59 353.1,-57.99 363.26,-44.28"/>
<polygon fill="black" stroke="black" points="366.13,-46.29 369.27,-36.18 360.5,-42.13 366.13,-46.29"/>
<text text-anchor="middle" x="365.5" y="-57.8" font-family="Times,serif" font-size="14.00">0.5</text>
</g>
<!-- AGE -->
<g id="node7" class="node">
<title>AGE</title>
<path fill="none" stroke="black" d="M346,-210C346,-210 316,-210 316,-210 310,-210 304,-204 304,-198 304,-198 304,-186 304,-186 304,-180 310,-174 316,-174 316,-174 346,-174 346,-174 352,-174 358,-180 358,-186 358,-186 358,-198 358,-198 358,-204 352,-210 346,-210"/>
<text text-anchor="middle" x="331" y="-188.3" font-family="Times,serif" font-size="14.00">AGE</text>
</g>
<!-- AGE&#45;&gt;POTEXPER -->
<g id="edge9" class="edge">
<title>AGE&#45;&gt;POTEXPER</title>
<path fill="none" stroke="black" d="M328.57,-173.8C326.93,-162.16 324.72,-146.55 322.85,-133.24"/>
<polygon fill="black" stroke="black" points="326.29,-132.59 321.42,-123.18 319.36,-133.57 326.29,-132.59"/>
<text text-anchor="middle" x="330" y="-144.8" font-family="Times,serif" font-size="14.00">1</text>
</g>
<!-- AGE&#45;&gt;WAGE -->
<g id="edge15" class="edge">
<title>AGE&#45;&gt;WAGE</title>
<path fill="none" stroke="black" d="M346.29,-173.93C356.93,-160.95 370.36,-142.12 377,-123 385.68,-98.02 386.07,-67.63 384.81,-46.17"/>
<polygon fill="black" stroke="black" points="388.3,-45.84 384.07,-36.13 381.32,-46.36 388.3,-45.84"/>
<text text-anchor="middle" x="395.5" y="-101.3" font-family="Times,serif" font-size="14.00">0.5</text>
</g>
<!-- ABILITY -->
<g id="node9" class="node">
<title>ABILITY</title>
<path fill="none" stroke="black" d="M653,-123C653,-123 603,-123 603,-123 597,-123 591,-117 591,-111 591,-111 591,-99 591,-99 591,-93 597,-87 603,-87 603,-87 653,-87 653,-87 659,-87 665,-93 665,-99 665,-99 665,-111 665,-111 665,-117 659,-123 653,-123"/>
<text text-anchor="middle" x="628" y="-101.3" font-family="Times,serif" font-size="14.00">ABILITY</text>
</g>
<!-- ABILITY&#45;&gt;WAGE -->
<g id="edge14" class="edge">
<title>ABILITY&#45;&gt;WAGE</title>
<path fill="none" stroke="black" d="M615.17,-86.93C605.84,-75.77 592.2,-61.85 577,-54 528.22,-28.82 464.47,-21.43 423.37,-19.44"/>
<polygon fill="black" stroke="black" points="423.31,-15.93 413.18,-19.03 423.03,-22.93 423.31,-15.93"/>
<text text-anchor="middle" x="602" y="-57.8" font-family="Times,serif" font-size="14.00">1</text>
</g>
</g>
</svg>
