<?xml version="1.0" encoding="UTF-8" standalone="no"?>
<!DOCTYPE svg PUBLIC "-//W3C//DTD SVG 1.1//EN"
 "http://www.w3.org/Graphics/SVG/1.1/DTD/svg11.dtd">
<!-- Generated by graphviz version 2.43.0 (0)
 -->
<!-- Title: G Pages: 1 -->
<svg width="468pt" height="305pt"
 viewBox="0.00 0.00 468.00 305.00" xmlns="http://www.w3.org/2000/svg" xmlns:xlink="http://www.w3.org/1999/xlink">
<g id="graph0" class="graph" transform="scale(1 1) rotate(0) translate(4 301)">
<title>G</title>
<polygon fill="white" stroke="transparent" points="-4,4 -4,-301 464,-301 464,4 -4,4"/>
<!-- FATHERED -->
<g id="node1" class="node">
<title>FATHERED</title>
<path fill="none" stroke="black" d="M86,-297C86,-297 12,-297 12,-297 6,-297 0,-291 0,-285 0,-285 0,-273 0,-273 0,-267 6,-261 12,-261 12,-261 86,-261 86,-261 92,-261 98,-267 98,-273 98,-273 98,-285 98,-285 98,-291 92,-297 86,-297"/>
<text text-anchor="middle" x="49" y="-275.3" font-family="Times,serif" font-size="14.00">FATHERED</text>
</g>
<!-- EDUC -->
<g id="node2" class="node">
<title>EDUC</title>
<path fill="none" stroke="black" d="M245.5,-210C245.5,-210 208.5,-210 208.5,-210 202.5,-210 196.5,-204 196.5,-198 196.5,-198 196.5,-186 196.5,-186 196.5,-180 202.5,-174 208.5,-174 208.5,-174 245.5,-174 245.5,-174 251.5,-174 257.5,-180 257.5,-186 257.5,-186 257.5,-198 257.5,-198 257.5,-204 251.5,-210 245.5,-210"/>
<text text-anchor="middle" x="227" y="-188.3" font-family="Times,serif" font-size="14.00">EDUC</text>
</g>
<!-- FATHERED&#45;&gt;EDUC -->
<g id="edge1" class="edge">
<title>FATHERED&#45;&gt;EDUC</title>
<path fill="none" stroke="#1a9850" stroke-width="2" d="M82.99,-260.82C102.52,-251.04 127.55,-238.65 150,-228 161.93,-222.34 174.99,-216.33 186.9,-210.92"/>
<polygon fill="#1a9850" stroke="#1a9850" stroke-width="2" points="188.5,-214.04 196.17,-206.73 185.61,-207.67 188.5,-214.04"/>
<text text-anchor="middle" x="170.5" y="-231.8" font-family="Times,serif" font-size="14.00">19.33</text>
</g>
<!-- POTEXPER -->
<g id="node7" class="node">
<title>POTEXPER</title>
<path fill="none" stroke="black" d="M356,-123C356,-123 282,-123 282,-123 276,-123 270,-117 270,-111 270,-111 270,-99 270,-99 270,-93 276,-87 282,-87 282,-87 356,-87 356,-87 362,-87 368,-93 368,-99 368,-99 368,-111 368,-111 368,-117 362,-123 356,-123"/>
<text text-anchor="middle" x="319" y="-101.3" font-family="Times,serif" font-size="14.00">POTEXPER</text>
</g>
<!-- EDUC&#45;&gt;POTEXPER -->
<g id="edge7" class="edge">
<title>EDUC&#45;&gt;POTEXPER</title>
<path fill="none" stroke="#1a9850" stroke-width="2" d="M239.61,-173.82C247.47,-163.69 258.13,-150.95 269,-141 273.46,-136.92 278.41,-132.92 283.41,-129.17"/>
<polygon fill="#1a9850" stroke="#1a9850" stroke-width="2" points="285.74,-131.81 291.81,-123.12 281.65,-126.13 285.74,-131.81"/>
<text text-anchor="middle" x="292" y="-144.8" font-family="Times,serif" font-size="14.00">&#45;17.11</text>
</g>
<!-- WAGE -->
<g id="node9" class="node">
<title>WAGE</title>
<path fill="none" stroke="black" d="M338,-36C338,-36 300,-36 300,-36 294,-36 288,-30 288,-24 288,-24 288,-12 288,-12 288,-6 294,0 300,0 300,0 338,0 338,0 344,0 350,-6 350,-12 350,-12 350,-24 350,-24 350,-30 344,-36 338,-36"/>
<text text-anchor="middle" x="319" y="-14.3" font-family="Times,serif" font-size="14.00">WAGE</text>
</g>
<!-- EDUC&#45;&gt;WAGE -->
<g id="edge8" class="edge">
<title>EDUC&#45;&gt;WAGE</title>
<path fill="none" stroke="#1a9850" stroke-width="2" d="M220.55,-173.65C213.65,-152.02 205.5,-114.54 220,-87 232.41,-63.43 257.08,-46.45 278.7,-35.35"/>
<polygon fill="#1a9850" stroke="#1a9850" stroke-width="2" points="280.27,-38.48 287.73,-30.95 277.2,-32.19 280.27,-38.48"/>
<text text-anchor="middle" x="240.5" y="-101.3" font-family="Times,serif" font-size="14.00">11.09</text>
</g>
<!-- MOTHERED -->
<g id="node3" class="node">
<title>MOTHERED</title>
<path fill="none" stroke="black" d="M210,-297C210,-297 128,-297 128,-297 122,-297 116,-291 116,-285 116,-285 116,-273 116,-273 116,-267 122,-261 128,-261 128,-261 210,-261 210,-261 216,-261 222,-267 222,-273 222,-273 222,-285 222,-285 222,-291 216,-297 210,-297"/>
<text text-anchor="middle" x="169" y="-275.3" font-family="Times,serif" font-size="14.00">MOTHERED</text>
</g>
<!-- MOTHERED&#45;&gt;EDUC -->
<g id="edge2" class="edge">
<title>MOTHERED&#45;&gt;EDUC</title>
<path fill="none" stroke="#1a9850" stroke-width="2" d="M180.74,-260.8C188.99,-248.7 200.18,-232.3 209.49,-218.67"/>
<polygon fill="#1a9850" stroke="#1a9850" stroke-width="2" points="212.53,-220.41 215.28,-210.18 206.75,-216.46 212.53,-220.41"/>
<text text-anchor="middle" x="222.5" y="-231.8" font-family="Times,serif" font-size="14.00">12.32</text>
</g>
<!-- SIBLINGS -->
<g id="node4" class="node">
<title>SIBLINGS</title>
<path fill="none" stroke="black" d="M317.5,-297C317.5,-297 252.5,-297 252.5,-297 246.5,-297 240.5,-291 240.5,-285 240.5,-285 240.5,-273 240.5,-273 240.5,-267 246.5,-261 252.5,-261 252.5,-261 317.5,-261 317.5,-261 323.5,-261 329.5,-267 329.5,-273 329.5,-273 329.5,-285 329.5,-285 329.5,-291 323.5,-297 317.5,-297"/>
<text text-anchor="middle" x="285" y="-275.3" font-family="Times,serif" font-size="14.00">SIBLINGS</text>
</g>
<!-- SIBLINGS&#45;&gt;EDUC -->
<g id="edge3" class="edge">
<title>SIBLINGS&#45;&gt;EDUC</title>
<path fill="none" stroke="#1a9850" stroke-width="2" d="M273.26,-260.8C265.01,-248.7 253.82,-232.3 244.51,-218.67"/>
<polygon fill="#1a9850" stroke="#1a9850" stroke-width="2" points="247.25,-216.46 238.72,-210.18 241.47,-220.41 247.25,-216.46"/>
<text text-anchor="middle" x="277.5" y="-231.8" font-family="Times,serif" font-size="14.00">&#45;7.67</text>
</g>
<!-- BRKNHOME -->
<g id="node5" class="node">
<title>BRKNHOME</title>
<path fill="none" stroke="black" d="M444,-297C444,-297 360,-297 360,-297 354,-297 348,-291 348,-285 348,-285 348,-273 348,-273 348,-267 354,-261 360,-261 360,-261 444,-261 444,-261 450,-261 456,-267 456,-273 456,-273 456,-285 456,-285 456,-291 450,-297 444,-297"/>
<text text-anchor="middle" x="402" y="-275.3" font-family="Times,serif" font-size="14.00">BRKNHOME</text>
</g>
<!-- BRKNHOME&#45;&gt;EDUC -->
<g id="edge4" class="edge">
<title>BRKNHOME&#45;&gt;EDUC</title>
<path fill="none" stroke="#1a9850" stroke-width="2" d="M367.1,-260.8C347.42,-251.12 322.36,-238.84 300,-228 289.24,-222.78 277.57,-217.17 266.78,-212"/>
<polygon fill="#1a9850" stroke="#1a9850" stroke-width="2" points="268.1,-208.75 257.57,-207.59 265.08,-215.06 268.1,-208.75"/>
<text text-anchor="middle" x="346.5" y="-231.8" font-family="Times,serif" font-size="14.00">&#45;9.86</text>
</g>
<!-- AGE -->
<g id="node6" class="node">
<title>AGE</title>
<path fill="none" stroke="black" d="M334,-210C334,-210 304,-210 304,-210 298,-210 292,-204 292,-198 292,-198 292,-186 292,-186 292,-180 298,-174 304,-174 304,-174 334,-174 334,-174 340,-174 346,-180 346,-186 346,-186 346,-198 346,-198 346,-204 340,-210 334,-210"/>
<text text-anchor="middle" x="319" y="-188.3" font-family="Times,serif" font-size="14.00">AGE</text>
</g>
<!-- AGE&#45;&gt;POTEXPER -->
<g id="edge5" class="edge">
<title>AGE&#45;&gt;POTEXPER</title>
<path fill="none" stroke="#1a9850" stroke-width="2" d="M319,-173.8C319,-162.16 319,-146.55 319,-133.24"/>
<polygon fill="#1a9850" stroke="#1a9850" stroke-width="2" points="322.5,-133.18 319,-123.18 315.5,-133.18 322.5,-133.18"/>
<text text-anchor="middle" x="339.5" y="-144.8" font-family="Times,serif" font-size="14.00">85.59</text>
</g>
<!-- POTEXPER&#45;&gt;WAGE -->
<g id="edge9" class="edge">
<title>POTEXPER&#45;&gt;WAGE</title>
<path fill="none" stroke="#1a9850" stroke-width="2" d="M319,-86.8C319,-75.16 319,-59.55 319,-46.24"/>
<polygon fill="#1a9850" stroke="#1a9850" stroke-width="2" points="322.5,-46.18 319,-36.18 315.5,-46.18 322.5,-46.18"/>
<text text-anchor="middle" x="339.5" y="-57.8" font-family="Times,serif" font-size="14.00">39.06</text>
</g>
<!-- ABILITY -->
<g id="node8" class="node">
<title>ABILITY</title>
<path fill="none" stroke="black" d="M448,-123C448,-123 398,-123 398,-123 392,-123 386,-117 386,-111 386,-111 386,-99 386,-99 386,-93 392,-87 398,-87 398,-87 448,-87 448,-87 454,-87 460,-93 460,-99 460,-99 460,-111 460,-111 460,-117 454,-123 448,-123"/>
<text text-anchor="middle" x="423" y="-101.3" font-family="Times,serif" font-size="14.00">ABILITY</text>
</g>
<!-- ABILITY&#45;&gt;WAGE -->
<g id="edge6" class="edge">
<title>ABILITY&#45;&gt;WAGE</title>
<path fill="none" stroke="#1a9850" stroke-width="2" d="M403.24,-86.9C391.86,-77.14 377.24,-64.75 364,-54 359.37,-50.24 354.43,-46.32 349.58,-42.51"/>
<polygon fill="#1a9850" stroke="#1a9850" stroke-width="2" points="351.61,-39.65 341.58,-36.26 347.31,-45.17 351.61,-39.65"/>
<text text-anchor="middle" x="402.5" y="-57.8" font-family="Times,serif" font-size="14.00">14.24</text>
</g>
</g>
</svg>
