<?xml version="1.0" encoding="UTF-8" standalone="no"?>
<!DOCTYPE svg PUBLIC "-//W3C//DTD SVG 1.1//EN"
 "http://www.w3.org/Graphics/SVG/1.1/DTD/svg11.dtd">
<!-- Generated by graphviz version 2.43.0 (0)
 -->
<!-- Title: G Pages: 1 -->
<svg width="464pt" height="305pt"
 viewBox="0.00 0.00 464.00 305.00" xmlns="http://www.w3.org/2000/svg" xmlns:xlink="http://www.w3.org/1999/xlink">
<g id="graph0" class="graph" transform="scale(1 1) rotate(0) translate(4 301)">
<title>G</title>
<polygon fill="white" stroke="transparent" points="-4,4 -4,-301 460,-301 460,4 -4,4"/>
<!-- FATHERED -->
<g id="node1" class="node">
<title>FATHERED</title>
<path fill="none" stroke="black" d="M86,-297C86,-297 12,-297 12,-297 6,-297 0,-291 0,-285 0,-285 0,-273 0,-273 0,-267 6,-261 12,-261 12,-261 86,-261 86,-261 92,-261 98,-267 98,-273 98,-273 98,-285 98,-285 98,-291 92,-297 86,-297"/>
<text text-anchor="middle" x="49" y="-275.3" font-family="Times,serif" font-size="14.00">FATHERED</text>
</g>
<!-- EDUC -->
<g id="node2" class="node">
<title>EDUC</title>
<path fill="none" stroke="black" d="M245.5,-210C245.5,-210 208.5,-210 208.5,-210 202.5,-210 196.5,-204 196.5,-198 196.5,-198 196.5,-186 196.5,-186 196.5,-180 202.5,-174 208.5,-174 208.5,-174 245.5,-174 245.5,-174 251.5,-174 257.5,-180 257.5,-186 257.5,-186 257.5,-198 257.5,-198 257.5,-204 251.5,-210 245.5,-210"/>
<text text-anchor="middle" x="227" y="-188.3" font-family="Times,serif" font-size="14.00">EDUC</text>
</g>
<!-- FATHERED&#45;&gt;EDUC -->
<g id="edge1" class="edge">
<title>FATHERED&#45;&gt;EDUC</title>
<path fill="none" stroke="black" d="M85.02,-260.8C114.67,-246.64 156.64,-226.6 187.26,-211.98"/>
<polygon fill="black" stroke="black" points="188.85,-215.09 196.37,-207.63 185.84,-208.78 188.85,-215.09"/>
<text text-anchor="middle" x="165" y="-231.8" font-family="Times,serif" font-size="14.00">0.12</text>
</g>
<!-- POTEXPER -->
<g id="node7" class="node">
<title>POTEXPER</title>
<path fill="none" stroke="black" d="M351,-123C351,-123 277,-123 277,-123 271,-123 265,-117 265,-111 265,-111 265,-99 265,-99 265,-93 271,-87 277,-87 277,-87 351,-87 351,-87 357,-87 363,-93 363,-99 363,-99 363,-111 363,-111 363,-117 357,-123 351,-123"/>
<text text-anchor="middle" x="314" y="-101.3" font-family="Times,serif" font-size="14.00">POTEXPER</text>
</g>
<!-- EDUC&#45;&gt;POTEXPER -->
<g id="edge7" class="edge">
<title>EDUC&#45;&gt;POTEXPER</title>
<path fill="none" stroke="black" d="M241.85,-173.86C250.63,-163.98 262.13,-151.48 273,-141 276.78,-137.36 280.87,-133.63 284.95,-130.04"/>
<polygon fill="black" stroke="black" points="287.43,-132.52 292.71,-123.33 282.86,-127.22 287.43,-132.52"/>
<text text-anchor="middle" x="291.5" y="-144.8" font-family="Times,serif" font-size="14.00">&#45;0.98</text>
</g>
<!-- WAGE -->
<g id="node9" class="node">
<title>WAGE</title>
<path fill="none" stroke="black" d="M333,-36C333,-36 295,-36 295,-36 289,-36 283,-30 283,-24 283,-24 283,-12 283,-12 283,-6 289,0 295,0 295,0 333,0 333,0 339,0 345,-6 345,-12 345,-12 345,-24 345,-24 345,-30 339,-36 333,-36"/>
<text text-anchor="middle" x="314" y="-14.3" font-family="Times,serif" font-size="14.00">WAGE</text>
</g>
<!-- EDUC&#45;&gt;WAGE -->
<g id="edge8" class="edge">
<title>EDUC&#45;&gt;WAGE</title>
<path fill="none" stroke="black" d="M221.77,-173.74C216.27,-152.2 210.16,-114.81 224,-87 234.55,-65.81 255.2,-49.47 274.06,-38.13"/>
<polygon fill="black" stroke="black" points="275.89,-41.11 282.84,-33.11 272.42,-35.03 275.89,-41.11"/>
<text text-anchor="middle" x="240" y="-101.3" font-family="Times,serif" font-size="14.00">1.15</text>
</g>
<!-- MOTHERED -->
<g id="node3" class="node">
<title>MOTHERED</title>
<path fill="none" stroke="black" d="M210,-297C210,-297 128,-297 128,-297 122,-297 116,-291 116,-285 116,-285 116,-273 116,-273 116,-267 122,-261 128,-261 128,-261 210,-261 210,-261 216,-261 222,-267 222,-273 222,-273 222,-285 222,-285 222,-291 216,-297 210,-297"/>
<text text-anchor="middle" x="169" y="-275.3" font-family="Times,serif" font-size="14.00">MOTHERED</text>
</g>
<!-- MOTHERED&#45;&gt;EDUC -->
<g id="edge2" class="edge">
<title>MOTHERED&#45;&gt;EDUC</title>
<path fill="none" stroke="black" d="M180.74,-260.8C188.99,-248.7 200.18,-232.3 209.49,-218.67"/>
<polygon fill="black" stroke="black" points="212.53,-220.41 215.28,-210.18 206.75,-216.46 212.53,-220.41"/>
<text text-anchor="middle" x="213.5" y="-231.8" font-family="Times,serif" font-size="14.00">0.1</text>
</g>
<!-- SIBLINGS -->
<g id="node4" class="node">
<title>SIBLINGS</title>
<path fill="none" stroke="black" d="M317.5,-297C317.5,-297 252.5,-297 252.5,-297 246.5,-297 240.5,-291 240.5,-285 240.5,-285 240.5,-273 240.5,-273 240.5,-267 246.5,-261 252.5,-261 252.5,-261 317.5,-261 317.5,-261 323.5,-261 329.5,-267 329.5,-273 329.5,-273 329.5,-285 329.5,-285 329.5,-291 323.5,-297 317.5,-297"/>
<text text-anchor="middle" x="285" y="-275.3" font-family="Times,serif" font-size="14.00">SIBLINGS</text>
</g>
<!-- SIBLINGS&#45;&gt;EDUC -->
<g id="edge3" class="edge">
<title>SIBLINGS&#45;&gt;EDUC</title>
<path fill="none" stroke="black" d="M273.26,-260.8C265.01,-248.7 253.82,-232.3 244.51,-218.67"/>
<polygon fill="black" stroke="black" points="247.25,-216.46 238.72,-210.18 241.47,-220.41 247.25,-216.46"/>
<text text-anchor="middle" x="277.5" y="-231.8" font-family="Times,serif" font-size="14.00">&#45;0.07</text>
</g>
<!-- BRKNHOME -->
<g id="node5" class="node">
<title>BRKNHOME</title>
<path fill="none" stroke="black" d="M444,-297C444,-297 360,-297 360,-297 354,-297 348,-291 348,-285 348,-285 348,-273 348,-273 348,-267 354,-261 360,-261 360,-261 444,-261 444,-261 450,-261 456,-267 456,-273 456,-273 456,-285 456,-285 456,-291 450,-297 444,-297"/>
<text text-anchor="middle" x="402" y="-275.3" font-family="Times,serif" font-size="14.00">BRKNHOME</text>
</g>
<!-- BRKNHOME&#45;&gt;EDUC -->
<g id="edge4" class="edge">
<title>BRKNHOME&#45;&gt;EDUC</title>
<path fill="none" stroke="black" d="M367.1,-260.8C347.42,-251.12 322.36,-238.84 300,-228 289.24,-222.78 277.57,-217.17 266.78,-212"/>
<polygon fill="black" stroke="black" points="268.1,-208.75 257.57,-207.59 265.08,-215.06 268.1,-208.75"/>
<text text-anchor="middle" x="346.5" y="-231.8" font-family="Times,serif" font-size="14.00">&#45;0.48</text>
</g>
<!-- AGE -->
<g id="node6" class="node">
<title>AGE</title>
<path fill="none" stroke="black" d="M329,-210C329,-210 299,-210 299,-210 293,-210 287,-204 287,-198 287,-198 287,-186 287,-186 287,-180 293,-174 299,-174 299,-174 329,-174 329,-174 335,-174 341,-180 341,-186 341,-186 341,-198 341,-198 341,-204 335,-210 329,-210"/>
<text text-anchor="middle" x="314" y="-188.3" font-family="Times,serif" font-size="14.00">AGE</text>
</g>
<!-- AGE&#45;&gt;POTEXPER -->
<g id="edge5" class="edge">
<title>AGE&#45;&gt;POTEXPER</title>
<path fill="none" stroke="black" d="M314,-173.8C314,-162.16 314,-146.55 314,-133.24"/>
<polygon fill="black" stroke="black" points="317.5,-133.18 314,-123.18 310.5,-133.18 317.5,-133.18"/>
<text text-anchor="middle" x="325.5" y="-144.8" font-family="Times,serif" font-size="14.00">0.9</text>
</g>
<!-- POTEXPER&#45;&gt;WAGE -->
<g id="edge9" class="edge">
<title>POTEXPER&#45;&gt;WAGE</title>
<path fill="none" stroke="black" d="M314,-86.8C314,-75.16 314,-59.55 314,-46.24"/>
<polygon fill="black" stroke="black" points="317.5,-46.18 314,-36.18 310.5,-46.18 317.5,-46.18"/>
<text text-anchor="middle" x="330" y="-57.8" font-family="Times,serif" font-size="14.00">0.59</text>
</g>
<!-- ABILITY -->
<g id="node8" class="node">
<title>ABILITY</title>
<path fill="none" stroke="black" d="M443,-123C443,-123 393,-123 393,-123 387,-123 381,-117 381,-111 381,-111 381,-99 381,-99 381,-93 387,-87 393,-87 393,-87 443,-87 443,-87 449,-87 455,-93 455,-99 455,-99 455,-111 455,-111 455,-117 449,-123 443,-123"/>
<text text-anchor="middle" x="418" y="-101.3" font-family="Times,serif" font-size="14.00">ABILITY</text>
</g>
<!-- ABILITY&#45;&gt;WAGE -->
<g id="edge6" class="edge">
<title>ABILITY&#45;&gt;WAGE</title>
<path fill="none" stroke="black" d="M396.95,-86.8C381.45,-74.13 360.17,-56.73 343.04,-42.74"/>
<polygon fill="black" stroke="black" points="344.97,-39.79 335.01,-36.18 340.54,-45.21 344.97,-39.79"/>
<text text-anchor="middle" x="388" y="-57.8" font-family="Times,serif" font-size="14.00">1.16</text>
</g>
</g>
</svg>
