<?xml version="1.0" encoding="UTF-8" standalone="no"?>
<!DOCTYPE svg PUBLIC "-//W3C//DTD SVG 1.1//EN"
 "http://www.w3.org/Graphics/SVG/1.1/DTD/svg11.dtd">
<!-- Generated by graphviz version 2.43.0 (0)
 -->
<!-- Title: G Pages: 1 -->
<svg width="464pt" height="311pt"
 viewBox="0.00 0.00 464.00 311.00" xmlns="http://www.w3.org/2000/svg" xmlns:xlink="http://www.w3.org/1999/xlink">
<g id="graph0" class="graph" transform="scale(1 1) rotate(0) translate(4 307)">
<title>G</title>
<polygon fill="white" stroke="transparent" points="-4,4 -4,-307 460,-307 460,4 -4,4"/>
<!-- FATHERED -->
<g id="node1" class="node">
<title>FATHERED</title>
<path fill="#1a9850" stroke="black" d="M86,-303C86,-303 12,-303 12,-303 6,-303 0,-297 0,-291 0,-291 0,-277 0,-277 0,-271 6,-265 12,-265 12,-265 86,-265 86,-265 92,-265 98,-271 98,-277 98,-277 98,-291 98,-291 98,-297 92,-303 86,-303"/>
<text text-anchor="middle" x="49" y="-287.8" font-family="Times,serif" font-size="14.00">FATHERED</text>
<text text-anchor="middle" x="49" y="-272.8" font-family="Times,serif" font-size="14.00">5.67</text>
</g>
<!-- EDUC -->
<g id="node2" class="node">
<title>EDUC</title>
<path fill="#1a9850" stroke="black" d="M245.5,-214C245.5,-214 208.5,-214 208.5,-214 202.5,-214 196.5,-208 196.5,-202 196.5,-202 196.5,-188 196.5,-188 196.5,-182 202.5,-176 208.5,-176 208.5,-176 245.5,-176 245.5,-176 251.5,-176 257.5,-182 257.5,-188 257.5,-188 257.5,-202 257.5,-202 257.5,-208 251.5,-214 245.5,-214"/>
<text text-anchor="middle" x="227" y="-198.8" font-family="Times,serif" font-size="14.00">EDUC</text>
<text text-anchor="middle" x="227" y="-183.8" font-family="Times,serif" font-size="14.00">5.88</text>
</g>
<!-- FATHERED&#45;&gt;EDUC -->
<g id="edge1" class="edge">
<title>FATHERED&#45;&gt;EDUC</title>
<path fill="none" stroke="#1a9850" stroke-width="2" d="M85.88,-264.97C115.5,-250.49 157.02,-230.2 187.35,-215.38"/>
<polygon fill="#1a9850" stroke="#1a9850" stroke-width="2" points="188.94,-218.5 196.38,-210.96 185.86,-212.21 188.94,-218.5"/>
<text text-anchor="middle" x="165" y="-235.8" font-family="Times,serif" font-size="14.00">5.67</text>
</g>
<!-- POTEXPER -->
<g id="node7" class="node">
<title>POTEXPER</title>
<path fill="#1a9850" stroke="black" d="M352,-125C352,-125 278,-125 278,-125 272,-125 266,-119 266,-113 266,-113 266,-99 266,-99 266,-93 272,-87 278,-87 278,-87 352,-87 352,-87 358,-87 364,-93 364,-99 364,-99 364,-113 364,-113 364,-119 358,-125 352,-125"/>
<text text-anchor="middle" x="315" y="-109.8" font-family="Times,serif" font-size="14.00">POTEXPER</text>
<text text-anchor="middle" x="315" y="-94.8" font-family="Times,serif" font-size="14.00">39.06</text>
</g>
<!-- EDUC&#45;&gt;POTEXPER -->
<g id="edge7" class="edge">
<title>EDUC&#45;&gt;POTEXPER</title>
<path fill="none" stroke="#1a9850" stroke-width="2" d="M245.23,-175.97C257.98,-163.38 275.17,-146.38 289.3,-132.41"/>
<polygon fill="#1a9850" stroke="#1a9850" stroke-width="2" points="292.14,-134.52 296.79,-125 287.22,-129.54 292.14,-134.52"/>
<text text-anchor="middle" x="292" y="-146.8" font-family="Times,serif" font-size="14.00">5.88</text>
</g>
<!-- WAGE -->
<g id="node9" class="node">
<title>WAGE</title>
<path fill="none" stroke="black" d="M334,-36C334,-36 296,-36 296,-36 290,-36 284,-30 284,-24 284,-24 284,-12 284,-12 284,-6 290,0 296,0 296,0 334,0 334,0 340,0 346,-6 346,-12 346,-12 346,-24 346,-24 346,-30 340,-36 334,-36"/>
<text text-anchor="middle" x="315" y="-14.3" font-family="Times,serif" font-size="14.00">WAGE</text>
</g>
<!-- EDUC&#45;&gt;WAGE -->
<g id="edge8" class="edge">
<title>EDUC&#45;&gt;WAGE</title>
<path fill="none" stroke="#1a9850" stroke-width="2" d="M221.8,-175.85C216.49,-153.63 210.84,-115.44 225,-87 235.55,-65.81 256.2,-49.47 275.06,-38.13"/>
<polygon fill="#1a9850" stroke="#1a9850" stroke-width="2" points="276.89,-41.11 283.84,-33.11 273.42,-35.03 276.89,-41.11"/>
<text text-anchor="middle" x="241" y="-102.3" font-family="Times,serif" font-size="14.00">5.88</text>
</g>
<!-- MOTHERED -->
<g id="node3" class="node">
<title>MOTHERED</title>
<path fill="#1a9850" stroke="black" d="M210,-303C210,-303 128,-303 128,-303 122,-303 116,-297 116,-291 116,-291 116,-277 116,-277 116,-271 122,-265 128,-265 128,-265 210,-265 210,-265 216,-265 222,-271 222,-277 222,-277 222,-291 222,-291 222,-297 216,-303 210,-303"/>
<text text-anchor="middle" x="169" y="-287.8" font-family="Times,serif" font-size="14.00">MOTHERED</text>
<text text-anchor="middle" x="169" y="-272.8" font-family="Times,serif" font-size="14.00">5.38</text>
</g>
<!-- MOTHERED&#45;&gt;EDUC -->
<g id="edge2" class="edge">
<title>MOTHERED&#45;&gt;EDUC</title>
<path fill="none" stroke="#1a9850" stroke-width="2" d="M181.02,-264.97C189.18,-252.73 200.12,-236.32 209.28,-222.58"/>
<polygon fill="#1a9850" stroke="#1a9850" stroke-width="2" points="212.36,-224.27 215,-214 206.54,-220.38 212.36,-224.27"/>
<text text-anchor="middle" x="218" y="-235.8" font-family="Times,serif" font-size="14.00">5.38</text>
</g>
<!-- SIBLINGS -->
<g id="node4" class="node">
<title>SIBLINGS</title>
<path fill="#1a9850" stroke="black" d="M317.5,-303C317.5,-303 252.5,-303 252.5,-303 246.5,-303 240.5,-297 240.5,-291 240.5,-291 240.5,-277 240.5,-277 240.5,-271 246.5,-265 252.5,-265 252.5,-265 317.5,-265 317.5,-265 323.5,-265 329.5,-271 329.5,-277 329.5,-277 329.5,-291 329.5,-291 329.5,-297 323.5,-303 317.5,-303"/>
<text text-anchor="middle" x="285" y="-287.8" font-family="Times,serif" font-size="14.00">SIBLINGS</text>
<text text-anchor="middle" x="285" y="-272.8" font-family="Times,serif" font-size="14.00">&#45;4.82</text>
</g>
<!-- SIBLINGS&#45;&gt;EDUC -->
<g id="edge3" class="edge">
<title>SIBLINGS&#45;&gt;EDUC</title>
<path fill="none" stroke="#1a9850" stroke-width="2" d="M272.98,-264.97C264.82,-252.73 253.88,-236.32 244.72,-222.58"/>
<polygon fill="#1a9850" stroke="#1a9850" stroke-width="2" points="247.46,-220.38 239,-214 241.64,-224.27 247.46,-220.38"/>
<text text-anchor="middle" x="277.5" y="-235.8" font-family="Times,serif" font-size="14.00">&#45;4.82</text>
</g>
<!-- BRKNHOME -->
<g id="node5" class="node">
<title>BRKNHOME</title>
<path fill="#1a9850" stroke="black" d="M444,-303C444,-303 360,-303 360,-303 354,-303 348,-297 348,-291 348,-291 348,-277 348,-277 348,-271 354,-265 360,-265 360,-265 444,-265 444,-265 450,-265 456,-271 456,-277 456,-277 456,-291 456,-291 456,-297 450,-303 444,-303"/>
<text text-anchor="middle" x="402" y="-287.8" font-family="Times,serif" font-size="14.00">BRKNHOME</text>
<text text-anchor="middle" x="402" y="-272.8" font-family="Times,serif" font-size="14.00">&#45;5</text>
</g>
<!-- BRKNHOME&#45;&gt;EDUC -->
<g id="edge4" class="edge">
<title>BRKNHOME&#45;&gt;EDUC</title>
<path fill="none" stroke="#1a9850" stroke-width="2" d="M365.67,-264.78C346.21,-255.03 321.81,-242.83 300,-232 289.23,-226.65 277.56,-220.88 266.77,-215.56"/>
<polygon fill="#1a9850" stroke="#1a9850" stroke-width="2" points="268.08,-212.31 257.56,-211.03 264.99,-218.59 268.08,-212.31"/>
<text text-anchor="middle" x="335" y="-235.8" font-family="Times,serif" font-size="14.00">&#45;5</text>
</g>
<!-- AGE -->
<g id="node6" class="node">
<title>AGE</title>
<path fill="#1a9850" stroke="black" d="M331.5,-214C331.5,-214 298.5,-214 298.5,-214 292.5,-214 286.5,-208 286.5,-202 286.5,-202 286.5,-188 286.5,-188 286.5,-182 292.5,-176 298.5,-176 298.5,-176 331.5,-176 331.5,-176 337.5,-176 343.5,-182 343.5,-188 343.5,-188 343.5,-202 343.5,-202 343.5,-208 337.5,-214 331.5,-214"/>
<text text-anchor="middle" x="315" y="-198.8" font-family="Times,serif" font-size="14.00">AGE</text>
<text text-anchor="middle" x="315" y="-183.8" font-family="Times,serif" font-size="14.00">33.32</text>
</g>
<!-- AGE&#45;&gt;POTEXPER -->
<g id="edge5" class="edge">
<title>AGE&#45;&gt;POTEXPER</title>
<path fill="none" stroke="#1a9850" stroke-width="2" d="M315,-175.97C315,-164.19 315,-148.56 315,-135.16"/>
<polygon fill="#1a9850" stroke="#1a9850" stroke-width="2" points="318.5,-135 315,-125 311.5,-135 318.5,-135"/>
<text text-anchor="middle" x="335.5" y="-146.8" font-family="Times,serif" font-size="14.00">33.32</text>
</g>
<!-- POTEXPER&#45;&gt;WAGE -->
<g id="edge9" class="edge">
<title>POTEXPER&#45;&gt;WAGE</title>
<path fill="none" stroke="#1a9850" stroke-width="2" d="M315,-86.76C315,-74.93 315,-59.32 315,-46.05"/>
<polygon fill="#1a9850" stroke="#1a9850" stroke-width="2" points="318.5,-46.04 315,-36.04 311.5,-46.04 318.5,-46.04"/>
<text text-anchor="middle" x="335.5" y="-57.8" font-family="Times,serif" font-size="14.00">39.06</text>
</g>
<!-- ABILITY -->
<g id="node8" class="node">
<title>ABILITY</title>
<path fill="#1a9850" stroke="black" d="M444,-125C444,-125 394,-125 394,-125 388,-125 382,-119 382,-113 382,-113 382,-99 382,-99 382,-93 388,-87 394,-87 394,-87 444,-87 444,-87 450,-87 456,-93 456,-99 456,-99 456,-113 456,-113 456,-119 450,-125 444,-125"/>
<text text-anchor="middle" x="419" y="-109.8" font-family="Times,serif" font-size="14.00">ABILITY</text>
<text text-anchor="middle" x="419" y="-94.8" font-family="Times,serif" font-size="14.00">14.24</text>
</g>
<!-- ABILITY&#45;&gt;WAGE -->
<g id="edge6" class="edge">
<title>ABILITY&#45;&gt;WAGE</title>
<path fill="none" stroke="#1a9850" stroke-width="2" d="M398.47,-86.8C387.23,-76.95 372.98,-64.65 360,-54 355.39,-50.22 350.46,-46.28 345.62,-42.47"/>
<polygon fill="#1a9850" stroke="#1a9850" stroke-width="2" points="347.65,-39.62 337.61,-36.22 343.34,-45.13 347.65,-39.62"/>
<text text-anchor="middle" x="396.5" y="-57.8" font-family="Times,serif" font-size="14.00">14.24</text>
</g>
</g>
</svg>
