<?xml version="1.0" encoding="UTF-8" standalone="no"?>
<!DOCTYPE svg PUBLIC "-//W3C//DTD SVG 1.1//EN"
 "http://www.w3.org/Graphics/SVG/1.1/DTD/svg11.dtd">
<!-- Generated by graphviz version 2.43.0 (0)
 -->
<!-- Title: G Pages: 1 -->
<svg width="464pt" height="311pt"
 viewBox="0.00 0.00 464.00 311.00" xmlns="http://www.w3.org/2000/svg" xmlns:xlink="http://www.w3.org/1999/xlink">
<g id="graph0" class="graph" transform="scale(1 1) rotate(0) translate(4 307)">
<title>G</title>
<polygon fill="white" stroke="transparent" points="-4,4 -4,-307 460,-307 460,4 -4,4"/>
<!-- FATHERED -->
<g id="node1" class="node">
<title>FATHERED</title>
<path fill="#d73027" stroke="black" d="M86,-303C86,-303 12,-303 12,-303 6,-303 0,-297 0,-291 0,-291 0,-277 0,-277 0,-271 6,-265 12,-265 12,-265 86,-265 86,-265 92,-265 98,-271 98,-277 98,-277 98,-291 98,-291 98,-297 92,-303 86,-303"/>
<text text-anchor="middle" x="49" y="-287.8" font-family="Times,serif" font-size="14.00">FATHERED</text>
<text text-anchor="middle" x="49" y="-272.8" font-family="Times,serif" font-size="14.00">1.64</text>
</g>
<!-- EDUC -->
<g id="node2" class="node">
<title>EDUC</title>
<path fill="#fee08b" stroke="black" d="M245.5,-214C245.5,-214 208.5,-214 208.5,-214 202.5,-214 196.5,-208 196.5,-202 196.5,-202 196.5,-188 196.5,-188 196.5,-182 202.5,-176 208.5,-176 208.5,-176 245.5,-176 245.5,-176 251.5,-176 257.5,-182 257.5,-188 257.5,-188 257.5,-202 257.5,-202 257.5,-208 251.5,-214 245.5,-214"/>
<text text-anchor="middle" x="227" y="-198.8" font-family="Times,serif" font-size="14.00">EDUC</text>
<text text-anchor="middle" x="227" y="-183.8" font-family="Times,serif" font-size="14.00">0.66</text>
</g>
<!-- FATHERED&#45;&gt;EDUC -->
<g id="edge1" class="edge">
<title>FATHERED&#45;&gt;EDUC</title>
<path fill="none" stroke="#d73027" stroke-width="2" d="M85.88,-264.97C115.5,-250.49 157.02,-230.2 187.35,-215.38"/>
<polygon fill="#d73027" stroke="#d73027" stroke-width="2" points="188.94,-218.5 196.38,-210.96 185.86,-212.21 188.94,-218.5"/>
<text text-anchor="middle" x="165" y="-235.8" font-family="Times,serif" font-size="14.00">1.64</text>
</g>
<!-- POTEXPER -->
<g id="node7" class="node">
<title>POTEXPER</title>
<path fill="#d73027" stroke="black" d="M351,-125C351,-125 277,-125 277,-125 271,-125 265,-119 265,-113 265,-113 265,-99 265,-99 265,-93 271,-87 277,-87 277,-87 351,-87 351,-87 357,-87 363,-93 363,-99 363,-99 363,-113 363,-113 363,-119 357,-125 351,-125"/>
<text text-anchor="middle" x="314" y="-109.8" font-family="Times,serif" font-size="14.00">POTEXPER</text>
<text text-anchor="middle" x="314" y="-94.8" font-family="Times,serif" font-size="14.00">6.15</text>
</g>
<!-- EDUC&#45;&gt;POTEXPER -->
<g id="edge7" class="edge">
<title>EDUC&#45;&gt;POTEXPER</title>
<path fill="none" stroke="#fdae61" stroke-width="2" d="M245.03,-175.97C257.62,-163.38 274.62,-146.38 288.59,-132.41"/>
<polygon fill="#fdae61" stroke="#fdae61" stroke-width="2" points="291.4,-134.55 296,-125 286.45,-129.6 291.4,-134.55"/>
<text text-anchor="middle" x="291" y="-146.8" font-family="Times,serif" font-size="14.00">0.84</text>
</g>
<!-- WAGE -->
<g id="node9" class="node">
<title>WAGE</title>
<path fill="none" stroke="black" d="M333,-36C333,-36 295,-36 295,-36 289,-36 283,-30 283,-24 283,-24 283,-12 283,-12 283,-6 289,0 295,0 295,0 333,0 333,0 339,0 345,-6 345,-12 345,-12 345,-24 345,-24 345,-30 339,-36 333,-36"/>
<text text-anchor="middle" x="314" y="-14.3" font-family="Times,serif" font-size="14.00">WAGE</text>
</g>
<!-- EDUC&#45;&gt;WAGE -->
<g id="edge8" class="edge">
<title>EDUC&#45;&gt;WAGE</title>
<path fill="none" stroke="#fdae61" stroke-width="2" d="M221.54,-175.85C215.93,-153.63 209.84,-115.45 224,-87 234.55,-65.81 255.2,-49.47 274.06,-38.13"/>
<polygon fill="#fdae61" stroke="#fdae61" stroke-width="2" points="275.89,-41.11 282.84,-33.11 272.42,-35.03 275.89,-41.11"/>
<text text-anchor="middle" x="240" y="-102.3" font-family="Times,serif" font-size="14.00">0.75</text>
</g>
<!-- MOTHERED -->
<g id="node3" class="node">
<title>MOTHERED</title>
<path fill="#fee08b" stroke="black" d="M210,-303C210,-303 128,-303 128,-303 122,-303 116,-297 116,-291 116,-291 116,-277 116,-277 116,-271 122,-265 128,-265 128,-265 210,-265 210,-265 216,-265 222,-271 222,-277 222,-277 222,-291 222,-291 222,-297 216,-303 210,-303"/>
<text text-anchor="middle" x="169" y="-287.8" font-family="Times,serif" font-size="14.00">MOTHERED</text>
<text text-anchor="middle" x="169" y="-272.8" font-family="Times,serif" font-size="14.00">0.64</text>
</g>
<!-- MOTHERED&#45;&gt;EDUC -->
<g id="edge2" class="edge">
<title>MOTHERED&#45;&gt;EDUC</title>
<path fill="none" stroke="#fee08b" stroke-width="2" d="M181.02,-264.97C189.18,-252.73 200.12,-236.32 209.28,-222.58"/>
<polygon fill="#fee08b" stroke="#fee08b" stroke-width="2" points="212.36,-224.27 215,-214 206.54,-220.38 212.36,-224.27"/>
<text text-anchor="middle" x="218" y="-235.8" font-family="Times,serif" font-size="14.00">0.64</text>
</g>
<!-- SIBLINGS -->
<g id="node4" class="node">
<title>SIBLINGS</title>
<path fill="#d73027" stroke="black" d="M317.5,-303C317.5,-303 252.5,-303 252.5,-303 246.5,-303 240.5,-297 240.5,-291 240.5,-291 240.5,-277 240.5,-277 240.5,-271 246.5,-265 252.5,-265 252.5,-265 317.5,-265 317.5,-265 323.5,-265 329.5,-271 329.5,-277 329.5,-277 329.5,-291 329.5,-291 329.5,-297 323.5,-303 317.5,-303"/>
<text text-anchor="middle" x="285" y="-287.8" font-family="Times,serif" font-size="14.00">SIBLINGS</text>
<text text-anchor="middle" x="285" y="-272.8" font-family="Times,serif" font-size="14.00">1.56</text>
</g>
<!-- SIBLINGS&#45;&gt;EDUC -->
<g id="edge3" class="edge">
<title>SIBLINGS&#45;&gt;EDUC</title>
<path fill="none" stroke="#d73027" stroke-width="2" d="M272.98,-264.97C264.82,-252.73 253.88,-236.32 244.72,-222.58"/>
<polygon fill="#d73027" stroke="#d73027" stroke-width="2" points="247.46,-220.38 239,-214 241.64,-224.27 247.46,-220.38"/>
<text text-anchor="middle" x="275" y="-235.8" font-family="Times,serif" font-size="14.00">1.56</text>
</g>
<!-- BRKNHOME -->
<g id="node5" class="node">
<title>BRKNHOME</title>
<path fill="#fee08b" stroke="black" d="M444,-303C444,-303 360,-303 360,-303 354,-303 348,-297 348,-291 348,-291 348,-277 348,-277 348,-271 354,-265 360,-265 360,-265 444,-265 444,-265 450,-265 456,-271 456,-277 456,-277 456,-291 456,-291 456,-297 450,-303 444,-303"/>
<text text-anchor="middle" x="402" y="-287.8" font-family="Times,serif" font-size="14.00">BRKNHOME</text>
<text text-anchor="middle" x="402" y="-272.8" font-family="Times,serif" font-size="14.00">&#45;0.38</text>
</g>
<!-- BRKNHOME&#45;&gt;EDUC -->
<g id="edge4" class="edge">
<title>BRKNHOME&#45;&gt;EDUC</title>
<path fill="none" stroke="#fee08b" stroke-width="2" d="M365.74,-264.97C336.92,-250.65 296.66,-230.63 266.92,-215.85"/>
<polygon fill="#fee08b" stroke="#fee08b" stroke-width="2" points="268.18,-212.56 257.67,-211.25 265.06,-218.83 268.18,-212.56"/>
<text text-anchor="middle" x="342.5" y="-235.8" font-family="Times,serif" font-size="14.00">&#45;0.38</text>
</g>
<!-- AGE -->
<g id="node6" class="node">
<title>AGE</title>
<path fill="#d73027" stroke="black" d="M329,-214C329,-214 299,-214 299,-214 293,-214 287,-208 287,-202 287,-202 287,-188 287,-188 287,-182 293,-176 299,-176 299,-176 329,-176 329,-176 335,-176 341,-182 341,-188 341,-188 341,-202 341,-202 341,-208 335,-214 329,-214"/>
<text text-anchor="middle" x="314" y="-198.8" font-family="Times,serif" font-size="14.00">AGE</text>
<text text-anchor="middle" x="314" y="-183.8" font-family="Times,serif" font-size="14.00">1.98</text>
</g>
<!-- AGE&#45;&gt;POTEXPER -->
<g id="edge5" class="edge">
<title>AGE&#45;&gt;POTEXPER</title>
<path fill="none" stroke="#d73027" stroke-width="2" d="M314,-175.97C314,-164.19 314,-148.56 314,-135.16"/>
<polygon fill="#d73027" stroke="#d73027" stroke-width="2" points="317.5,-135 314,-125 310.5,-135 317.5,-135"/>
<text text-anchor="middle" x="330" y="-146.8" font-family="Times,serif" font-size="14.00">1.98</text>
</g>
<!-- POTEXPER&#45;&gt;WAGE -->
<g id="edge9" class="edge">
<title>POTEXPER&#45;&gt;WAGE</title>
<path fill="none" stroke="#d73027" stroke-width="2" d="M314,-86.76C314,-74.93 314,-59.32 314,-46.05"/>
<polygon fill="#d73027" stroke="#d73027" stroke-width="2" points="317.5,-46.04 314,-36.04 310.5,-46.04 317.5,-46.04"/>
<text text-anchor="middle" x="330" y="-57.8" font-family="Times,serif" font-size="14.00">6.15</text>
</g>
<!-- ABILITY -->
<g id="node8" class="node">
<title>ABILITY</title>
<path fill="#d73027" stroke="black" d="M443,-125C443,-125 393,-125 393,-125 387,-125 381,-119 381,-113 381,-113 381,-99 381,-99 381,-93 387,-87 393,-87 393,-87 443,-87 443,-87 449,-87 455,-93 455,-99 455,-99 455,-113 455,-113 455,-119 449,-125 443,-125"/>
<text text-anchor="middle" x="418" y="-109.8" font-family="Times,serif" font-size="14.00">ABILITY</text>
<text text-anchor="middle" x="418" y="-94.8" font-family="Times,serif" font-size="14.00">1.98</text>
</g>
<!-- ABILITY&#45;&gt;WAGE -->
<g id="edge6" class="edge">
<title>ABILITY&#45;&gt;WAGE</title>
<path fill="none" stroke="#d73027" stroke-width="2" d="M396.2,-86.97C380.64,-74.1 359.56,-56.67 342.64,-42.68"/>
<polygon fill="#d73027" stroke="#d73027" stroke-width="2" points="344.65,-39.8 334.71,-36.13 340.19,-45.2 344.65,-39.8"/>
<text text-anchor="middle" x="388" y="-57.8" font-family="Times,serif" font-size="14.00">1.98</text>
</g>
</g>
</svg>
