<?xml version="1.0" encoding="UTF-8" standalone="no"?>
<!DOCTYPE svg PUBLIC "-//W3C//DTD SVG 1.1//EN"
 "http://www.w3.org/Graphics/SVG/1.1/DTD/svg11.dtd">
<!-- Generated by graphviz version 2.43.0 (0)
 -->
<!-- Title: G Pages: 1 -->
<svg width="464pt" height="313pt"
 viewBox="0.00 0.00 464.00 313.00" xmlns="http://www.w3.org/2000/svg" xmlns:xlink="http://www.w3.org/1999/xlink">
<g id="graph0" class="graph" transform="scale(1 1) rotate(0) translate(4 309)">
<title>G</title>
<polygon fill="white" stroke="transparent" points="-4,4 -4,-309 460,-309 460,4 -4,4"/>
<!-- FATHERED -->
<g id="node1" class="node">
<title>FATHERED</title>
<path fill="none" stroke="black" d="M86,-305C86,-305 12,-305 12,-305 6,-305 0,-299 0,-293 0,-293 0,-279 0,-279 0,-273 6,-267 12,-267 12,-267 86,-267 86,-267 92,-267 98,-273 98,-279 98,-279 98,-293 98,-293 98,-299 92,-305 86,-305"/>
<text text-anchor="middle" x="49" y="-289.8" font-family="Times,serif" font-size="14.00">FATHERED</text>
<text text-anchor="middle" x="49" y="-274.8" font-family="Times,serif" font-size="14.00">0.07</text>
</g>
<!-- EDUC -->
<g id="node2" class="node">
<title>EDUC</title>
<path fill="none" stroke="black" d="M245.5,-216C245.5,-216 208.5,-216 208.5,-216 202.5,-216 196.5,-210 196.5,-204 196.5,-204 196.5,-190 196.5,-190 196.5,-184 202.5,-178 208.5,-178 208.5,-178 245.5,-178 245.5,-178 251.5,-178 257.5,-184 257.5,-190 257.5,-190 257.5,-204 257.5,-204 257.5,-210 251.5,-216 245.5,-216"/>
<text text-anchor="middle" x="227" y="-200.8" font-family="Times,serif" font-size="14.00">EDUC</text>
<text text-anchor="middle" x="227" y="-185.8" font-family="Times,serif" font-size="14.00">0.56</text>
</g>
<!-- FATHERED&#45;&gt;EDUC -->
<g id="edge1" class="edge">
<title>FATHERED&#45;&gt;EDUC</title>
<path fill="none" stroke="black" d="M85.88,-266.97C115.5,-252.49 157.02,-232.2 187.35,-217.38"/>
<polygon fill="black" stroke="black" points="188.94,-220.5 196.38,-212.96 185.86,-214.21 188.94,-220.5"/>
<text text-anchor="middle" x="165" y="-237.8" font-family="Times,serif" font-size="14.00">0.07</text>
</g>
<!-- POTEXPER -->
<g id="node7" class="node">
<title>POTEXPER</title>
<path fill="none" stroke="black" d="M351,-127C351,-127 277,-127 277,-127 271,-127 265,-121 265,-115 265,-115 265,-101 265,-101 265,-95 271,-89 277,-89 277,-89 351,-89 351,-89 357,-89 363,-95 363,-101 363,-101 363,-115 363,-115 363,-121 357,-127 351,-127"/>
<text text-anchor="middle" x="314" y="-111.8" font-family="Times,serif" font-size="14.00">POTEXPER</text>
<text text-anchor="middle" x="314" y="-96.8" font-family="Times,serif" font-size="14.00">0.59</text>
</g>
<!-- EDUC&#45;&gt;POTEXPER -->
<g id="edge7" class="edge">
<title>EDUC&#45;&gt;POTEXPER</title>
<path fill="none" stroke="black" d="M242.68,-177.59C251.35,-167.67 262.48,-155.38 273,-145 276.7,-141.35 280.69,-137.61 284.69,-133.99"/>
<polygon fill="black" stroke="black" points="287.15,-136.49 292.29,-127.23 282.5,-131.26 287.15,-136.49"/>
<text text-anchor="middle" x="291.5" y="-148.8" font-family="Times,serif" font-size="14.00">&#45;0.58</text>
</g>
<!-- WAGE -->
<g id="node9" class="node">
<title>WAGE</title>
<path fill="none" stroke="black" d="M333,-38C333,-38 295,-38 295,-38 289,-38 283,-32 283,-26 283,-26 283,-12 283,-12 283,-6 289,0 295,0 295,0 333,0 333,0 339,0 345,-6 345,-12 345,-12 345,-26 345,-26 345,-32 339,-38 333,-38"/>
<text text-anchor="middle" x="314" y="-22.8" font-family="Times,serif" font-size="14.00">WAGE</text>
<text text-anchor="middle" x="314" y="-7.8" font-family="Times,serif" font-size="14.00">1</text>
</g>
<!-- EDUC&#45;&gt;WAGE -->
<g id="edge8" class="edge">
<title>EDUC&#45;&gt;WAGE</title>
<path fill="none" stroke="black" d="M221.58,-177.87C216,-155.67 209.94,-117.5 224,-89 234.53,-67.66 255.18,-51.09 274.04,-39.54"/>
<polygon fill="black" stroke="black" points="275.94,-42.49 282.82,-34.44 272.42,-36.44 275.94,-42.49"/>
<text text-anchor="middle" x="240" y="-104.3" font-family="Times,serif" font-size="14.00">1.15</text>
</g>
<!-- MOTHERED -->
<g id="node3" class="node">
<title>MOTHERED</title>
<path fill="none" stroke="black" d="M210,-305C210,-305 128,-305 128,-305 122,-305 116,-299 116,-293 116,-293 116,-279 116,-279 116,-273 122,-267 128,-267 128,-267 210,-267 210,-267 216,-267 222,-273 222,-279 222,-279 222,-293 222,-293 222,-299 216,-305 210,-305"/>
<text text-anchor="middle" x="169" y="-289.8" font-family="Times,serif" font-size="14.00">MOTHERED</text>
<text text-anchor="middle" x="169" y="-274.8" font-family="Times,serif" font-size="14.00">0.06</text>
</g>
<!-- MOTHERED&#45;&gt;EDUC -->
<g id="edge2" class="edge">
<title>MOTHERED&#45;&gt;EDUC</title>
<path fill="none" stroke="black" d="M181.02,-266.97C189.18,-254.73 200.12,-238.32 209.28,-224.58"/>
<polygon fill="black" stroke="black" points="212.36,-226.27 215,-216 206.54,-222.38 212.36,-226.27"/>
<text text-anchor="middle" x="218" y="-237.8" font-family="Times,serif" font-size="14.00">0.06</text>
</g>
<!-- SIBLINGS -->
<g id="node4" class="node">
<title>SIBLINGS</title>
<path fill="none" stroke="black" d="M317.5,-305C317.5,-305 252.5,-305 252.5,-305 246.5,-305 240.5,-299 240.5,-293 240.5,-293 240.5,-279 240.5,-279 240.5,-273 246.5,-267 252.5,-267 252.5,-267 317.5,-267 317.5,-267 323.5,-267 329.5,-273 329.5,-279 329.5,-279 329.5,-293 329.5,-293 329.5,-299 323.5,-305 317.5,-305"/>
<text text-anchor="middle" x="285" y="-289.8" font-family="Times,serif" font-size="14.00">SIBLINGS</text>
<text text-anchor="middle" x="285" y="-274.8" font-family="Times,serif" font-size="14.00">&#45;0.04</text>
</g>
<!-- SIBLINGS&#45;&gt;EDUC -->
<g id="edge3" class="edge">
<title>SIBLINGS&#45;&gt;EDUC</title>
<path fill="none" stroke="black" d="M272.98,-266.97C264.82,-254.73 253.88,-238.32 244.72,-224.58"/>
<polygon fill="black" stroke="black" points="247.46,-222.38 239,-216 241.64,-226.27 247.46,-222.38"/>
<text text-anchor="middle" x="277.5" y="-237.8" font-family="Times,serif" font-size="14.00">&#45;0.04</text>
</g>
<!-- BRKNHOME -->
<g id="node5" class="node">
<title>BRKNHOME</title>
<path fill="none" stroke="black" d="M444,-305C444,-305 360,-305 360,-305 354,-305 348,-299 348,-293 348,-293 348,-279 348,-279 348,-273 354,-267 360,-267 360,-267 444,-267 444,-267 450,-267 456,-273 456,-279 456,-279 456,-293 456,-293 456,-299 450,-305 444,-305"/>
<text text-anchor="middle" x="402" y="-289.8" font-family="Times,serif" font-size="14.00">BRKNHOME</text>
<text text-anchor="middle" x="402" y="-274.8" font-family="Times,serif" font-size="14.00">&#45;0.27</text>
</g>
<!-- BRKNHOME&#45;&gt;EDUC -->
<g id="edge4" class="edge">
<title>BRKNHOME&#45;&gt;EDUC</title>
<path fill="none" stroke="black" d="M365.67,-266.78C346.21,-257.03 321.81,-244.83 300,-234 289.23,-228.65 277.56,-222.88 266.77,-217.56"/>
<polygon fill="black" stroke="black" points="268.08,-214.31 257.56,-213.03 264.99,-220.59 268.08,-214.31"/>
<text text-anchor="middle" x="346.5" y="-237.8" font-family="Times,serif" font-size="14.00">&#45;0.27</text>
</g>
<!-- AGE -->
<g id="node6" class="node">
<title>AGE</title>
<path fill="none" stroke="black" d="M329,-216C329,-216 299,-216 299,-216 293,-216 287,-210 287,-204 287,-204 287,-190 287,-190 287,-184 293,-178 299,-178 299,-178 329,-178 329,-178 335,-178 341,-184 341,-190 341,-190 341,-204 341,-204 341,-210 335,-216 329,-216"/>
<text text-anchor="middle" x="314" y="-200.8" font-family="Times,serif" font-size="14.00">AGE</text>
<text text-anchor="middle" x="314" y="-185.8" font-family="Times,serif" font-size="14.00">0.53</text>
</g>
<!-- AGE&#45;&gt;POTEXPER -->
<g id="edge5" class="edge">
<title>AGE&#45;&gt;POTEXPER</title>
<path fill="none" stroke="black" d="M314,-177.97C314,-166.19 314,-150.56 314,-137.16"/>
<polygon fill="black" stroke="black" points="317.5,-137 314,-127 310.5,-137 317.5,-137"/>
<text text-anchor="middle" x="330" y="-148.8" font-family="Times,serif" font-size="14.00">0.53</text>
</g>
<!-- POTEXPER&#45;&gt;WAGE -->
<g id="edge9" class="edge">
<title>POTEXPER&#45;&gt;WAGE</title>
<path fill="none" stroke="black" d="M314,-88.97C314,-77.19 314,-61.56 314,-48.16"/>
<polygon fill="black" stroke="black" points="317.5,-48 314,-38 310.5,-48 317.5,-48"/>
<text text-anchor="middle" x="330" y="-59.8" font-family="Times,serif" font-size="14.00">0.59</text>
</g>
<!-- ABILITY -->
<g id="node8" class="node">
<title>ABILITY</title>
<path fill="none" stroke="black" d="M443,-127C443,-127 393,-127 393,-127 387,-127 381,-121 381,-115 381,-115 381,-101 381,-101 381,-95 387,-89 393,-89 393,-89 443,-89 443,-89 449,-89 455,-95 455,-101 455,-101 455,-115 455,-115 455,-121 449,-127 443,-127"/>
<text text-anchor="middle" x="418" y="-111.8" font-family="Times,serif" font-size="14.00">ABILITY</text>
<text text-anchor="middle" x="418" y="-96.8" font-family="Times,serif" font-size="14.00">1.16</text>
</g>
<!-- ABILITY&#45;&gt;WAGE -->
<g id="edge6" class="edge">
<title>ABILITY&#45;&gt;WAGE</title>
<path fill="none" stroke="black" d="M396.45,-88.97C381.11,-76.14 360.32,-58.74 343.45,-44.63"/>
<polygon fill="black" stroke="black" points="345.44,-41.74 335.52,-38 340.95,-47.1 345.44,-41.74"/>
<text text-anchor="middle" x="388" y="-59.8" font-family="Times,serif" font-size="14.00">1.16</text>
</g>
</g>
</svg>
