<?xml version="1.0" encoding="UTF-8" standalone="no"?>
<!DOCTYPE svg PUBLIC "-//W3C//DTD SVG 1.1//EN"
 "http://www.w3.org/Graphics/SVG/1.1/DTD/svg11.dtd">
<!-- Generated by graphviz version 2.43.0 (0)
 -->
<!-- Title: G Pages: 1 -->
<svg width="720pt" height="305pt"
 viewBox="0.00 0.00 720.00 305.00" xmlns="http://www.w3.org/2000/svg" xmlns:xlink="http://www.w3.org/1999/xlink">
<g id="graph0" class="graph" transform="scale(1 1) rotate(0) translate(4 301)">
<title>G</title>
<polygon fill="white" stroke="transparent" points="-4,4 -4,-301 716,-301 716,4 -4,4"/>
<!-- FATHERED -->
<g id="node1" class="node">
<title>FATHERED</title>
<path fill="none" stroke="black" d="M212,-297C212,-297 138,-297 138,-297 132,-297 126,-291 126,-285 126,-285 126,-273 126,-273 126,-267 132,-261 138,-261 138,-261 212,-261 212,-261 218,-261 224,-267 224,-273 224,-273 224,-285 224,-285 224,-291 218,-297 212,-297"/>
<text text-anchor="middle" x="175" y="-275.3" font-family="Times,serif" font-size="14.00">FATHERED</text>
</g>
<!-- EDUC -->
<g id="node2" class="node">
<title>EDUC</title>
<path fill="none" stroke="black" d="M230.5,-210C230.5,-210 193.5,-210 193.5,-210 187.5,-210 181.5,-204 181.5,-198 181.5,-198 181.5,-186 181.5,-186 181.5,-180 187.5,-174 193.5,-174 193.5,-174 230.5,-174 230.5,-174 236.5,-174 242.5,-180 242.5,-186 242.5,-186 242.5,-198 242.5,-198 242.5,-204 236.5,-210 230.5,-210"/>
<text text-anchor="middle" x="212" y="-188.3" font-family="Times,serif" font-size="14.00">EDUC</text>
</g>
<!-- FATHERED&#45;&gt;EDUC -->
<g id="edge1" class="edge">
<title>FATHERED&#45;&gt;EDUC</title>
<path fill="none" stroke="#1a9850" stroke-width="2" d="M171.15,-260.63C169.79,-250.68 169.54,-238.18 174,-228 175.62,-224.32 177.83,-220.85 180.39,-217.64"/>
<polygon fill="#1a9850" stroke="#1a9850" stroke-width="2" points="183.06,-219.9 187.29,-210.19 177.92,-215.14 183.06,-219.9"/>
<text text-anchor="middle" x="194.5" y="-231.8" font-family="Times,serif" font-size="14.00">19.33</text>
</g>
<!-- POTEXPER -->
<g id="node6" class="node">
<title>POTEXPER</title>
<path fill="none" stroke="black" d="M376,-123C376,-123 302,-123 302,-123 296,-123 290,-117 290,-111 290,-111 290,-99 290,-99 290,-93 296,-87 302,-87 302,-87 376,-87 376,-87 382,-87 388,-93 388,-99 388,-99 388,-111 388,-111 388,-117 382,-123 376,-123"/>
<text text-anchor="middle" x="339" y="-101.3" font-family="Times,serif" font-size="14.00">POTEXPER</text>
</g>
<!-- FATHERED&#45;&gt;POTEXPER -->
<g id="edge5" class="edge">
<title>FATHERED&#45;&gt;POTEXPER</title>
<path fill="none" stroke="#1a9850" stroke-width="2" d="M224.15,-271.4C242.59,-266.49 262.17,-257.92 275,-243 295.35,-219.34 275.42,-202.56 288,-174 294.86,-158.42 305.9,-143.07 315.95,-130.91"/>
<polygon fill="#1a9850" stroke="#1a9850" stroke-width="2" points="318.85,-132.91 322.69,-123.04 313.53,-128.36 318.85,-132.91"/>
<text text-anchor="middle" x="311" y="-188.3" font-family="Times,serif" font-size="14.00">&#45;14.17</text>
</g>
<!-- WAGE -->
<g id="node8" class="node">
<title>WAGE</title>
<path fill="none" stroke="black" d="M414,-36C414,-36 376,-36 376,-36 370,-36 364,-30 364,-24 364,-24 364,-12 364,-12 364,-6 370,0 376,0 376,0 414,0 414,0 420,0 426,-6 426,-12 426,-12 426,-24 426,-24 426,-30 420,-36 414,-36"/>
<text text-anchor="middle" x="395" y="-14.3" font-family="Times,serif" font-size="14.00">WAGE</text>
</g>
<!-- FATHERED&#45;&gt;WAGE -->
<g id="edge10" class="edge">
<title>FATHERED&#45;&gt;WAGE</title>
<path fill="none" stroke="#1a9850" stroke-width="2" d="M170.23,-260.69C168.91,-255.09 167.66,-248.82 167,-243 166.25,-236.38 166.69,-234.66 167,-228 168.81,-188.8 163.96,-175.85 182,-141 195.98,-114 202.55,-108.55 224,-87 240.74,-70.17 244.79,-64.65 266,-54 293.73,-40.07 327.7,-31.14 353.82,-25.79"/>
<polygon fill="#1a9850" stroke="#1a9850" stroke-width="2" points="354.62,-29.2 363.77,-23.85 353.28,-22.33 354.62,-29.2"/>
<text text-anchor="middle" x="198" y="-144.8" font-family="Times,serif" font-size="14.00">5.67</text>
</g>
<!-- EDUC&#45;&gt;POTEXPER -->
<g id="edge16" class="edge">
<title>EDUC&#45;&gt;POTEXPER</title>
<path fill="none" stroke="#1a9850" stroke-width="2" d="M220.27,-173.68C226.15,-162.99 234.95,-149.7 246,-141 256.06,-133.09 268.09,-126.82 280.11,-121.91"/>
<polygon fill="#1a9850" stroke="#1a9850" stroke-width="2" points="281.61,-125.09 289.72,-118.26 279.13,-118.54 281.61,-125.09"/>
<text text-anchor="middle" x="269" y="-144.8" font-family="Times,serif" font-size="14.00">&#45;17.11</text>
</g>
<!-- EDUC&#45;&gt;WAGE -->
<g id="edge17" class="edge">
<title>EDUC&#45;&gt;WAGE</title>
<path fill="none" stroke="#1a9850" stroke-width="2" d="M213.94,-173.76C217.32,-151.2 226.27,-111.66 249,-87 277.08,-56.54 321.57,-38.56 354.06,-28.82"/>
<polygon fill="#1a9850" stroke="#1a9850" stroke-width="2" points="355.08,-32.17 363.73,-26.05 353.15,-25.44 355.08,-32.17"/>
<text text-anchor="middle" x="265" y="-101.3" font-family="Times,serif" font-size="14.00">5.88</text>
</g>
<!-- MOTHERED -->
<g id="node3" class="node">
<title>MOTHERED</title>
<path fill="none" stroke="black" d="M586,-297C586,-297 504,-297 504,-297 498,-297 492,-291 492,-285 492,-285 492,-273 492,-273 492,-267 498,-261 504,-261 504,-261 586,-261 586,-261 592,-261 598,-267 598,-273 598,-273 598,-285 598,-285 598,-291 592,-297 586,-297"/>
<text text-anchor="middle" x="545" y="-275.3" font-family="Times,serif" font-size="14.00">MOTHERED</text>
</g>
<!-- MOTHERED&#45;&gt;EDUC -->
<g id="edge2" class="edge">
<title>MOTHERED&#45;&gt;EDUC</title>
<path fill="none" stroke="#1a9850" stroke-width="2" d="M491.89,-262.27C455.08,-251.7 404.82,-237.95 360,-228 314.63,-217.93 301.82,-222.27 257,-210 255.54,-209.6 254.06,-209.17 252.57,-208.72"/>
<polygon fill="#1a9850" stroke="#1a9850" stroke-width="2" points="253.33,-205.28 242.73,-205.48 251.14,-211.93 253.33,-205.28"/>
<text text-anchor="middle" x="441.5" y="-231.8" font-family="Times,serif" font-size="14.00">12.32</text>
</g>
<!-- MOTHERED&#45;&gt;POTEXPER -->
<g id="edge6" class="edge">
<title>MOTHERED&#45;&gt;POTEXPER</title>
<path fill="none" stroke="#1a9850" stroke-width="2" d="M549.19,-260.96C555.19,-232.01 562.32,-173.24 531,-141 511.4,-120.83 437.92,-128.01 398.1,-123.26"/>
<polygon fill="#1a9850" stroke="#1a9850" stroke-width="2" points="398.5,-119.77 388.07,-121.62 397.37,-126.68 398.5,-119.77"/>
<text text-anchor="middle" x="572.5" y="-188.3" font-family="Times,serif" font-size="14.00">&#45;10.6</text>
</g>
<!-- MOTHERED&#45;&gt;WAGE -->
<g id="edge11" class="edge">
<title>MOTHERED&#45;&gt;WAGE</title>
<path fill="none" stroke="#1a9850" stroke-width="2" d="M563.41,-260.74C583.04,-240.13 609.46,-204.61 595,-174 562.8,-105.86 483.94,-59.44 435.41,-36.22"/>
<polygon fill="#1a9850" stroke="#1a9850" stroke-width="2" points="436.68,-32.95 426.14,-31.89 433.72,-39.29 436.68,-32.95"/>
<text text-anchor="middle" x="601" y="-144.8" font-family="Times,serif" font-size="14.00">5.38</text>
</g>
<!-- SIBLINGS -->
<g id="node4" class="node">
<title>SIBLINGS</title>
<path fill="none" stroke="black" d="M436.5,-297C436.5,-297 371.5,-297 371.5,-297 365.5,-297 359.5,-291 359.5,-285 359.5,-285 359.5,-273 359.5,-273 359.5,-267 365.5,-261 371.5,-261 371.5,-261 436.5,-261 436.5,-261 442.5,-261 448.5,-267 448.5,-273 448.5,-273 448.5,-285 448.5,-285 448.5,-291 442.5,-297 436.5,-297"/>
<text text-anchor="middle" x="404" y="-275.3" font-family="Times,serif" font-size="14.00">SIBLINGS</text>
</g>
<!-- SIBLINGS&#45;&gt;EDUC -->
<g id="edge3" class="edge">
<title>SIBLINGS&#45;&gt;EDUC</title>
<path fill="none" stroke="#1a9850" stroke-width="2" d="M365.15,-260.8C332.23,-246.23 285.23,-225.42 252,-210.71"/>
<polygon fill="#1a9850" stroke="#1a9850" stroke-width="2" points="253.15,-207.39 242.59,-206.54 250.32,-213.79 253.15,-207.39"/>
<text text-anchor="middle" x="337.5" y="-231.8" font-family="Times,serif" font-size="14.00">&#45;7.67</text>
</g>
<!-- SIBLINGS&#45;&gt;POTEXPER -->
<g id="edge7" class="edge">
<title>SIBLINGS&#45;&gt;POTEXPER</title>
<path fill="none" stroke="#1a9850" stroke-width="2" d="M407.43,-260.65C410.88,-239.67 414.58,-203.48 406,-174 400.81,-156.18 387.33,-140.93 373.82,-129.42"/>
<polygon fill="#1a9850" stroke="#1a9850" stroke-width="2" points="375.91,-126.61 365.92,-123.08 371.53,-132.07 375.91,-126.61"/>
<text text-anchor="middle" x="427" y="-188.3" font-family="Times,serif" font-size="14.00">7.24</text>
</g>
<!-- SIBLINGS&#45;&gt;WAGE -->
<g id="edge12" class="edge">
<title>SIBLINGS&#45;&gt;WAGE</title>
<path fill="none" stroke="#1a9850" stroke-width="2" d="M448.34,-260.84C455.4,-256.13 461.76,-250.26 466,-243 469.36,-237.24 466.35,-234.66 466,-228 462.66,-165.07 475.3,-145.15 451,-87 444.23,-70.79 432.26,-55.44 421.12,-43.44"/>
<polygon fill="#1a9850" stroke="#1a9850" stroke-width="2" points="423.46,-40.82 413.99,-36.06 418.42,-45.69 423.46,-40.82"/>
<text text-anchor="middle" x="484.5" y="-144.8" font-family="Times,serif" font-size="14.00">&#45;4.82</text>
</g>
<!-- BRKNHOME -->
<g id="node5" class="node">
<title>BRKNHOME</title>
<path fill="none" stroke="black" d="M96,-297C96,-297 12,-297 12,-297 6,-297 0,-291 0,-285 0,-285 0,-273 0,-273 0,-267 6,-261 12,-261 12,-261 96,-261 96,-261 102,-261 108,-267 108,-273 108,-273 108,-285 108,-285 108,-291 102,-297 96,-297"/>
<text text-anchor="middle" x="54" y="-275.3" font-family="Times,serif" font-size="14.00">BRKNHOME</text>
</g>
<!-- BRKNHOME&#45;&gt;EDUC -->
<g id="edge4" class="edge">
<title>BRKNHOME&#45;&gt;EDUC</title>
<path fill="none" stroke="#1a9850" stroke-width="2" d="M77.63,-260.88C92.3,-250.65 111.77,-237.79 130,-228 143.28,-220.87 158.32,-214.1 171.86,-208.45"/>
<polygon fill="#1a9850" stroke="#1a9850" stroke-width="2" points="173.48,-211.57 181.41,-204.54 170.83,-205.09 173.48,-211.57"/>
<text text-anchor="middle" x="148.5" y="-231.8" font-family="Times,serif" font-size="14.00">&#45;9.86</text>
</g>
<!-- BRKNHOME&#45;&gt;POTEXPER -->
<g id="edge8" class="edge">
<title>BRKNHOME&#45;&gt;POTEXPER</title>
<path fill="none" stroke="#1a9850" stroke-width="2" d="M64.1,-260.87C78.34,-238.08 106.38,-197.87 140,-174 174.4,-149.58 189.11,-154.73 229,-141 234.41,-139.14 256.91,-131.96 280.15,-124.59"/>
<polygon fill="#1a9850" stroke="#1a9850" stroke-width="2" points="281.29,-127.91 289.76,-121.55 279.17,-121.23 281.29,-127.91"/>
<text text-anchor="middle" x="156" y="-188.3" font-family="Times,serif" font-size="14.00">8.89</text>
</g>
<!-- BRKNHOME&#45;&gt;WAGE -->
<g id="edge13" class="edge">
<title>BRKNHOME&#45;&gt;WAGE</title>
<path fill="none" stroke="#1a9850" stroke-width="2" d="M58.84,-260.99C65.53,-239.39 79.07,-201.59 99,-174 146.99,-107.57 163.58,-86.07 239,-54 276.22,-38.17 321.62,-29.02 353.82,-24.08"/>
<polygon fill="#1a9850" stroke="#1a9850" stroke-width="2" points="354.4,-27.53 363.79,-22.62 353.38,-20.6 354.4,-27.53"/>
<text text-anchor="middle" x="130" y="-144.8" font-family="Times,serif" font-size="14.00">&#45;5</text>
</g>
<!-- POTEXPER&#45;&gt;WAGE -->
<g id="edge18" class="edge">
<title>POTEXPER&#45;&gt;WAGE</title>
<path fill="none" stroke="#1a9850" stroke-width="2" d="M348.86,-86.62C354.53,-76.88 361.91,-64.6 369,-54 371.1,-50.86 373.37,-47.61 375.67,-44.42"/>
<polygon fill="#1a9850" stroke="#1a9850" stroke-width="2" points="378.6,-46.34 381.7,-36.2 372.96,-42.2 378.6,-46.34"/>
<text text-anchor="middle" x="389.5" y="-57.8" font-family="Times,serif" font-size="14.00">39.06</text>
</g>
<!-- AGE -->
<g id="node7" class="node">
<title>AGE</title>
<path fill="none" stroke="black" d="M385,-210C385,-210 355,-210 355,-210 349,-210 343,-204 343,-198 343,-198 343,-186 343,-186 343,-180 349,-174 355,-174 355,-174 385,-174 385,-174 391,-174 397,-180 397,-186 397,-186 397,-198 397,-198 397,-204 391,-210 385,-210"/>
<text text-anchor="middle" x="370" y="-188.3" font-family="Times,serif" font-size="14.00">AGE</text>
</g>
<!-- AGE&#45;&gt;POTEXPER -->
<g id="edge9" class="edge">
<title>AGE&#45;&gt;POTEXPER</title>
<path fill="none" stroke="#1a9850" stroke-width="2" d="M354.48,-173.95C350.4,-168.57 346.46,-162.35 344,-156 341.26,-148.92 339.81,-140.88 339.08,-133.35"/>
<polygon fill="#1a9850" stroke="#1a9850" stroke-width="2" points="342.56,-132.97 338.48,-123.19 335.57,-133.38 342.56,-132.97"/>
<text text-anchor="middle" x="364.5" y="-144.8" font-family="Times,serif" font-size="14.00">85.59</text>
</g>
<!-- AGE&#45;&gt;WAGE -->
<g id="edge15" class="edge">
<title>AGE&#45;&gt;WAGE</title>
<path fill="none" stroke="#1a9850" stroke-width="2" d="M380.39,-173.98C383.48,-168.39 386.66,-162.06 389,-156 391.81,-148.7 408.51,-81.6 410,-69 410.79,-62.38 411.34,-60.53 410,-54 409.45,-51.3 408.67,-48.55 407.77,-45.84"/>
<polygon fill="#1a9850" stroke="#1a9850" stroke-width="2" points="410.97,-44.4 404.08,-36.35 404.44,-46.94 410.97,-44.4"/>
<text text-anchor="middle" x="426.5" y="-101.3" font-family="Times,serif" font-size="14.00">33.32</text>
</g>
<!-- ABILITY -->
<g id="node9" class="node">
<title>ABILITY</title>
<path fill="none" stroke="black" d="M700,-123C700,-123 650,-123 650,-123 644,-123 638,-117 638,-111 638,-111 638,-99 638,-99 638,-93 644,-87 650,-87 650,-87 700,-87 700,-87 706,-87 712,-93 712,-99 712,-99 712,-111 712,-111 712,-117 706,-123 700,-123"/>
<text text-anchor="middle" x="675" y="-101.3" font-family="Times,serif" font-size="14.00">ABILITY</text>
</g>
<!-- ABILITY&#45;&gt;WAGE -->
<g id="edge14" class="edge">
<title>ABILITY&#45;&gt;WAGE</title>
<path fill="none" stroke="#1a9850" stroke-width="2" d="M662.24,-86.8C652.93,-75.58 639.31,-61.65 624,-54 591.83,-37.92 492.82,-27.22 436.08,-22.24"/>
<polygon fill="#1a9850" stroke="#1a9850" stroke-width="2" points="436.26,-18.74 426,-21.37 435.66,-25.71 436.26,-18.74"/>
<text text-anchor="middle" x="664.5" y="-57.8" font-family="Times,serif" font-size="14.00">14.24</text>
</g>
</g>
</svg>
