<?xml version="1.0" encoding="UTF-8" standalone="no"?>
<!DOCTYPE svg PUBLIC "-//W3C//DTD SVG 1.1//EN"
 "http://www.w3.org/Graphics/SVG/1.1/DTD/svg11.dtd">
<!-- Generated by graphviz version 2.43.0 (0)
 -->
<!-- Title: G Pages: 1 -->
<svg width="699pt" height="305pt"
 viewBox="0.00 0.00 699.00 305.00" xmlns="http://www.w3.org/2000/svg" xmlns:xlink="http://www.w3.org/1999/xlink">
<g id="graph0" class="graph" transform="scale(1 1) rotate(0) translate(4 301)">
<title>G</title>
<polygon fill="white" stroke="transparent" points="-4,4 -4,-301 695,-301 695,4 -4,4"/>
<!-- FATHERED -->
<g id="node1" class="node">
<title>FATHERED</title>
<path fill="none" stroke="black" d="M212,-297C212,-297 138,-297 138,-297 132,-297 126,-291 126,-285 126,-285 126,-273 126,-273 126,-267 132,-261 138,-261 138,-261 212,-261 212,-261 218,-261 224,-267 224,-273 224,-273 224,-285 224,-285 224,-291 218,-297 212,-297"/>
<text text-anchor="middle" x="175" y="-275.3" font-family="Times,serif" font-size="14.00">FATHERED</text>
</g>
<!-- EDUC -->
<g id="node2" class="node">
<title>EDUC</title>
<path fill="none" stroke="black" d="M219.5,-210C219.5,-210 182.5,-210 182.5,-210 176.5,-210 170.5,-204 170.5,-198 170.5,-198 170.5,-186 170.5,-186 170.5,-180 176.5,-174 182.5,-174 182.5,-174 219.5,-174 219.5,-174 225.5,-174 231.5,-180 231.5,-186 231.5,-186 231.5,-198 231.5,-198 231.5,-204 225.5,-210 219.5,-210"/>
<text text-anchor="middle" x="201" y="-188.3" font-family="Times,serif" font-size="14.00">EDUC</text>
</g>
<!-- FATHERED&#45;&gt;EDUC -->
<g id="edge1" class="edge">
<title>FATHERED&#45;&gt;EDUC</title>
<path fill="none" stroke="#d73027" stroke-width="2" d="M167.83,-260.82C164.77,-250.93 162.77,-238.43 167,-228 168.42,-224.5 170.38,-221.15 172.65,-218.02"/>
<polygon fill="#d73027" stroke="#d73027" stroke-width="2" points="175.43,-220.14 179.2,-210.24 170.08,-215.63 175.43,-220.14"/>
<text text-anchor="middle" x="183" y="-231.8" font-family="Times,serif" font-size="14.00">3.86</text>
</g>
<!-- POTEXPER -->
<g id="node6" class="node">
<title>POTEXPER</title>
<path fill="none" stroke="black" d="M374,-123C374,-123 300,-123 300,-123 294,-123 288,-117 288,-111 288,-111 288,-99 288,-99 288,-93 294,-87 300,-87 300,-87 374,-87 374,-87 380,-87 386,-93 386,-99 386,-99 386,-111 386,-111 386,-117 380,-123 374,-123"/>
<text text-anchor="middle" x="337" y="-101.3" font-family="Times,serif" font-size="14.00">POTEXPER</text>
</g>
<!-- FATHERED&#45;&gt;POTEXPER -->
<g id="edge5" class="edge">
<title>FATHERED&#45;&gt;POTEXPER</title>
<path fill="none" stroke="#d73027" stroke-width="2" d="M224.23,-263.71C235.19,-258.63 245.93,-251.88 254,-243 275.74,-219.08 260.87,-202.01 277,-174 286.17,-158.07 299.46,-142.52 311.2,-130.33"/>
<polygon fill="#d73027" stroke="#d73027" stroke-width="2" points="313.71,-132.76 318.26,-123.19 308.74,-127.84 313.71,-132.76"/>
<text text-anchor="middle" x="295.5" y="-188.3" font-family="Times,serif" font-size="14.00">&#45;2.62</text>
</g>
<!-- WAGE -->
<g id="node8" class="node">
<title>WAGE</title>
<path fill="none" stroke="black" d="M417,-36C417,-36 379,-36 379,-36 373,-36 367,-30 367,-24 367,-24 367,-12 367,-12 367,-6 373,0 379,0 379,0 417,0 417,0 423,0 429,-6 429,-12 429,-12 429,-24 429,-24 429,-30 423,-36 417,-36"/>
<text text-anchor="middle" x="398" y="-14.3" font-family="Times,serif" font-size="14.00">WAGE</text>
</g>
<!-- FATHERED&#45;&gt;WAGE -->
<g id="edge10" class="edge">
<title>FATHERED&#45;&gt;WAGE</title>
<path fill="none" stroke="#d73027" stroke-width="2" d="M166.67,-260.95C164.36,-255.36 162.16,-249.04 161,-243 155.2,-212.89 155.28,-204.13 161,-174 169.67,-128.34 184.81,-118.48 219,-87 237.78,-69.71 242.86,-64.77 266,-54 294.94,-40.53 329.94,-31.55 356.64,-26.06"/>
<polygon fill="#d73027" stroke="#d73027" stroke-width="2" points="357.66,-29.42 366.79,-24.05 356.3,-22.56 357.66,-29.42"/>
<text text-anchor="middle" x="187" y="-144.8" font-family="Times,serif" font-size="14.00">1.64</text>
</g>
<!-- EDUC&#45;&gt;POTEXPER -->
<g id="edge16" class="edge">
<title>EDUC&#45;&gt;POTEXPER</title>
<path fill="none" stroke="#fee08b" stroke-width="2" d="M209.19,-173.57C215.03,-162.84 223.82,-149.54 235,-141 247.63,-131.35 263.11,-124.26 278.15,-119.08"/>
<polygon fill="#fee08b" stroke="#fee08b" stroke-width="2" points="279.48,-122.33 287.93,-115.94 277.34,-115.66 279.48,-122.33"/>
<text text-anchor="middle" x="251" y="-144.8" font-family="Times,serif" font-size="14.00">0.32</text>
</g>
<!-- EDUC&#45;&gt;WAGE -->
<g id="edge17" class="edge">
<title>EDUC&#45;&gt;WAGE</title>
<path fill="none" stroke="#fee08b" stroke-width="2" d="M204.22,-173.82C209.38,-150.97 221.59,-110.7 247,-87 278.25,-57.86 324.11,-39.63 357.08,-29.47"/>
<polygon fill="#fee08b" stroke="#fee08b" stroke-width="2" points="358.28,-32.77 366.87,-26.57 356.29,-26.06 358.28,-32.77"/>
<text text-anchor="middle" x="263" y="-101.3" font-family="Times,serif" font-size="14.00">0.66</text>
</g>
<!-- MOTHERED -->
<g id="node3" class="node">
<title>MOTHERED</title>
<path fill="none" stroke="black" d="M570,-297C570,-297 488,-297 488,-297 482,-297 476,-291 476,-285 476,-285 476,-273 476,-273 476,-267 482,-261 488,-261 488,-261 570,-261 570,-261 576,-261 582,-267 582,-273 582,-273 582,-285 582,-285 582,-291 576,-297 570,-297"/>
<text text-anchor="middle" x="529" y="-275.3" font-family="Times,serif" font-size="14.00">MOTHERED</text>
</g>
<!-- MOTHERED&#45;&gt;EDUC -->
<g id="edge2" class="edge">
<title>MOTHERED&#45;&gt;EDUC</title>
<path fill="none" stroke="#cdc9c9" stroke-width="2" d="M475.79,-261.74C440.14,-251.22 392.03,-237.71 349,-228 303.67,-217.77 290.82,-222.27 246,-210 244.54,-209.6 243.06,-209.17 241.57,-208.72"/>
<polygon fill="#cdc9c9" stroke="#cdc9c9" stroke-width="2" points="242.33,-205.28 231.73,-205.48 240.14,-211.93 242.33,-205.28"/>
<text text-anchor="middle" x="424" y="-231.8" font-family="Times,serif" font-size="14.00">0.08</text>
</g>
<!-- MOTHERED&#45;&gt;POTEXPER -->
<g id="edge6" class="edge">
<title>MOTHERED&#45;&gt;POTEXPER</title>
<path fill="none" stroke="#cdc9c9" stroke-width="2" d="M533.21,-260.57C539.07,-231.57 545.8,-173.41 515,-141 496.88,-121.93 423.72,-128.54 398,-123 397.4,-122.87 396.79,-122.74 396.18,-122.6"/>
<polygon fill="#cdc9c9" stroke="#cdc9c9" stroke-width="2" points="396.68,-119.13 386.15,-120.24 395.08,-125.94 396.68,-119.13"/>
<text text-anchor="middle" x="554" y="-188.3" font-family="Times,serif" font-size="14.00">0.13</text>
</g>
<!-- MOTHERED&#45;&gt;WAGE -->
<g id="edge11" class="edge">
<title>MOTHERED&#45;&gt;WAGE</title>
<path fill="none" stroke="#fee08b" stroke-width="2" d="M545.64,-260.7C563.37,-240.06 587.22,-204.51 574,-174 547.1,-111.91 480.96,-65.12 437.86,-39.92"/>
<polygon fill="#fee08b" stroke="#fee08b" stroke-width="2" points="439.45,-36.8 429.04,-34.88 435.98,-42.88 439.45,-36.8"/>
<text text-anchor="middle" x="580" y="-144.8" font-family="Times,serif" font-size="14.00">0.64</text>
</g>
<!-- SIBLINGS -->
<g id="node4" class="node">
<title>SIBLINGS</title>
<path fill="none" stroke="black" d="M434.5,-297C434.5,-297 369.5,-297 369.5,-297 363.5,-297 357.5,-291 357.5,-285 357.5,-285 357.5,-273 357.5,-273 357.5,-267 363.5,-261 369.5,-261 369.5,-261 434.5,-261 434.5,-261 440.5,-261 446.5,-267 446.5,-273 446.5,-273 446.5,-285 446.5,-285 446.5,-291 440.5,-297 434.5,-297"/>
<text text-anchor="middle" x="402" y="-275.3" font-family="Times,serif" font-size="14.00">SIBLINGS</text>
</g>
<!-- SIBLINGS&#45;&gt;EDUC -->
<g id="edge3" class="edge">
<title>SIBLINGS&#45;&gt;EDUC</title>
<path fill="none" stroke="#d73027" stroke-width="2" d="M361.32,-260.8C326.3,-245.99 276.04,-224.73 241.17,-209.99"/>
<polygon fill="#d73027" stroke="#d73027" stroke-width="2" points="242.34,-206.68 231.77,-206.01 239.61,-213.13 242.34,-206.68"/>
<text text-anchor="middle" x="329" y="-231.8" font-family="Times,serif" font-size="14.00">3.77</text>
</g>
<!-- SIBLINGS&#45;&gt;POTEXPER -->
<g id="edge7" class="edge">
<title>SIBLINGS&#45;&gt;POTEXPER</title>
<path fill="none" stroke="#d73027" stroke-width="2" d="M403.63,-260.64C405.36,-233.23 405.3,-179.14 383,-141 380.66,-136.99 377.66,-133.29 374.32,-129.92"/>
<polygon fill="#d73027" stroke="#d73027" stroke-width="2" points="376.39,-127.07 366.59,-123.06 371.74,-132.31 376.39,-127.07"/>
<text text-anchor="middle" x="420.5" y="-188.3" font-family="Times,serif" font-size="14.00">&#45;3.76</text>
</g>
<!-- SIBLINGS&#45;&gt;WAGE -->
<g id="edge12" class="edge">
<title>SIBLINGS&#45;&gt;WAGE</title>
<path fill="none" stroke="#d73027" stroke-width="2" d="M429.65,-260.85C435.43,-255.85 440.75,-249.86 444,-243 473.67,-180.33 465.65,-153.19 445,-87 440.1,-71.31 430.18,-56.04 420.7,-43.96"/>
<polygon fill="#d73027" stroke="#d73027" stroke-width="2" points="423.33,-41.65 414.28,-36.14 417.92,-46.09 423.33,-41.65"/>
<text text-anchor="middle" x="478" y="-144.8" font-family="Times,serif" font-size="14.00">1.56</text>
</g>
<!-- BRKNHOME -->
<g id="node5" class="node">
<title>BRKNHOME</title>
<path fill="none" stroke="black" d="M96,-297C96,-297 12,-297 12,-297 6,-297 0,-291 0,-285 0,-285 0,-273 0,-273 0,-267 6,-261 12,-261 12,-261 96,-261 96,-261 102,-261 108,-267 108,-273 108,-273 108,-285 108,-285 108,-291 102,-297 96,-297"/>
<text text-anchor="middle" x="54" y="-275.3" font-family="Times,serif" font-size="14.00">BRKNHOME</text>
</g>
<!-- BRKNHOME&#45;&gt;EDUC -->
<g id="edge4" class="edge">
<title>BRKNHOME&#45;&gt;EDUC</title>
<path fill="none" stroke="#fee08b" stroke-width="2" d="M82.26,-260.89C98.5,-251.14 119.32,-238.75 138,-228 145.56,-223.65 153.68,-219.07 161.48,-214.72"/>
<polygon fill="#fee08b" stroke="#fee08b" stroke-width="2" points="163.42,-217.65 170.46,-209.73 160.01,-211.53 163.42,-217.65"/>
<text text-anchor="middle" x="149.5" y="-231.8" font-family="Times,serif" font-size="14.00">0.4</text>
</g>
<!-- BRKNHOME&#45;&gt;POTEXPER -->
<g id="edge8" class="edge">
<title>BRKNHOME&#45;&gt;POTEXPER</title>
<path fill="none" stroke="#fee08b" stroke-width="2" d="M61.36,-260.74C71.97,-237.8 93.69,-197.43 124,-174 141.52,-160.46 196.88,-147.62 218,-141 243.59,-132.98 252.41,-131.71 278.05,-124.4"/>
<polygon fill="#fee08b" stroke="#fee08b" stroke-width="2" points="279.25,-127.7 287.87,-121.55 277.29,-120.98 279.25,-127.7"/>
<text text-anchor="middle" x="142.5" y="-188.3" font-family="Times,serif" font-size="14.00">&#45;0.53</text>
</g>
<!-- BRKNHOME&#45;&gt;WAGE -->
<g id="edge13" class="edge">
<title>BRKNHOME&#45;&gt;WAGE</title>
<path fill="none" stroke="#fee08b" stroke-width="2" d="M56.46,-260.91C60.21,-239.22 68.93,-201.34 87,-174 118.03,-127.05 133.9,-120.66 179,-87 202.46,-69.49 208.7,-64.55 236,-54 275.48,-38.74 323.07,-29.46 356.42,-24.33"/>
<polygon fill="#fee08b" stroke="#fee08b" stroke-width="2" points="357.34,-27.73 366.72,-22.81 356.31,-20.81 357.34,-27.73"/>
<text text-anchor="middle" x="130.5" y="-144.8" font-family="Times,serif" font-size="14.00">&#45;0.38</text>
</g>
<!-- POTEXPER&#45;&gt;WAGE -->
<g id="edge18" class="edge">
<title>POTEXPER&#45;&gt;WAGE</title>
<path fill="none" stroke="#d73027" stroke-width="2" d="M349.34,-86.8C358.03,-74.7 369.79,-58.3 379.58,-44.67"/>
<polygon fill="#d73027" stroke="#d73027" stroke-width="2" points="382.69,-46.34 385.67,-36.18 377,-42.26 382.69,-46.34"/>
<text text-anchor="middle" x="387" y="-57.8" font-family="Times,serif" font-size="14.00">6.15</text>
</g>
<!-- AGE -->
<g id="node7" class="node">
<title>AGE</title>
<path fill="none" stroke="black" d="M365,-210C365,-210 335,-210 335,-210 329,-210 323,-204 323,-198 323,-198 323,-186 323,-186 323,-180 329,-174 335,-174 335,-174 365,-174 365,-174 371,-174 377,-180 377,-186 377,-186 377,-198 377,-198 377,-204 371,-210 365,-210"/>
<text text-anchor="middle" x="350" y="-188.3" font-family="Times,serif" font-size="14.00">AGE</text>
</g>
<!-- AGE&#45;&gt;POTEXPER -->
<g id="edge9" class="edge">
<title>AGE&#45;&gt;POTEXPER</title>
<path fill="none" stroke="#d73027" stroke-width="2" d="M347.37,-173.8C345.59,-162.16 343.2,-146.55 341.17,-133.24"/>
<polygon fill="#d73027" stroke="#d73027" stroke-width="2" points="344.6,-132.53 339.63,-123.18 337.68,-133.59 344.6,-132.53"/>
<text text-anchor="middle" x="362.5" y="-144.8" font-family="Times,serif" font-size="14.00">&#45;9.96</text>
</g>
<!-- AGE&#45;&gt;WAGE -->
<g id="edge15" class="edge">
<title>AGE&#45;&gt;WAGE</title>
<path fill="none" stroke="#d73027" stroke-width="2" d="M370.41,-173.94C375.76,-168.65 381.11,-162.49 385,-156 408.84,-116.22 412.82,-100.01 407,-54 406.68,-51.44 406.22,-48.8 405.69,-46.17"/>
<polygon fill="#d73027" stroke="#d73027" stroke-width="2" points="409.06,-45.21 403.36,-36.28 402.25,-46.82 409.06,-45.21"/>
<text text-anchor="middle" x="425" y="-101.3" font-family="Times,serif" font-size="14.00">1.98</text>
</g>
<!-- ABILITY -->
<g id="node9" class="node">
<title>ABILITY</title>
<path fill="none" stroke="black" d="M679,-123C679,-123 629,-123 629,-123 623,-123 617,-117 617,-111 617,-111 617,-99 617,-99 617,-93 623,-87 629,-87 629,-87 679,-87 679,-87 685,-87 691,-93 691,-99 691,-99 691,-111 691,-111 691,-117 685,-123 679,-123"/>
<text text-anchor="middle" x="654" y="-101.3" font-family="Times,serif" font-size="14.00">ABILITY</text>
</g>
<!-- ABILITY&#45;&gt;WAGE -->
<g id="edge14" class="edge">
<title>ABILITY&#45;&gt;WAGE</title>
<path fill="none" stroke="#d73027" stroke-width="2" d="M641.19,-86.89C631.87,-75.71 618.24,-61.78 603,-54 550.87,-27.37 482.54,-20.43 439.45,-18.92"/>
<polygon fill="#d73027" stroke="#d73027" stroke-width="2" points="439.41,-15.42 429.32,-18.65 439.23,-22.42 439.41,-15.42"/>
<text text-anchor="middle" x="639" y="-57.8" font-family="Times,serif" font-size="14.00">1.98</text>
</g>
</g>
</svg>
