<?xml version="1.0" encoding="UTF-8" standalone="no"?>
<!DOCTYPE svg PUBLIC "-//W3C//DTD SVG 1.1//EN"
 "http://www.w3.org/Graphics/SVG/1.1/DTD/svg11.dtd">
<!-- Generated by graphviz version 2.43.0 (0)
 -->
<!-- Title: G Pages: 1 -->
<svg width="708pt" height="305pt"
 viewBox="0.00 0.00 708.00 305.00" xmlns="http://www.w3.org/2000/svg" xmlns:xlink="http://www.w3.org/1999/xlink">
<g id="graph0" class="graph" transform="scale(1 1) rotate(0) translate(4 301)">
<title>G</title>
<polygon fill="white" stroke="transparent" points="-4,4 -4,-301 704,-301 704,4 -4,4"/>
<!-- FATHERED -->
<g id="node1" class="node">
<title>FATHERED</title>
<path fill="none" stroke="black" d="M212,-297C212,-297 138,-297 138,-297 132,-297 126,-291 126,-285 126,-285 126,-273 126,-273 126,-267 132,-261 138,-261 138,-261 212,-261 212,-261 218,-261 224,-267 224,-273 224,-273 224,-285 224,-285 224,-291 218,-297 212,-297"/>
<text text-anchor="middle" x="175" y="-275.3" font-family="Times,serif" font-size="14.00">FATHERED</text>
</g>
<!-- EDUC -->
<g id="node2" class="node">
<title>EDUC</title>
<path fill="none" stroke="black" d="M231.5,-210C231.5,-210 194.5,-210 194.5,-210 188.5,-210 182.5,-204 182.5,-198 182.5,-198 182.5,-186 182.5,-186 182.5,-180 188.5,-174 194.5,-174 194.5,-174 231.5,-174 231.5,-174 237.5,-174 243.5,-180 243.5,-186 243.5,-186 243.5,-198 243.5,-198 243.5,-204 237.5,-210 231.5,-210"/>
<text text-anchor="middle" x="213" y="-188.3" font-family="Times,serif" font-size="14.00">EDUC</text>
</g>
<!-- FATHERED&#45;&gt;EDUC -->
<g id="edge1" class="edge">
<title>FATHERED&#45;&gt;EDUC</title>
<path fill="none" stroke="black" d="M171.65,-260.63C170.54,-250.68 170.54,-238.18 175,-228 176.62,-224.32 178.83,-220.85 181.39,-217.64"/>
<polygon fill="black" stroke="black" points="184.06,-219.9 188.29,-210.19 178.92,-215.14 184.06,-219.9"/>
<text text-anchor="middle" x="191" y="-231.8" font-family="Times,serif" font-size="14.00">0.12</text>
</g>
<!-- POTEXPER -->
<g id="node6" class="node">
<title>POTEXPER</title>
<path fill="none" stroke="black" d="M382,-123C382,-123 308,-123 308,-123 302,-123 296,-117 296,-111 296,-111 296,-99 296,-99 296,-93 302,-87 308,-87 308,-87 382,-87 382,-87 388,-87 394,-93 394,-99 394,-99 394,-111 394,-111 394,-117 388,-123 382,-123"/>
<text text-anchor="middle" x="345" y="-101.3" font-family="Times,serif" font-size="14.00">POTEXPER</text>
</g>
<!-- FATHERED&#45;&gt;POTEXPER -->
<g id="edge5" class="edge">
<title>FATHERED&#45;&gt;POTEXPER</title>
<path fill="none" stroke="black" d="M224.2,-268.2C239.64,-262.98 255.6,-255.04 267,-243 289.13,-219.62 273.6,-202.27 289,-174 297.52,-158.36 309.88,-142.87 320.82,-130.64"/>
<polygon fill="black" stroke="black" points="323.56,-132.83 327.76,-123.1 318.41,-128.09 323.56,-132.83"/>
<text text-anchor="middle" x="307.5" y="-188.3" font-family="Times,serif" font-size="14.00">&#45;0.12</text>
</g>
<!-- WAGE -->
<g id="node8" class="node">
<title>WAGE</title>
<path fill="none" stroke="black" d="M425,-36C425,-36 387,-36 387,-36 381,-36 375,-30 375,-24 375,-24 375,-12 375,-12 375,-6 381,0 387,0 387,0 425,0 425,0 431,0 437,-6 437,-12 437,-12 437,-24 437,-24 437,-30 431,-36 425,-36"/>
<text text-anchor="middle" x="406" y="-14.3" font-family="Times,serif" font-size="14.00">WAGE</text>
</g>
<!-- FATHERED&#45;&gt;WAGE -->
<g id="edge10" class="edge">
<title>FATHERED&#45;&gt;WAGE</title>
<path fill="none" stroke="black" d="M170.83,-260.66C169.67,-255.06 168.57,-248.8 168,-243 167.34,-236.37 167.69,-234.66 168,-228 169.81,-188.73 165.06,-175.45 184,-141 198.92,-113.87 205.45,-108.21 228,-87 246.33,-69.76 251.24,-64.73 274,-54 302.87,-40.38 337.88,-31.41 364.59,-25.96"/>
<polygon fill="black" stroke="black" points="365.61,-29.33 374.75,-23.97 364.27,-22.46 365.61,-29.33"/>
<text text-anchor="middle" x="200" y="-144.8" font-family="Times,serif" font-size="14.00">0.07</text>
</g>
<!-- EDUC&#45;&gt;POTEXPER -->
<g id="edge16" class="edge">
<title>EDUC&#45;&gt;POTEXPER</title>
<path fill="none" stroke="black" d="M221.22,-173.62C227.08,-162.9 235.87,-149.61 247,-141 258.55,-132.06 272.58,-125.28 286.37,-120.18"/>
<polygon fill="black" stroke="black" points="287.53,-123.49 295.85,-116.92 285.25,-116.87 287.53,-123.49"/>
<text text-anchor="middle" x="265.5" y="-144.8" font-family="Times,serif" font-size="14.00">&#45;0.98</text>
</g>
<!-- EDUC&#45;&gt;WAGE -->
<g id="edge17" class="edge">
<title>EDUC&#45;&gt;WAGE</title>
<path fill="none" stroke="black" d="M215.6,-173.94C219.92,-151.22 230.64,-111.11 255,-87 285.47,-56.85 331.66,-38.76 364.92,-28.9"/>
<polygon fill="black" stroke="black" points="366.14,-32.19 374.8,-26.1 364.23,-25.46 366.14,-32.19"/>
<text text-anchor="middle" x="271" y="-101.3" font-family="Times,serif" font-size="14.00">0.56</text>
</g>
<!-- MOTHERED -->
<g id="node3" class="node">
<title>MOTHERED</title>
<path fill="none" stroke="black" d="M583,-297C583,-297 501,-297 501,-297 495,-297 489,-291 489,-285 489,-285 489,-273 489,-273 489,-267 495,-261 501,-261 501,-261 583,-261 583,-261 589,-261 595,-267 595,-273 595,-273 595,-285 595,-285 595,-291 589,-297 583,-297"/>
<text text-anchor="middle" x="542" y="-275.3" font-family="Times,serif" font-size="14.00">MOTHERED</text>
</g>
<!-- MOTHERED&#45;&gt;EDUC -->
<g id="edge2" class="edge">
<title>MOTHERED&#45;&gt;EDUC</title>
<path fill="none" stroke="black" d="M489.04,-260.9C455.02,-250.36 409.72,-237.15 369,-228 320.24,-217.04 306.29,-222.9 258,-210 256.54,-209.61 255.06,-209.19 253.57,-208.74"/>
<polygon fill="black" stroke="black" points="254.31,-205.31 243.72,-205.53 252.14,-211.96 254.31,-205.31"/>
<text text-anchor="middle" x="437.5" y="-231.8" font-family="Times,serif" font-size="14.00">0.1</text>
</g>
<!-- MOTHERED&#45;&gt;POTEXPER -->
<g id="edge6" class="edge">
<title>MOTHERED&#45;&gt;POTEXPER</title>
<path fill="none" stroke="black" d="M546.16,-260.99C552.12,-232.08 559.19,-173.36 528,-141 509.72,-122.03 441.24,-127.96 404.07,-123.49"/>
<polygon fill="black" stroke="black" points="404.49,-120.01 394.06,-121.82 403.35,-126.91 404.49,-120.01"/>
<text text-anchor="middle" x="565" y="-188.3" font-family="Times,serif" font-size="14.00">&#45;0.1</text>
</g>
<!-- MOTHERED&#45;&gt;WAGE -->
<g id="edge11" class="edge">
<title>MOTHERED&#45;&gt;WAGE</title>
<path fill="none" stroke="black" d="M557.27,-260.9C573.85,-240.15 596.29,-204.2 583,-174 555.67,-111.87 489.24,-65.09 445.98,-39.91"/>
<polygon fill="black" stroke="black" points="447.55,-36.77 437.13,-34.86 444.09,-42.85 447.55,-36.77"/>
<text text-anchor="middle" x="588" y="-144.8" font-family="Times,serif" font-size="14.00">0.06</text>
</g>
<!-- SIBLINGS -->
<g id="node4" class="node">
<title>SIBLINGS</title>
<path fill="none" stroke="black" d="M451.5,-297C451.5,-297 386.5,-297 386.5,-297 380.5,-297 374.5,-291 374.5,-285 374.5,-285 374.5,-273 374.5,-273 374.5,-267 380.5,-261 386.5,-261 386.5,-261 451.5,-261 451.5,-261 457.5,-261 463.5,-267 463.5,-273 463.5,-273 463.5,-285 463.5,-285 463.5,-291 457.5,-297 451.5,-297"/>
<text text-anchor="middle" x="419" y="-275.3" font-family="Times,serif" font-size="14.00">SIBLINGS</text>
</g>
<!-- SIBLINGS&#45;&gt;EDUC -->
<g id="edge3" class="edge">
<title>SIBLINGS&#45;&gt;EDUC</title>
<path fill="none" stroke="black" d="M377.31,-260.8C341.1,-245.86 288.98,-224.35 253.21,-209.59"/>
<polygon fill="black" stroke="black" points="254.16,-206.2 243.58,-205.62 251.49,-212.67 254.16,-206.2"/>
<text text-anchor="middle" x="346.5" y="-231.8" font-family="Times,serif" font-size="14.00">&#45;0.07</text>
</g>
<!-- SIBLINGS&#45;&gt;POTEXPER -->
<g id="edge7" class="edge">
<title>SIBLINGS&#45;&gt;POTEXPER</title>
<path fill="none" stroke="black" d="M418.12,-260.7C415.92,-232.9 408.18,-177.69 381,-141 378.3,-137.36 375.21,-133.75 372,-130.31"/>
<polygon fill="black" stroke="black" points="374.41,-127.77 364.89,-123.11 369.43,-132.69 374.41,-127.77"/>
<text text-anchor="middle" x="426" y="-188.3" font-family="Times,serif" font-size="14.00">0.07</text>
</g>
<!-- SIBLINGS&#45;&gt;WAGE -->
<g id="edge12" class="edge">
<title>SIBLINGS&#45;&gt;WAGE</title>
<path fill="none" stroke="black" d="M440.8,-260.76C445.74,-255.63 450.32,-249.59 453,-243 458.42,-229.64 495.53,-252.97 448,-87 443.63,-71.76 434.8,-56.57 426.35,-44.43"/>
<polygon fill="black" stroke="black" points="429.06,-42.2 420.34,-36.18 423.4,-46.32 429.06,-42.2"/>
<text text-anchor="middle" x="482.5" y="-144.8" font-family="Times,serif" font-size="14.00">&#45;0.04</text>
</g>
<!-- BRKNHOME -->
<g id="node5" class="node">
<title>BRKNHOME</title>
<path fill="none" stroke="black" d="M96,-297C96,-297 12,-297 12,-297 6,-297 0,-291 0,-285 0,-285 0,-273 0,-273 0,-267 6,-261 12,-261 12,-261 96,-261 96,-261 102,-261 108,-267 108,-273 108,-273 108,-285 108,-285 108,-291 102,-297 96,-297"/>
<text text-anchor="middle" x="54" y="-275.3" font-family="Times,serif" font-size="14.00">BRKNHOME</text>
</g>
<!-- BRKNHOME&#45;&gt;EDUC -->
<g id="edge4" class="edge">
<title>BRKNHOME&#45;&gt;EDUC</title>
<path fill="none" stroke="black" d="M77.97,-260.9C92.84,-250.68 112.57,-237.82 131,-228 144.3,-220.91 159.35,-214.15 172.88,-208.5"/>
<polygon fill="black" stroke="black" points="174.5,-211.62 182.43,-204.59 171.85,-205.14 174.5,-211.62"/>
<text text-anchor="middle" x="149.5" y="-231.8" font-family="Times,serif" font-size="14.00">&#45;0.48</text>
</g>
<!-- BRKNHOME&#45;&gt;POTEXPER -->
<g id="edge8" class="edge">
<title>BRKNHOME&#45;&gt;POTEXPER</title>
<path fill="none" stroke="black" d="M64.26,-260.88C78.72,-238.09 107.15,-197.89 141,-174 167.57,-155.24 244.33,-136.38 286.25,-124.34"/>
<polygon fill="black" stroke="black" points="287.26,-127.7 295.86,-121.51 285.28,-120.98 287.26,-127.7"/>
<text text-anchor="middle" x="157" y="-188.3" font-family="Times,serif" font-size="14.00">0.47</text>
</g>
<!-- BRKNHOME&#45;&gt;WAGE -->
<g id="edge13" class="edge">
<title>BRKNHOME&#45;&gt;WAGE</title>
<path fill="none" stroke="black" d="M60.09,-260.7C63.62,-250.99 68.3,-238.71 73,-228 83.78,-203.43 84.07,-195.59 100,-174 133.22,-128.98 146.65,-121.12 191,-87 213.29,-69.85 218.89,-64.47 245,-54 284.05,-38.34 331.37,-29.12 364.57,-24.11"/>
<polygon fill="black" stroke="black" points="365.43,-27.53 374.83,-22.63 364.43,-20.6 365.43,-27.53"/>
<text text-anchor="middle" x="145.5" y="-144.8" font-family="Times,serif" font-size="14.00">&#45;0.27</text>
</g>
<!-- POTEXPER&#45;&gt;WAGE -->
<g id="edge18" class="edge">
<title>POTEXPER&#45;&gt;WAGE</title>
<path fill="none" stroke="black" d="M357.34,-86.8C366.03,-74.7 377.79,-58.3 387.58,-44.67"/>
<polygon fill="black" stroke="black" points="390.69,-46.34 393.67,-36.18 385,-42.26 390.69,-46.34"/>
<text text-anchor="middle" x="395" y="-57.8" font-family="Times,serif" font-size="14.00">0.59</text>
</g>
<!-- AGE -->
<g id="node7" class="node">
<title>AGE</title>
<path fill="none" stroke="black" d="M377,-210C377,-210 347,-210 347,-210 341,-210 335,-204 335,-198 335,-198 335,-186 335,-186 335,-180 341,-174 347,-174 347,-174 377,-174 377,-174 383,-174 389,-180 389,-186 389,-186 389,-198 389,-198 389,-204 383,-210 377,-210"/>
<text text-anchor="middle" x="362" y="-188.3" font-family="Times,serif" font-size="14.00">AGE</text>
</g>
<!-- AGE&#45;&gt;POTEXPER -->
<g id="edge9" class="edge">
<title>AGE&#45;&gt;POTEXPER</title>
<path fill="none" stroke="black" d="M358.56,-173.8C356.23,-162.16 353.11,-146.55 350.45,-133.24"/>
<polygon fill="black" stroke="black" points="353.83,-132.29 348.44,-123.18 346.96,-133.67 353.83,-132.29"/>
<text text-anchor="middle" x="365.5" y="-144.8" font-family="Times,serif" font-size="14.00">0.9</text>
</g>
<!-- AGE&#45;&gt;WAGE -->
<g id="edge15" class="edge">
<title>AGE&#45;&gt;WAGE</title>
<path fill="none" stroke="black" d="M374.44,-173.92C383.57,-160.64 395.63,-141.43 403,-123 412.13,-100.17 412.32,-93.44 415,-69 415.73,-62.37 415.84,-60.61 415,-54 414.68,-51.44 414.22,-48.8 413.69,-46.17"/>
<polygon fill="black" stroke="black" points="417.06,-45.21 411.36,-36.28 410.25,-46.82 417.06,-45.21"/>
<text text-anchor="middle" x="428" y="-101.3" font-family="Times,serif" font-size="14.00">0.53</text>
</g>
<!-- ABILITY -->
<g id="node9" class="node">
<title>ABILITY</title>
<path fill="none" stroke="black" d="M688,-123C688,-123 638,-123 638,-123 632,-123 626,-117 626,-111 626,-111 626,-99 626,-99 626,-93 632,-87 638,-87 638,-87 688,-87 688,-87 694,-87 700,-93 700,-99 700,-99 700,-111 700,-111 700,-117 694,-123 688,-123"/>
<text text-anchor="middle" x="663" y="-101.3" font-family="Times,serif" font-size="14.00">ABILITY</text>
</g>
<!-- ABILITY&#45;&gt;WAGE -->
<g id="edge14" class="edge">
<title>ABILITY&#45;&gt;WAGE</title>
<path fill="none" stroke="black" d="M650.2,-86.88C640.87,-75.7 627.24,-61.78 612,-54 559.46,-27.19 490.56,-20.32 447.28,-18.87"/>
<polygon fill="black" stroke="black" points="447.2,-15.37 437.12,-18.61 447.03,-22.36 447.2,-15.37"/>
<text text-anchor="middle" x="648" y="-57.8" font-family="Times,serif" font-size="14.00">1.16</text>
</g>
</g>
</svg>
