<?xml version="1.0" encoding="UTF-8" standalone="no"?>
<!DOCTYPE svg PUBLIC "-//W3C//DTD SVG 1.1//EN"
 "http://www.w3.org/Graphics/SVG/1.1/DTD/svg11.dtd">
<!-- Generated by graphviz version 2.43.0 (0)
 -->
<!-- Title: G Pages: 1 -->
<svg width="464pt" height="305pt"
 viewBox="0.00 0.00 464.00 305.00" xmlns="http://www.w3.org/2000/svg" xmlns:xlink="http://www.w3.org/1999/xlink">
<g id="graph0" class="graph" transform="scale(1 1) rotate(0) translate(4 301)">
<title>G</title>
<polygon fill="white" stroke="transparent" points="-4,4 -4,-301 460,-301 460,4 -4,4"/>
<!-- FATHERED -->
<g id="node1" class="node">
<title>FATHERED</title>
<path fill="none" stroke="black" d="M86,-297C86,-297 12,-297 12,-297 6,-297 0,-291 0,-285 0,-285 0,-273 0,-273 0,-267 6,-261 12,-261 12,-261 86,-261 86,-261 92,-261 98,-267 98,-273 98,-273 98,-285 98,-285 98,-291 92,-297 86,-297"/>
<text text-anchor="middle" x="49" y="-275.3" font-family="Times,serif" font-size="14.00">FATHERED</text>
</g>
<!-- EDUC -->
<g id="node2" class="node">
<title>EDUC</title>
<path fill="none" stroke="black" d="M245.5,-210C245.5,-210 208.5,-210 208.5,-210 202.5,-210 196.5,-204 196.5,-198 196.5,-198 196.5,-186 196.5,-186 196.5,-180 202.5,-174 208.5,-174 208.5,-174 245.5,-174 245.5,-174 251.5,-174 257.5,-180 257.5,-186 257.5,-186 257.5,-198 257.5,-198 257.5,-204 251.5,-210 245.5,-210"/>
<text text-anchor="middle" x="227" y="-188.3" font-family="Times,serif" font-size="14.00">EDUC</text>
</g>
<!-- FATHERED&#45;&gt;EDUC -->
<g id="edge1" class="edge">
<title>FATHERED&#45;&gt;EDUC</title>
<path fill="none" stroke="#a6d96a" stroke-width="2" d="M85.02,-260.8C114.67,-246.64 156.64,-226.6 187.26,-211.98"/>
<polygon fill="#a6d96a" stroke="#a6d96a" stroke-width="2" points="188.85,-215.09 196.37,-207.63 185.84,-208.78 188.85,-215.09"/>
<text text-anchor="middle" x="160.5" y="-231.8" font-family="Times,serif" font-size="14.00">0.4</text>
</g>
<!-- POTEXPER -->
<g id="node7" class="node">
<title>POTEXPER</title>
<path fill="none" stroke="black" d="M347,-123C347,-123 273,-123 273,-123 267,-123 261,-117 261,-111 261,-111 261,-99 261,-99 261,-93 267,-87 273,-87 273,-87 347,-87 347,-87 353,-87 359,-93 359,-99 359,-99 359,-111 359,-111 359,-117 353,-123 347,-123"/>
<text text-anchor="middle" x="310" y="-101.3" font-family="Times,serif" font-size="14.00">POTEXPER</text>
</g>
<!-- EDUC&#45;&gt;POTEXPER -->
<g id="edge7" class="edge">
<title>EDUC&#45;&gt;POTEXPER</title>
<path fill="none" stroke="#f46d43" stroke-width="2" d="M243.8,-173.8C255.95,-161.36 272.54,-144.36 286.07,-130.5"/>
<polygon fill="#f46d43" stroke="#f46d43" stroke-width="2" points="288.75,-132.78 293.23,-123.18 283.74,-127.88 288.75,-132.78"/>
<text text-anchor="middle" x="288" y="-144.8" font-family="Times,serif" font-size="14.00">&#45;0.6</text>
</g>
<!-- WAGE -->
<g id="node9" class="node">
<title>WAGE</title>
<path fill="none" stroke="black" d="M329,-36C329,-36 291,-36 291,-36 285,-36 279,-30 279,-24 279,-24 279,-12 279,-12 279,-6 285,0 291,0 291,0 329,0 329,0 335,0 341,-6 341,-12 341,-12 341,-24 341,-24 341,-30 335,-36 329,-36"/>
<text text-anchor="middle" x="310" y="-14.3" font-family="Times,serif" font-size="14.00">WAGE</text>
</g>
<!-- EDUC&#45;&gt;WAGE -->
<g id="edge8" class="edge">
<title>EDUC&#45;&gt;WAGE</title>
<path fill="none" stroke="#66bd63" stroke-width="2" d="M223.18,-173.81C219.31,-152.34 215.61,-115.03 229,-87 237.82,-68.55 254.29,-53.28 270.1,-41.92"/>
<polygon fill="#66bd63" stroke="#66bd63" stroke-width="2" points="272.47,-44.54 278.75,-36.02 268.52,-38.76 272.47,-44.54"/>
<text text-anchor="middle" x="240.5" y="-101.3" font-family="Times,serif" font-size="14.00">0.6</text>
</g>
<!-- MOTHERED -->
<g id="node3" class="node">
<title>MOTHERED</title>
<path fill="none" stroke="black" d="M210,-297C210,-297 128,-297 128,-297 122,-297 116,-291 116,-285 116,-285 116,-273 116,-273 116,-267 122,-261 128,-261 128,-261 210,-261 210,-261 216,-261 222,-267 222,-273 222,-273 222,-285 222,-285 222,-291 216,-297 210,-297"/>
<text text-anchor="middle" x="169" y="-275.3" font-family="Times,serif" font-size="14.00">MOTHERED</text>
</g>
<!-- MOTHERED&#45;&gt;EDUC -->
<g id="edge2" class="edge">
<title>MOTHERED&#45;&gt;EDUC</title>
<path fill="none" stroke="#cdc9c9" stroke-width="2" d="M180.74,-260.8C188.99,-248.7 200.18,-232.3 209.49,-218.67"/>
<polygon fill="#cdc9c9" stroke="#cdc9c9" stroke-width="2" points="212.53,-220.41 215.28,-210.18 206.75,-216.46 212.53,-220.41"/>
<text text-anchor="middle" x="207" y="-231.8" font-family="Times,serif" font-size="14.00">0</text>
</g>
<!-- SIBLINGS -->
<g id="node4" class="node">
<title>SIBLINGS</title>
<path fill="none" stroke="black" d="M317.5,-297C317.5,-297 252.5,-297 252.5,-297 246.5,-297 240.5,-291 240.5,-285 240.5,-285 240.5,-273 240.5,-273 240.5,-267 246.5,-261 252.5,-261 252.5,-261 317.5,-261 317.5,-261 323.5,-261 329.5,-267 329.5,-273 329.5,-273 329.5,-285 329.5,-285 329.5,-291 323.5,-297 317.5,-297"/>
<text text-anchor="middle" x="285" y="-275.3" font-family="Times,serif" font-size="14.00">SIBLINGS</text>
</g>
<!-- SIBLINGS&#45;&gt;EDUC -->
<g id="edge3" class="edge">
<title>SIBLINGS&#45;&gt;EDUC</title>
<path fill="none" stroke="#cdc9c9" stroke-width="2" d="M273.26,-260.8C265.01,-248.7 253.82,-232.3 244.51,-218.67"/>
<polygon fill="#cdc9c9" stroke="#cdc9c9" stroke-width="2" points="247.25,-216.46 238.72,-210.18 241.47,-220.41 247.25,-216.46"/>
<text text-anchor="middle" x="271.5" y="-231.8" font-family="Times,serif" font-size="14.00">0.1</text>
</g>
<!-- BRKNHOME -->
<g id="node5" class="node">
<title>BRKNHOME</title>
<path fill="none" stroke="black" d="M444,-297C444,-297 360,-297 360,-297 354,-297 348,-291 348,-285 348,-285 348,-273 348,-273 348,-267 354,-261 360,-261 360,-261 444,-261 444,-261 450,-261 456,-267 456,-273 456,-273 456,-285 456,-285 456,-291 450,-297 444,-297"/>
<text text-anchor="middle" x="402" y="-275.3" font-family="Times,serif" font-size="14.00">BRKNHOME</text>
</g>
<!-- BRKNHOME&#45;&gt;EDUC -->
<g id="edge4" class="edge">
<title>BRKNHOME&#45;&gt;EDUC</title>
<path fill="none" stroke="#cdc9c9" stroke-width="2" d="M366.59,-260.8C337.75,-246.79 297.04,-227.02 267.02,-212.44"/>
<polygon fill="#cdc9c9" stroke="#cdc9c9" stroke-width="2" points="268.21,-209.12 257.68,-207.9 265.15,-215.42 268.21,-209.12"/>
<text text-anchor="middle" x="331" y="-231.8" font-family="Times,serif" font-size="14.00">&#45;0</text>
</g>
<!-- AGE -->
<g id="node6" class="node">
<title>AGE</title>
<path fill="none" stroke="black" d="M325,-210C325,-210 295,-210 295,-210 289,-210 283,-204 283,-198 283,-198 283,-186 283,-186 283,-180 289,-174 295,-174 295,-174 325,-174 325,-174 331,-174 337,-180 337,-186 337,-186 337,-198 337,-198 337,-204 331,-210 325,-210"/>
<text text-anchor="middle" x="310" y="-188.3" font-family="Times,serif" font-size="14.00">AGE</text>
</g>
<!-- AGE&#45;&gt;POTEXPER -->
<g id="edge5" class="edge">
<title>AGE&#45;&gt;POTEXPER</title>
<path fill="none" stroke="#d73027" stroke-width="2" d="M310,-173.8C310,-162.16 310,-146.55 310,-133.24"/>
<polygon fill="#d73027" stroke="#d73027" stroke-width="2" points="313.5,-133.18 310,-123.18 306.5,-133.18 313.5,-133.18"/>
<text text-anchor="middle" x="317" y="-144.8" font-family="Times,serif" font-size="14.00">&#45;1</text>
</g>
<!-- POTEXPER&#45;&gt;WAGE -->
<g id="edge9" class="edge">
<title>POTEXPER&#45;&gt;WAGE</title>
<path fill="none" stroke="#d73027" stroke-width="2" d="M310,-86.8C310,-75.16 310,-59.55 310,-46.24"/>
<polygon fill="#d73027" stroke="#d73027" stroke-width="2" points="313.5,-46.18 310,-36.18 306.5,-46.18 313.5,-46.18"/>
<text text-anchor="middle" x="328.5" y="-57.8" font-family="Times,serif" font-size="14.00">&#45;0.85</text>
</g>
<!-- ABILITY -->
<g id="node8" class="node">
<title>ABILITY</title>
<path fill="none" stroke="black" d="M439,-123C439,-123 389,-123 389,-123 383,-123 377,-117 377,-111 377,-111 377,-99 377,-99 377,-93 383,-87 389,-87 389,-87 439,-87 439,-87 445,-87 451,-93 451,-99 451,-99 451,-111 451,-111 451,-117 445,-123 439,-123"/>
<text text-anchor="middle" x="414" y="-101.3" font-family="Times,serif" font-size="14.00">ABILITY</text>
</g>
<!-- ABILITY&#45;&gt;WAGE -->
<g id="edge6" class="edge">
<title>ABILITY&#45;&gt;WAGE</title>
<path fill="none" stroke="#d9ef8b" stroke-width="2" d="M392.95,-86.8C377.45,-74.13 356.17,-56.73 339.04,-42.74"/>
<polygon fill="#d9ef8b" stroke="#d9ef8b" stroke-width="2" points="340.97,-39.79 331.01,-36.18 336.54,-45.21 340.97,-39.79"/>
<text text-anchor="middle" x="384" y="-57.8" font-family="Times,serif" font-size="14.00">0.23</text>
</g>
</g>
</svg>
