<?xml version="1.0" encoding="UTF-8" standalone="no"?>
<!DOCTYPE svg PUBLIC "-//W3C//DTD SVG 1.1//EN"
 "http://www.w3.org/Graphics/SVG/1.1/DTD/svg11.dtd">
<!-- Generated by graphviz version 2.43.0 (0)
 -->
<!-- Title: %3 Pages: 1 -->
<svg width="413pt" height="313pt" viewBox="0.0 0.0 413.0 313.0" xmlns="http://www.w3.org/2000/svg" xlink="http://www.w3.org/1999/xlink" >
<g id="graph0" class="graph" transform="scale(1 1) rotate(0) translate(4 309)">
<title>%3</title>
<polygon fill="white" stroke="transparent" points="-4,4 -4,-309 409,-309 409,4 -4,4"/>
<!-- SIBLINGS -->
<g id="node1" class="node">
<title>SIBLINGS</title>
<path fill="#eeeeee" stroke="#444444" d="M65,-305C65,-305 12,-305 12,-305 6,-305 0,-299 0,-293 0,-293 0,-279 0,-279 0,-273 6,-267 12,-267 12,-267 65,-267 65,-267 71,-267 77,-273 77,-279 77,-279 77,-293 77,-293 77,-299 71,-305 65,-305"/>
<text text-anchor="middle" x="38.5" y="-289.8" font-family="Times,serif" font-size="14.00">SIBLINGS</text>
<text text-anchor="middle" x="38.5" y="-274.8" font-family="Times,serif" font-size="14.00">0.06</text>
</g>
<!-- EDUC -->
<g id="node2" class="node">
<title>EDUC</title>
<path fill="#bde7bd" stroke="#444444" d="M209.5,-216C209.5,-216 179.5,-216 179.5,-216 173.5,-216 167.5,-210 167.5,-204 167.5,-204 167.5,-190 167.5,-190 167.5,-184 173.5,-178 179.5,-178 179.5,-178 209.5,-178 209.5,-178 215.5,-178 221.5,-184 221.5,-190 221.5,-190 221.5,-204 221.5,-204 221.5,-210 215.5,-216 209.5,-216"/>
<text text-anchor="middle" x="194.5" y="-200.8" font-family="Times,serif" font-size="14.00">EDUC</text>
<text text-anchor="middle" x="194.5" y="-185.8" font-family="Times,serif" font-size="14.00">0.34</text>
</g>
<!-- SIBLINGS&#45;&gt;EDUC -->
<g id="edge1" class="edge">
<title>SIBLINGS&#45;&gt;EDUC</title>
<path fill="none" stroke="#bbbbbb" stroke-width="2" d="M70.82,-266.97C96.37,-252.73 132.01,-232.85 158.47,-218.09"/>
<polygon fill="#bbbbbb" stroke="#bbbbbb" stroke-width="2" points="160.39,-221.03 167.42,-213.1 156.98,-214.92 160.39,-221.03"/>
<text text-anchor="middle" x="138" y="-237.8" font-family="Times,serif" font-size="14.00">0.06</text>
</g>
<!-- POTEXPER -->
<g id="node6" class="node">
<title>POTEXPER</title>
<path fill="#ff7973" stroke="#444444" d="M304,-127C304,-127 243,-127 243,-127 237,-127 231,-121 231,-115 231,-115 231,-101 231,-101 231,-95 237,-89 243,-89 243,-89 304,-89 304,-89 310,-89 316,-95 316,-101 316,-101 316,-115 316,-115 316,-121 310,-127 304,-127"/>
<text text-anchor="middle" x="273.5" y="-111.8" font-family="Times,serif" font-size="14.00">POTEXPER</text>
<text text-anchor="middle" x="273.5" y="-96.8" font-family="Times,serif" font-size="14.00">&#45;0.86</text>
</g>
<!-- EDUC&#45;&gt;POTEXPER -->
<g id="edge2" class="edge">
<title>EDUC&#45;&gt;POTEXPER</title>
<path fill="none" stroke="#ffc7ad" stroke-width="4" d="M211.07,-177.55C219.81,-167.85 230.71,-155.76 240.5,-145 243.53,-141.66 246.73,-138.16 249.89,-134.7"/>
<polygon fill="#ffc7ad" stroke="#ffc7ad" stroke-width="4" points="252.51,-137.03 256.68,-127.29 247.35,-132.3 252.51,-137.03"/>
<text text-anchor="middle" x="255" y="-148.8" font-family="Times,serif" font-size="14.00">&#45;0.34</text>
</g>
<!-- WAGE -->
<g id="node9" class="node">
<title>WAGE</title>
<path fill="#bde7bd" stroke="#444444" d="M289.5,-38C289.5,-38 257.5,-38 257.5,-38 251.5,-38 245.5,-32 245.5,-26 245.5,-26 245.5,-12 245.5,-12 245.5,-6 251.5,0 257.5,0 257.5,0 289.5,0 289.5,0 295.5,0 301.5,-6 301.5,-12 301.5,-12 301.5,-26 301.5,-26 301.5,-32 295.5,-38 289.5,-38"/>
<text text-anchor="middle" x="273.5" y="-22.8" font-family="Times,serif" font-size="14.00">WAGE</text>
<text text-anchor="middle" x="273.5" y="-7.8" font-family="Times,serif" font-size="14.00">0.20</text>
</g>
<!-- EDUC&#45;&gt;WAGE -->
<g id="edge3" class="edge">
<title>EDUC&#45;&gt;WAGE</title>
<path fill="none" stroke="#75cf73" stroke-width="6" d="M190.88,-177.99C187.35,-155.92 184.23,-117.87 197.5,-89 205.98,-70.56 221.96,-54.86 237.08,-43.13"/>
<polygon fill="#75cf73" stroke="#75cf73" stroke-width="6" points="240.43,-47.19 245.35,-37.02 234.19,-38.74 240.43,-47.19"/>
<text text-anchor="middle" x="210" y="-104.3" font-family="Times,serif" font-size="14.00">0.67</text>
</g>
<!-- MOTHERED -->
<g id="node3" class="node">
<title>MOTHERED</title>
<path fill="#eeeeee" stroke="#444444" d="M175.5,-305C175.5,-305 107.5,-305 107.5,-305 101.5,-305 95.5,-299 95.5,-293 95.5,-293 95.5,-279 95.5,-279 95.5,-273 101.5,-267 107.5,-267 107.5,-267 175.5,-267 175.5,-267 181.5,-267 187.5,-273 187.5,-279 187.5,-279 187.5,-293 187.5,-293 187.5,-299 181.5,-305 175.5,-305"/>
<text text-anchor="middle" x="141.5" y="-289.8" font-family="Times,serif" font-size="14.00">MOTHERED</text>
<text text-anchor="middle" x="141.5" y="-274.8" font-family="Times,serif" font-size="14.00">0.03</text>
</g>
<!-- MOTHERED&#45;&gt;EDUC -->
<g id="edge4" class="edge">
<title>MOTHERED&#45;&gt;EDUC</title>
<path fill="none" stroke="#bbbbbb" stroke-width="2" d="M152.48,-266.97C159.94,-254.73 169.94,-238.32 178.31,-224.58"/>
<polygon fill="#bbbbbb" stroke="#bbbbbb" stroke-width="2" points="181.32,-226.36 183.53,-216 175.34,-222.72 181.32,-226.36"/>
<text text-anchor="middle" x="183" y="-237.8" font-family="Times,serif" font-size="14.00">0.03</text>
</g>
<!-- FATHERED -->
<g id="node4" class="node">
<title>FATHERED</title>
<path fill="#bde7bd" stroke="#444444" d="M279.5,-305C279.5,-305 217.5,-305 217.5,-305 211.5,-305 205.5,-299 205.5,-293 205.5,-293 205.5,-279 205.5,-279 205.5,-273 211.5,-267 217.5,-267 217.5,-267 279.5,-267 279.5,-267 285.5,-267 291.5,-273 291.5,-279 291.5,-279 291.5,-293 291.5,-293 291.5,-299 285.5,-305 279.5,-305"/>
<text text-anchor="middle" x="248.5" y="-289.8" font-family="Times,serif" font-size="14.00">FATHERED</text>
<text text-anchor="middle" x="248.5" y="-274.8" font-family="Times,serif" font-size="14.00">0.21</text>
</g>
<!-- FATHERED&#45;&gt;EDUC -->
<g id="edge5" class="edge">
<title>FATHERED&#45;&gt;EDUC</title>
<path fill="none" stroke="#aad3aa" stroke-width="4" d="M237.31,-266.97C229.71,-254.73 219.52,-238.32 211,-224.58"/>
<polygon fill="#aad3aa" stroke="#aad3aa" stroke-width="4" points="213.92,-222.65 205.67,-216 207.97,-226.35 213.92,-222.65"/>
<text text-anchor="middle" x="237" y="-237.8" font-family="Times,serif" font-size="14.00">0.21</text>
</g>
<!-- BRKNHOME -->
<g id="node5" class="node">
<title>BRKNHOME</title>
<path fill="#eeeeee" stroke="#444444" d="M393,-305C393,-305 322,-305 322,-305 316,-305 310,-299 310,-293 310,-293 310,-279 310,-279 310,-273 316,-267 322,-267 322,-267 393,-267 393,-267 399,-267 405,-273 405,-279 405,-279 405,-293 405,-293 405,-299 399,-305 393,-305"/>
<text text-anchor="middle" x="357.5" y="-289.8" font-family="Times,serif" font-size="14.00">BRKNHOME</text>
<text text-anchor="middle" x="357.5" y="-274.8" font-family="Times,serif" font-size="14.00">0.04</text>
</g>
<!-- BRKNHOME&#45;&gt;EDUC -->
<g id="edge6" class="edge">
<title>BRKNHOME&#45;&gt;EDUC</title>
<path fill="none" stroke="#bbbbbb" stroke-width="2" d="M323.73,-266.97C296.58,-252.49 258.53,-232.18 230.75,-217.35"/>
<polygon fill="#bbbbbb" stroke="#bbbbbb" stroke-width="2" points="232.22,-214.17 221.75,-212.55 228.93,-220.34 232.22,-214.17"/>
<text text-anchor="middle" x="298" y="-237.8" font-family="Times,serif" font-size="14.00">0.04</text>
</g>
<!-- POTEXPER&#45;&gt;WAGE -->
<g id="edge7" class="edge">
<title>POTEXPER&#45;&gt;WAGE</title>
<path fill="none" stroke="#ff7973" stroke-width="6" d="M273.5,-88.97C273.5,-77.19 273.5,-61.56 273.5,-48.16"/>
<polygon fill="#ff7973" stroke="#ff7973" stroke-width="6" points="278.75,-48 273.5,-38 268.25,-48 278.75,-48"/>
<text text-anchor="middle" x="288" y="-59.8" font-family="Times,serif" font-size="14.00">&#45;0.86</text>
</g>
<!-- AGE -->
<g id="node7" class="node">
<title>AGE</title>
<path fill="#ff7973" stroke="#444444" d="M288.5,-216C288.5,-216 258.5,-216 258.5,-216 252.5,-216 246.5,-210 246.5,-204 246.5,-204 246.5,-190 246.5,-190 246.5,-184 252.5,-178 258.5,-178 258.5,-178 288.5,-178 288.5,-178 294.5,-178 300.5,-184 300.5,-190 300.5,-190 300.5,-204 300.5,-204 300.5,-210 294.5,-216 288.5,-216"/>
<text text-anchor="middle" x="273.5" y="-200.8" font-family="Times,serif" font-size="14.00">AGE</text>
<text text-anchor="middle" x="273.5" y="-185.8" font-family="Times,serif" font-size="14.00">&#45;0.52</text>
</g>
<!-- AGE&#45;&gt;POTEXPER -->
<g id="edge8" class="edge">
<title>AGE&#45;&gt;POTEXPER</title>
<path fill="none" stroke="#ff7973" stroke-width="6" d="M273.5,-177.97C273.5,-166.19 273.5,-150.56 273.5,-137.16"/>
<polygon fill="#ff7973" stroke="#ff7973" stroke-width="6" points="278.75,-137 273.5,-127 268.25,-137 278.75,-137"/>
<text text-anchor="middle" x="288" y="-148.8" font-family="Times,serif" font-size="14.00">&#45;0.52</text>
</g>
<!-- ABILITY -->
<g id="node8" class="node">
<title>ABILITY</title>
<path fill="#bde7bd" stroke="#444444" d="M393,-127C393,-127 346,-127 346,-127 340,-127 334,-121 334,-115 334,-115 334,-101 334,-101 334,-95 340,-89 346,-89 346,-89 393,-89 393,-89 399,-89 405,-95 405,-101 405,-101 405,-115 405,-115 405,-121 399,-127 393,-127"/>
<text text-anchor="middle" x="369.5" y="-111.8" font-family="Times,serif" font-size="14.00">ABILITY</text>
<text text-anchor="middle" x="369.5" y="-96.8" font-family="Times,serif" font-size="14.00">0.39</text>
</g>
<!-- ABILITY&#45;&gt;WAGE -->
<g id="edge9" class="edge">
<title>ABILITY&#45;&gt;WAGE</title>
<path fill="none" stroke="#aad3aa" stroke-width="4" d="M349.61,-88.97C335.58,-76.26 316.6,-59.06 301.11,-45.02"/>
<polygon fill="#aad3aa" stroke="#aad3aa" stroke-width="4" points="303.13,-42.13 293.37,-38 298.43,-47.31 303.13,-42.13"/>
<text text-anchor="middle" x="339" y="-59.8" font-family="Times,serif" font-size="14.00">0.39</text>
</g>
</g>
</svg>
