<?xml version="1.0" encoding="UTF-8" standalone="no"?>
<!DOCTYPE svg PUBLIC "-//W3C//DTD SVG 1.1//EN"
 "http://www.w3.org/Graphics/SVG/1.1/DTD/svg11.dtd">
<!-- Generated by graphviz version 2.43.0 (0)
 -->
<!-- Title: G Pages: 1 -->
<svg width="464pt" height="313pt"
 viewBox="0.00 0.00 464.00 313.00" xmlns="http://www.w3.org/2000/svg" xmlns:xlink="http://www.w3.org/1999/xlink">
<g id="graph0" class="graph" transform="scale(1 1) rotate(0) translate(4 309)">
<title>G</title>
<polygon fill="white" stroke="transparent" points="-4,4 -4,-309 460,-309 460,4 -4,4"/>
<!-- FATHERED -->
<g id="node1" class="node">
<title>FATHERED</title>
<path fill="#d9ef8b" stroke="black" d="M86,-305C86,-305 12,-305 12,-305 6,-305 0,-299 0,-293 0,-293 0,-279 0,-279 0,-273 6,-267 12,-267 12,-267 86,-267 86,-267 92,-267 98,-273 98,-279 98,-279 98,-293 98,-293 98,-299 92,-305 86,-305"/>
<text text-anchor="middle" x="49" y="-289.8" font-family="Times,serif" font-size="14.00">FATHERED</text>
<text text-anchor="middle" x="49" y="-274.8" font-family="Times,serif" font-size="14.00">0.2</text>
</g>
<!-- EDUC -->
<g id="node2" class="node">
<title>EDUC</title>
<path fill="#a6d96a" stroke="black" d="M245.5,-216C245.5,-216 208.5,-216 208.5,-216 202.5,-216 196.5,-210 196.5,-204 196.5,-204 196.5,-190 196.5,-190 196.5,-184 202.5,-178 208.5,-178 208.5,-178 245.5,-178 245.5,-178 251.5,-178 257.5,-184 257.5,-190 257.5,-190 257.5,-204 257.5,-204 257.5,-210 251.5,-216 245.5,-216"/>
<text text-anchor="middle" x="227" y="-200.8" font-family="Times,serif" font-size="14.00">EDUC</text>
<text text-anchor="middle" x="227" y="-185.8" font-family="Times,serif" font-size="14.00">0.3</text>
</g>
<!-- FATHERED&#45;&gt;EDUC -->
<g id="edge1" class="edge">
<title>FATHERED&#45;&gt;EDUC</title>
<path fill="none" stroke="#d9ef8b" stroke-width="2" d="M85.88,-266.97C115.5,-252.49 157.02,-232.2 187.35,-217.38"/>
<polygon fill="#d9ef8b" stroke="#d9ef8b" stroke-width="2" points="188.94,-220.5 196.38,-212.96 185.86,-214.21 188.94,-220.5"/>
<text text-anchor="middle" x="160.5" y="-237.8" font-family="Times,serif" font-size="14.00">0.2</text>
</g>
<!-- POTEXPER -->
<g id="node7" class="node">
<title>POTEXPER</title>
<path fill="#d73027" stroke="black" d="M347,-127C347,-127 273,-127 273,-127 267,-127 261,-121 261,-115 261,-115 261,-101 261,-101 261,-95 267,-89 273,-89 273,-89 347,-89 347,-89 353,-89 359,-95 359,-101 359,-101 359,-115 359,-115 359,-121 353,-127 347,-127"/>
<text text-anchor="middle" x="310" y="-111.8" font-family="Times,serif" font-size="14.00">POTEXPER</text>
<text text-anchor="middle" x="310" y="-96.8" font-family="Times,serif" font-size="14.00">&#45;0.85</text>
</g>
<!-- EDUC&#45;&gt;POTEXPER -->
<g id="edge7" class="edge">
<title>EDUC&#45;&gt;POTEXPER</title>
<path fill="none" stroke="#fdae61" stroke-width="2" d="M244.2,-177.97C256.22,-165.38 272.43,-148.38 285.76,-134.41"/>
<polygon fill="#fdae61" stroke="#fdae61" stroke-width="2" points="288.45,-136.65 292.82,-127 283.39,-131.82 288.45,-136.65"/>
<text text-anchor="middle" x="287" y="-148.8" font-family="Times,serif" font-size="14.00">&#45;0.3</text>
</g>
<!-- WAGE -->
<g id="node9" class="node">
<title>WAGE</title>
<path fill="#d9ef8b" stroke="black" d="M329,-38C329,-38 291,-38 291,-38 285,-38 279,-32 279,-26 279,-26 279,-12 279,-12 279,-6 285,0 291,0 291,0 329,0 329,0 335,0 341,-6 341,-12 341,-12 341,-26 341,-26 341,-32 335,-38 329,-38"/>
<text text-anchor="middle" x="310" y="-22.8" font-family="Times,serif" font-size="14.00">WAGE</text>
<text text-anchor="middle" x="310" y="-7.8" font-family="Times,serif" font-size="14.00">0.16</text>
</g>
<!-- EDUC&#45;&gt;WAGE -->
<g id="edge8" class="edge">
<title>EDUC&#45;&gt;WAGE</title>
<path fill="none" stroke="#66bd63" stroke-width="2" d="M223.02,-177.94C219.08,-155.81 215.41,-117.72 229,-89 237.8,-70.4 254.27,-54.93 270.08,-43.38"/>
<polygon fill="#66bd63" stroke="#66bd63" stroke-width="2" points="272.52,-45.95 278.74,-37.37 268.53,-40.19 272.52,-45.95"/>
<text text-anchor="middle" x="240.5" y="-104.3" font-family="Times,serif" font-size="14.00">0.6</text>
</g>
<!-- MOTHERED -->
<g id="node3" class="node">
<title>MOTHERED</title>
<path fill="#cdc9c9" stroke="black" d="M210,-305C210,-305 128,-305 128,-305 122,-305 116,-299 116,-293 116,-293 116,-279 116,-279 116,-273 122,-267 128,-267 128,-267 210,-267 210,-267 216,-267 222,-273 222,-279 222,-279 222,-293 222,-293 222,-299 216,-305 210,-305"/>
<text text-anchor="middle" x="169" y="-289.8" font-family="Times,serif" font-size="14.00">MOTHERED</text>
<text text-anchor="middle" x="169" y="-274.8" font-family="Times,serif" font-size="14.00">0</text>
</g>
<!-- MOTHERED&#45;&gt;EDUC -->
<g id="edge2" class="edge">
<title>MOTHERED&#45;&gt;EDUC</title>
<path fill="none" stroke="#cdc9c9" stroke-width="2" d="M181.02,-266.97C189.18,-254.73 200.12,-238.32 209.28,-224.58"/>
<polygon fill="#cdc9c9" stroke="#cdc9c9" stroke-width="2" points="212.36,-226.27 215,-216 206.54,-222.38 212.36,-226.27"/>
<text text-anchor="middle" x="207" y="-237.8" font-family="Times,serif" font-size="14.00">0</text>
</g>
<!-- SIBLINGS -->
<g id="node4" class="node">
<title>SIBLINGS</title>
<path fill="#cdc9c9" stroke="black" d="M317.5,-305C317.5,-305 252.5,-305 252.5,-305 246.5,-305 240.5,-299 240.5,-293 240.5,-293 240.5,-279 240.5,-279 240.5,-273 246.5,-267 252.5,-267 252.5,-267 317.5,-267 317.5,-267 323.5,-267 329.5,-273 329.5,-279 329.5,-279 329.5,-293 329.5,-293 329.5,-299 323.5,-305 317.5,-305"/>
<text text-anchor="middle" x="285" y="-289.8" font-family="Times,serif" font-size="14.00">SIBLINGS</text>
<text text-anchor="middle" x="285" y="-274.8" font-family="Times,serif" font-size="14.00">0.05</text>
</g>
<!-- SIBLINGS&#45;&gt;EDUC -->
<g id="edge3" class="edge">
<title>SIBLINGS&#45;&gt;EDUC</title>
<path fill="none" stroke="#cdc9c9" stroke-width="2" d="M272.98,-266.97C264.82,-254.73 253.88,-238.32 244.72,-224.58"/>
<polygon fill="#cdc9c9" stroke="#cdc9c9" stroke-width="2" points="247.46,-222.38 239,-216 241.64,-226.27 247.46,-222.38"/>
<text text-anchor="middle" x="276" y="-237.8" font-family="Times,serif" font-size="14.00">0.05</text>
</g>
<!-- BRKNHOME -->
<g id="node5" class="node">
<title>BRKNHOME</title>
<path fill="#cdc9c9" stroke="black" d="M444,-305C444,-305 360,-305 360,-305 354,-305 348,-299 348,-293 348,-293 348,-279 348,-279 348,-273 354,-267 360,-267 360,-267 444,-267 444,-267 450,-267 456,-273 456,-279 456,-279 456,-293 456,-293 456,-299 450,-305 444,-305"/>
<text text-anchor="middle" x="402" y="-289.8" font-family="Times,serif" font-size="14.00">BRKNHOME</text>
<text text-anchor="middle" x="402" y="-274.8" font-family="Times,serif" font-size="14.00">&#45;0</text>
</g>
<!-- BRKNHOME&#45;&gt;EDUC -->
<g id="edge4" class="edge">
<title>BRKNHOME&#45;&gt;EDUC</title>
<path fill="none" stroke="#cdc9c9" stroke-width="2" d="M365.74,-266.97C336.92,-252.65 296.66,-232.63 266.92,-217.85"/>
<polygon fill="#cdc9c9" stroke="#cdc9c9" stroke-width="2" points="268.18,-214.56 257.67,-213.25 265.06,-220.83 268.18,-214.56"/>
<text text-anchor="middle" x="331" y="-237.8" font-family="Times,serif" font-size="14.00">&#45;0</text>
</g>
<!-- AGE -->
<g id="node6" class="node">
<title>AGE</title>
<path fill="#f46d43" stroke="black" d="M325,-216C325,-216 295,-216 295,-216 289,-216 283,-210 283,-204 283,-204 283,-190 283,-190 283,-184 289,-178 295,-178 295,-178 325,-178 325,-178 331,-178 337,-184 337,-190 337,-190 337,-204 337,-204 337,-210 331,-216 325,-216"/>
<text text-anchor="middle" x="310" y="-200.8" font-family="Times,serif" font-size="14.00">AGE</text>
<text text-anchor="middle" x="310" y="-185.8" font-family="Times,serif" font-size="14.00">&#45;0.5</text>
</g>
<!-- AGE&#45;&gt;POTEXPER -->
<g id="edge5" class="edge">
<title>AGE&#45;&gt;POTEXPER</title>
<path fill="none" stroke="#f46d43" stroke-width="2" d="M310,-177.97C310,-166.19 310,-150.56 310,-137.16"/>
<polygon fill="#f46d43" stroke="#f46d43" stroke-width="2" points="313.5,-137 310,-127 306.5,-137 313.5,-137"/>
<text text-anchor="middle" x="324" y="-148.8" font-family="Times,serif" font-size="14.00">&#45;0.5</text>
</g>
<!-- POTEXPER&#45;&gt;WAGE -->
<g id="edge9" class="edge">
<title>POTEXPER&#45;&gt;WAGE</title>
<path fill="none" stroke="#d73027" stroke-width="2" d="M310,-88.97C310,-77.19 310,-61.56 310,-48.16"/>
<polygon fill="#d73027" stroke="#d73027" stroke-width="2" points="313.5,-48 310,-38 306.5,-48 313.5,-48"/>
<text text-anchor="middle" x="328.5" y="-59.8" font-family="Times,serif" font-size="14.00">&#45;0.85</text>
</g>
<!-- ABILITY -->
<g id="node8" class="node">
<title>ABILITY</title>
<path fill="#d9ef8b" stroke="black" d="M439,-127C439,-127 389,-127 389,-127 383,-127 377,-121 377,-115 377,-115 377,-101 377,-101 377,-95 383,-89 389,-89 389,-89 439,-89 439,-89 445,-89 451,-95 451,-101 451,-101 451,-115 451,-115 451,-121 445,-127 439,-127"/>
<text text-anchor="middle" x="414" y="-111.8" font-family="Times,serif" font-size="14.00">ABILITY</text>
<text text-anchor="middle" x="414" y="-96.8" font-family="Times,serif" font-size="14.00">0.23</text>
</g>
<!-- ABILITY&#45;&gt;WAGE -->
<g id="edge6" class="edge">
<title>ABILITY&#45;&gt;WAGE</title>
<path fill="none" stroke="#d9ef8b" stroke-width="2" d="M392.45,-88.97C377.11,-76.14 356.32,-58.74 339.45,-44.63"/>
<polygon fill="#d9ef8b" stroke="#d9ef8b" stroke-width="2" points="341.44,-41.74 331.52,-38 336.95,-47.1 341.44,-41.74"/>
<text text-anchor="middle" x="384" y="-59.8" font-family="Times,serif" font-size="14.00">0.23</text>
</g>
</g>
</svg>
