<?xml version="1.0" encoding="UTF-8" standalone="no"?>
<!DOCTYPE svg PUBLIC "-//W3C//DTD SVG 1.1//EN"
 "http://www.w3.org/Graphics/SVG/1.1/DTD/svg11.dtd">
<!-- Generated by graphviz version 2.43.0 (0)
 -->
<!-- Title: G Pages: 1 -->
<svg width="638pt" height="305pt"
 viewBox="0.00 0.00 638.00 305.00" xmlns="http://www.w3.org/2000/svg" xmlns:xlink="http://www.w3.org/1999/xlink">
<g id="graph0" class="graph" transform="scale(1 1) rotate(0) translate(4 301)">
<title>G</title>
<polygon fill="white" stroke="transparent" points="-4,4 -4,-301 634,-301 634,4 -4,4"/>
<!-- FATHERED -->
<g id="node1" class="node">
<title>FATHERED</title>
<path fill="none" stroke="black" d="M212,-297C212,-297 138,-297 138,-297 132,-297 126,-291 126,-285 126,-285 126,-273 126,-273 126,-267 132,-261 138,-261 138,-261 212,-261 212,-261 218,-261 224,-267 224,-273 224,-273 224,-285 224,-285 224,-291 218,-297 212,-297"/>
<text text-anchor="middle" x="175" y="-275.3" font-family="Times,serif" font-size="14.00">FATHERED</text>
</g>
<!-- EDUC -->
<g id="node2" class="node">
<title>EDUC</title>
<path fill="none" stroke="black" d="M197.5,-210C197.5,-210 160.5,-210 160.5,-210 154.5,-210 148.5,-204 148.5,-198 148.5,-198 148.5,-186 148.5,-186 148.5,-180 154.5,-174 160.5,-174 160.5,-174 197.5,-174 197.5,-174 203.5,-174 209.5,-180 209.5,-186 209.5,-186 209.5,-198 209.5,-198 209.5,-204 203.5,-210 197.5,-210"/>
<text text-anchor="middle" x="179" y="-188.3" font-family="Times,serif" font-size="14.00">EDUC</text>
</g>
<!-- FATHERED&#45;&gt;EDUC -->
<g id="edge1" class="edge">
<title>FATHERED&#45;&gt;EDUC</title>
<path fill="none" stroke="#d9ef8b" stroke-width="2" d="M167.01,-260.92C163.48,-251.27 160.61,-238.99 163,-228 163.59,-225.28 164.42,-222.52 165.38,-219.8"/>
<polygon fill="#d9ef8b" stroke="#d9ef8b" stroke-width="2" points="168.72,-220.87 169.32,-210.29 162.26,-218.19 168.72,-220.87"/>
<text text-anchor="middle" x="174.5" y="-231.8" font-family="Times,serif" font-size="14.00">0.4</text>
</g>
<!-- POTEXPER -->
<g id="node6" class="node">
<title>POTEXPER</title>
<path fill="none" stroke="black" d="M335,-123C335,-123 261,-123 261,-123 255,-123 249,-117 249,-111 249,-111 249,-99 249,-99 249,-93 255,-87 261,-87 261,-87 335,-87 335,-87 341,-87 347,-93 347,-99 347,-99 347,-111 347,-111 347,-117 341,-123 335,-123"/>
<text text-anchor="middle" x="298" y="-101.3" font-family="Times,serif" font-size="14.00">POTEXPER</text>
</g>
<!-- FATHERED&#45;&gt;POTEXPER -->
<g id="edge5" class="edge">
<title>FATHERED&#45;&gt;POTEXPER</title>
<path fill="none" stroke="#fee08b" stroke-width="2" d="M211.48,-260.87C219.07,-255.96 226.44,-250 232,-243 252.1,-217.68 241.15,-203.21 255,-174 261.94,-159.38 271.4,-144.06 279.69,-131.67"/>
<polygon fill="#fee08b" stroke="#fee08b" stroke-width="2" points="282.71,-133.45 285.46,-123.22 276.93,-129.51 282.71,-133.45"/>
<text text-anchor="middle" x="269" y="-188.3" font-family="Times,serif" font-size="14.00">&#45;0.4</text>
</g>
<!-- WAGE -->
<g id="node8" class="node">
<title>WAGE</title>
<path fill="none" stroke="black" d="M375,-36C375,-36 337,-36 337,-36 331,-36 325,-30 325,-24 325,-24 325,-12 325,-12 325,-6 331,0 337,0 337,0 375,0 375,0 381,0 387,-6 387,-12 387,-12 387,-24 387,-24 387,-30 381,-36 375,-36"/>
<text text-anchor="middle" x="356" y="-14.3" font-family="Times,serif" font-size="14.00">WAGE</text>
</g>
<!-- FATHERED&#45;&gt;WAGE -->
<g id="edge10" class="edge">
<title>FATHERED&#45;&gt;WAGE</title>
<path fill="none" stroke="#d9ef8b" stroke-width="2" d="M162.84,-260.79C154.3,-247.58 143.6,-228.54 139,-210 124.65,-152.23 152.41,-131.46 192,-87 207.56,-69.53 212.22,-64.75 233,-54 258.71,-40.7 290.13,-31.87 314.78,-26.4"/>
<polygon fill="#d9ef8b" stroke="#d9ef8b" stroke-width="2" points="315.84,-29.76 324.9,-24.26 314.39,-22.91 315.84,-29.76"/>
<text text-anchor="middle" x="158.5" y="-144.8" font-family="Times,serif" font-size="14.00">0.2</text>
</g>
<!-- EDUC&#45;&gt;POTEXPER -->
<g id="edge16" class="edge">
<title>EDUC&#45;&gt;POTEXPER</title>
<path fill="none" stroke="#fdae61" stroke-width="2" d="M187.37,-173.8C193.28,-163.15 202.08,-149.87 213,-141 220.9,-134.59 230.13,-129.2 239.55,-124.72"/>
<polygon fill="#fdae61" stroke="#fdae61" stroke-width="2" points="241.26,-127.79 248.98,-120.54 238.42,-121.39 241.26,-127.79"/>
<text text-anchor="middle" x="227" y="-144.8" font-family="Times,serif" font-size="14.00">&#45;0.6</text>
</g>
<!-- EDUC&#45;&gt;WAGE -->
<g id="edge17" class="edge">
<title>EDUC&#45;&gt;WAGE</title>
<path fill="none" stroke="#d9ef8b" stroke-width="2" d="M181.17,-173.79C184.84,-151.27 194.23,-111.77 217,-87 243.41,-58.27 284.61,-40.25 315.31,-30.03"/>
<polygon fill="#d9ef8b" stroke="#d9ef8b" stroke-width="2" points="316.41,-33.36 324.87,-26.99 314.28,-26.69 316.41,-33.36"/>
<text text-anchor="middle" x="228.5" y="-101.3" font-family="Times,serif" font-size="14.00">0.3</text>
</g>
<!-- MOTHERED -->
<g id="node3" class="node">
<title>MOTHERED</title>
<path fill="none" stroke="black" d="M532,-297C532,-297 450,-297 450,-297 444,-297 438,-291 438,-285 438,-285 438,-273 438,-273 438,-267 444,-261 450,-261 450,-261 532,-261 532,-261 538,-261 544,-267 544,-273 544,-273 544,-285 544,-285 544,-291 538,-297 532,-297"/>
<text text-anchor="middle" x="491" y="-275.3" font-family="Times,serif" font-size="14.00">MOTHERED</text>
</g>
<!-- MOTHERED&#45;&gt;EDUC -->
<g id="edge2" class="edge">
<title>MOTHERED&#45;&gt;EDUC</title>
<path fill="none" stroke="#cdc9c9" stroke-width="2" d="M437.7,-261.49C403.19,-251.13 357.17,-237.89 316,-228 275.49,-218.27 264.07,-221.4 224,-210 222.54,-209.59 221.07,-209.14 219.58,-208.68"/>
<polygon fill="#cdc9c9" stroke="#cdc9c9" stroke-width="2" points="220.35,-205.25 209.76,-205.4 218.13,-211.89 220.35,-205.25"/>
<text text-anchor="middle" x="374" y="-231.8" font-family="Times,serif" font-size="14.00">0</text>
</g>
<!-- MOTHERED&#45;&gt;POTEXPER -->
<g id="edge6" class="edge">
<title>MOTHERED&#45;&gt;POTEXPER</title>
<path fill="none" stroke="#cdc9c9" stroke-width="2" d="M494.41,-260.93C499.11,-231.94 503.74,-173.1 472,-141 454.89,-123.7 392.34,-127.9 357.36,-123.55"/>
<polygon fill="#cdc9c9" stroke="#cdc9c9" stroke-width="2" points="357.51,-120.03 347.06,-121.8 356.33,-126.93 357.51,-120.03"/>
<text text-anchor="middle" x="504" y="-188.3" font-family="Times,serif" font-size="14.00">&#45;0</text>
</g>
<!-- MOTHERED&#45;&gt;WAGE -->
<g id="edge11" class="edge">
<title>MOTHERED&#45;&gt;WAGE</title>
<path fill="none" stroke="#cdc9c9" stroke-width="2" d="M502.73,-260.87C505.94,-255.39 509.07,-249.14 511,-243 520.21,-213.72 523.2,-203.28 514,-174 495.12,-113.89 435.61,-67.19 395.26,-41.39"/>
<polygon fill="#cdc9c9" stroke="#cdc9c9" stroke-width="2" points="397.04,-38.38 386.71,-36.05 393.34,-44.31 397.04,-38.38"/>
<text text-anchor="middle" x="511" y="-144.8" font-family="Times,serif" font-size="14.00">0</text>
</g>
<!-- SIBLINGS -->
<g id="node4" class="node">
<title>SIBLINGS</title>
<path fill="none" stroke="black" d="M408.5,-297C408.5,-297 343.5,-297 343.5,-297 337.5,-297 331.5,-291 331.5,-285 331.5,-285 331.5,-273 331.5,-273 331.5,-267 337.5,-261 343.5,-261 343.5,-261 408.5,-261 408.5,-261 414.5,-261 420.5,-267 420.5,-273 420.5,-273 420.5,-285 420.5,-285 420.5,-291 414.5,-297 408.5,-297"/>
<text text-anchor="middle" x="376" y="-275.3" font-family="Times,serif" font-size="14.00">SIBLINGS</text>
</g>
<!-- SIBLINGS&#45;&gt;EDUC -->
<g id="edge3" class="edge">
<title>SIBLINGS&#45;&gt;EDUC</title>
<path fill="none" stroke="#cdc9c9" stroke-width="2" d="M336.13,-260.8C302.02,-246.08 253.14,-224.99 218.99,-210.25"/>
<polygon fill="#cdc9c9" stroke="#cdc9c9" stroke-width="2" points="220.34,-207.02 209.77,-206.28 217.56,-213.45 220.34,-207.02"/>
<text text-anchor="middle" x="300.5" y="-231.8" font-family="Times,serif" font-size="14.00">0.1</text>
</g>
<!-- SIBLINGS&#45;&gt;POTEXPER -->
<g id="edge7" class="edge">
<title>SIBLINGS&#45;&gt;POTEXPER</title>
<path fill="none" stroke="#cdc9c9" stroke-width="2" d="M375.14,-260.98C373.49,-239.68 368.74,-202.55 355,-174 347.33,-158.06 335.07,-142.73 323.88,-130.68"/>
<polygon fill="#cdc9c9" stroke="#cdc9c9" stroke-width="2" points="326.2,-128.04 316.74,-123.26 321.15,-132.9 326.2,-128.04"/>
<text text-anchor="middle" x="381" y="-188.3" font-family="Times,serif" font-size="14.00">&#45;0.1</text>
</g>
<!-- SIBLINGS&#45;&gt;WAGE -->
<g id="edge12" class="edge">
<title>SIBLINGS&#45;&gt;WAGE</title>
<path fill="none" stroke="#cdc9c9" stroke-width="2" d="M383.57,-260.79C389.08,-247.28 396.07,-227.83 399,-210 402.3,-189.95 404.46,-116 398,-87 394.55,-71.52 385.82,-56.32 377.2,-44.22"/>
<polygon fill="#cdc9c9" stroke="#cdc9c9" stroke-width="2" points="379.83,-41.89 371.02,-36 374.23,-46.1 379.83,-41.89"/>
<text text-anchor="middle" x="418" y="-144.8" font-family="Times,serif" font-size="14.00">0.05</text>
</g>
<!-- BRKNHOME -->
<g id="node5" class="node">
<title>BRKNHOME</title>
<path fill="none" stroke="black" d="M96,-297C96,-297 12,-297 12,-297 6,-297 0,-291 0,-285 0,-285 0,-273 0,-273 0,-267 6,-261 12,-261 12,-261 96,-261 96,-261 102,-261 108,-267 108,-273 108,-273 108,-285 108,-285 108,-291 102,-297 96,-297"/>
<text text-anchor="middle" x="54" y="-275.3" font-family="Times,serif" font-size="14.00">BRKNHOME</text>
</g>
<!-- BRKNHOME&#45;&gt;EDUC -->
<g id="edge4" class="edge">
<title>BRKNHOME&#45;&gt;EDUC</title>
<path fill="none" stroke="#cdc9c9" stroke-width="2" d="M79.3,-260.8C98.27,-247.9 124.44,-230.1 145.21,-215.98"/>
<polygon fill="#cdc9c9" stroke="#cdc9c9" stroke-width="2" points="147.44,-218.69 153.74,-210.18 143.5,-212.9 147.44,-218.69"/>
<text text-anchor="middle" x="131" y="-231.8" font-family="Times,serif" font-size="14.00">&#45;0</text>
</g>
<!-- BRKNHOME&#45;&gt;POTEXPER -->
<g id="edge8" class="edge">
<title>BRKNHOME&#45;&gt;POTEXPER</title>
<path fill="none" stroke="#cdc9c9" stroke-width="2" d="M62.84,-260.91C75.13,-238.52 99.25,-199.15 129,-174 154.35,-152.57 165.35,-153.75 196,-141 209.76,-135.28 224.83,-129.73 239.07,-124.8"/>
<polygon fill="#cdc9c9" stroke="#cdc9c9" stroke-width="2" points="240.42,-128.03 248.76,-121.49 238.16,-121.41 240.42,-128.03"/>
<text text-anchor="middle" x="134" y="-188.3" font-family="Times,serif" font-size="14.00">0</text>
</g>
<!-- BRKNHOME&#45;&gt;WAGE -->
<g id="edge13" class="edge">
<title>BRKNHOME&#45;&gt;WAGE</title>
<path fill="none" stroke="#cdc9c9" stroke-width="2" d="M59.16,-260.76C62.14,-251.08 66.08,-238.79 70,-228 95.13,-158.79 103.67,-137.78 157,-87 176.01,-68.89 181.93,-64.49 206,-54 241.13,-38.69 283.93,-29.55 314.81,-24.48"/>
<polygon fill="#cdc9c9" stroke="#cdc9c9" stroke-width="2" points="315.46,-27.92 324.79,-22.91 314.37,-21 315.46,-27.92"/>
<text text-anchor="middle" x="116" y="-144.8" font-family="Times,serif" font-size="14.00">&#45;0</text>
</g>
<!-- POTEXPER&#45;&gt;WAGE -->
<g id="edge18" class="edge">
<title>POTEXPER&#45;&gt;WAGE</title>
<path fill="none" stroke="#fdae61" stroke-width="2" d="M309.63,-86.86C316.19,-77.21 324.54,-64.92 332,-54 334.12,-50.9 336.35,-47.64 338.55,-44.42"/>
<polygon fill="#fdae61" stroke="#fdae61" stroke-width="2" points="341.5,-46.31 344.27,-36.08 335.73,-42.35 341.5,-46.31"/>
<text text-anchor="middle" x="350.5" y="-57.8" font-family="Times,serif" font-size="14.00">&#45;0.85</text>
</g>
<!-- AGE -->
<g id="node7" class="node">
<title>AGE</title>
<path fill="none" stroke="black" d="M334,-210C334,-210 304,-210 304,-210 298,-210 292,-204 292,-198 292,-198 292,-186 292,-186 292,-180 298,-174 304,-174 304,-174 334,-174 334,-174 340,-174 346,-180 346,-186 346,-186 346,-198 346,-198 346,-204 340,-210 334,-210"/>
<text text-anchor="middle" x="319" y="-188.3" font-family="Times,serif" font-size="14.00">AGE</text>
</g>
<!-- AGE&#45;&gt;POTEXPER -->
<g id="edge9" class="edge">
<title>AGE&#45;&gt;POTEXPER</title>
<path fill="none" stroke="#f46d43" stroke-width="2" d="M314.75,-173.8C311.88,-162.16 308.02,-146.55 304.73,-133.24"/>
<polygon fill="#f46d43" stroke="#f46d43" stroke-width="2" points="308.04,-132.04 302.24,-123.18 301.24,-133.72 308.04,-132.04"/>
<text text-anchor="middle" x="316" y="-144.8" font-family="Times,serif" font-size="14.00">&#45;1</text>
</g>
<!-- AGE&#45;&gt;WAGE -->
<g id="edge15" class="edge">
<title>AGE&#45;&gt;WAGE</title>
<path fill="none" stroke="#fee08b" stroke-width="2" d="M329.89,-173.99C338.06,-160.59 349,-141.19 356,-123 364.86,-99.96 366.09,-93.51 369,-69 369.79,-62.38 370.18,-60.56 369,-54 368.51,-51.28 367.83,-48.5 367.02,-45.75"/>
<polygon fill="#fee08b" stroke="#fee08b" stroke-width="2" points="370.27,-44.44 363.73,-36.1 363.65,-46.7 370.27,-44.44"/>
<text text-anchor="middle" x="380" y="-101.3" font-family="Times,serif" font-size="14.00">&#45;0.5</text>
</g>
<!-- ABILITY -->
<g id="node9" class="node">
<title>ABILITY</title>
<path fill="none" stroke="black" d="M618,-123C618,-123 568,-123 568,-123 562,-123 556,-117 556,-111 556,-111 556,-99 556,-99 556,-93 562,-87 568,-87 568,-87 618,-87 618,-87 624,-87 630,-93 630,-99 630,-99 630,-111 630,-111 630,-117 624,-123 618,-123"/>
<text text-anchor="middle" x="593" y="-101.3" font-family="Times,serif" font-size="14.00">ABILITY</text>
</g>
<!-- ABILITY&#45;&gt;WAGE -->
<g id="edge14" class="edge">
<title>ABILITY&#45;&gt;WAGE</title>
<path fill="none" stroke="#d9ef8b" stroke-width="2" d="M580.15,-86.97C570.81,-75.82 557.17,-61.91 542,-54 496.13,-30.08 436.34,-22.34 397.09,-19.93"/>
<polygon fill="#d9ef8b" stroke="#d9ef8b" stroke-width="2" points="397.26,-16.44 387.09,-19.4 396.89,-23.43 397.26,-16.44"/>
<text text-anchor="middle" x="578" y="-57.8" font-family="Times,serif" font-size="14.00">0.23</text>
</g>
</g>
</svg>
