<?xml version="1.0" encoding="UTF-8" standalone="no"?>
<!DOCTYPE svg PUBLIC "-//W3C//DTD SVG 1.1//EN"
 "http://www.w3.org/Graphics/SVG/1.1/DTD/svg11.dtd">
<!-- Generated by graphviz version 2.43.0 (0)
 -->
<!-- Title: G Pages: 1 -->
<svg width="147pt" height="305pt"
 viewBox="0.00 0.00 147.00 305.00" xmlns="http://www.w3.org/2000/svg" xmlns:xlink="http://www.w3.org/1999/xlink">
<g id="graph0" class="graph" transform="scale(1 1) rotate(0) translate(4 301)">
<title>G</title>
<polygon fill="white" stroke="transparent" points="-4,4 -4,-301 143,-301 143,4 -4,4"/>
<!-- X1 -->
<g id="node1" class="node">
<title>X1</title>
<path fill="none" stroke="black" d="M42,-297C42,-297 12,-297 12,-297 6,-297 0,-291 0,-285 0,-285 0,-273 0,-273 0,-267 6,-261 12,-261 12,-261 42,-261 42,-261 48,-261 54,-267 54,-273 54,-273 54,-285 54,-285 54,-291 48,-297 42,-297"/>
<text text-anchor="middle" x="27" y="-275.3" font-family="Times,serif" font-size="14.00">X1</text>
</g>
<!-- Y1 -->
<g id="node2" class="node">
<title>Y1</title>
<path fill="none" stroke="black" d="M42,-210C42,-210 12,-210 12,-210 6,-210 0,-204 0,-198 0,-198 0,-186 0,-186 0,-180 6,-174 12,-174 12,-174 42,-174 42,-174 48,-174 54,-180 54,-186 54,-186 54,-198 54,-198 54,-204 48,-210 42,-210"/>
<text text-anchor="middle" x="27" y="-188.3" font-family="Times,serif" font-size="14.00">Y1</text>
</g>
<!-- X1&#45;&gt;Y1 -->
<g id="edge1" class="edge">
<title>X1&#45;&gt;Y1</title>
<path fill="none" stroke="black" d="M27,-260.8C27,-249.16 27,-233.55 27,-220.24"/>
<polygon fill="black" stroke="black" points="30.5,-220.18 27,-210.18 23.5,-220.18 30.5,-220.18"/>
<text text-anchor="middle" x="32" y="-231.8" font-family="Times,serif" font-size="14.00">1</text>
</g>
<!-- Y2 -->
<g id="node4" class="node">
<title>Y2</title>
<path fill="none" stroke="black" d="M85,-123C85,-123 55,-123 55,-123 49,-123 43,-117 43,-111 43,-111 43,-99 43,-99 43,-93 49,-87 55,-87 55,-87 85,-87 85,-87 91,-87 97,-93 97,-99 97,-99 97,-111 97,-111 97,-117 91,-123 85,-123"/>
<text text-anchor="middle" x="70" y="-101.3" font-family="Times,serif" font-size="14.00">Y2</text>
</g>
<!-- Y1&#45;&gt;Y2 -->
<g id="edge3" class="edge">
<title>Y1&#45;&gt;Y2</title>
<path fill="none" stroke="black" d="M31.89,-173.84C35.02,-163.96 39.52,-151.46 45,-141 46.64,-137.86 48.54,-134.69 50.53,-131.59"/>
<polygon fill="black" stroke="black" points="53.52,-133.42 56.29,-123.2 47.75,-129.46 53.52,-133.42"/>
<text text-anchor="middle" x="65.5" y="-144.8" font-family="Times,serif" font-size="14.00">11.93</text>
</g>
<!-- Y3 -->
<g id="node5" class="node">
<title>Y3</title>
<path fill="none" stroke="black" d="M46,-36C46,-36 16,-36 16,-36 10,-36 4,-30 4,-24 4,-24 4,-12 4,-12 4,-6 10,0 16,0 16,0 46,0 46,0 52,0 58,-6 58,-12 58,-12 58,-24 58,-24 58,-30 52,-36 46,-36"/>
<text text-anchor="middle" x="31" y="-14.3" font-family="Times,serif" font-size="14.00">Y3</text>
</g>
<!-- Y1&#45;&gt;Y3 -->
<g id="edge4" class="edge">
<title>Y1&#45;&gt;Y3</title>
<path fill="none" stroke="black" d="M25.65,-173.69C24.24,-153.05 22.43,-117.49 24,-87 24.69,-73.52 26.15,-58.61 27.56,-46.18"/>
<polygon fill="black" stroke="black" points="31.06,-46.35 28.76,-36.01 24.11,-45.53 31.06,-46.35"/>
<text text-anchor="middle" x="29" y="-101.3" font-family="Times,serif" font-size="14.00">1</text>
</g>
<!-- X2 -->
<g id="node3" class="node">
<title>X2</title>
<path fill="none" stroke="black" d="M127,-210C127,-210 97,-210 97,-210 91,-210 85,-204 85,-198 85,-198 85,-186 85,-186 85,-180 91,-174 97,-174 97,-174 127,-174 127,-174 133,-174 139,-180 139,-186 139,-186 139,-198 139,-198 139,-204 133,-210 127,-210"/>
<text text-anchor="middle" x="112" y="-188.3" font-family="Times,serif" font-size="14.00">X2</text>
</g>
<!-- X2&#45;&gt;Y2 -->
<g id="edge2" class="edge">
<title>X2&#45;&gt;Y2</title>
<path fill="none" stroke="black" d="M104.9,-173.67C100.79,-163.95 95.38,-151.67 90,-141 88.52,-138.06 86.91,-135.02 85.27,-132.02"/>
<polygon fill="black" stroke="black" points="88.29,-130.25 80.33,-123.25 82.18,-133.68 88.29,-130.25"/>
<text text-anchor="middle" x="102" y="-144.8" font-family="Times,serif" font-size="14.00">1</text>
</g>
<!-- Y2&#45;&gt;Y3 -->
<g id="edge5" class="edge">
<title>Y2&#45;&gt;Y3</title>
<path fill="none" stroke="black" d="M62.11,-86.8C56.66,-74.93 49.32,-58.93 43.14,-45.45"/>
<polygon fill="black" stroke="black" points="46.23,-43.8 38.88,-36.18 39.87,-46.72 46.23,-43.8"/>
<text text-anchor="middle" x="57" y="-57.8" font-family="Times,serif" font-size="14.00">1</text>
</g>
</g>
</svg>
