<?xml version="1.0" encoding="UTF-8" standalone="no"?>
<!DOCTYPE svg PUBLIC "-//W3C//DTD SVG 1.1//EN"
 "http://www.w3.org/Graphics/SVG/1.1/DTD/svg11.dtd">
<!-- Generated by graphviz version 2.43.0 (0)
 -->
<!-- Title: G Pages: 1 -->
<svg width="271pt" height="305pt"
 viewBox="0.00 0.00 271.00 305.00" xmlns="http://www.w3.org/2000/svg" xmlns:xlink="http://www.w3.org/1999/xlink">
<g id="graph0" class="graph" transform="scale(1 1) rotate(0) translate(4 301)">
<title>G</title>
<polygon fill="white" stroke="transparent" points="-4,4 -4,-301 267,-301 267,4 -4,4"/>
<!-- X1 -->
<g id="node1" class="node">
<title>X1</title>
<path fill="none" stroke="black" d="M105,-297C105,-297 75,-297 75,-297 69,-297 63,-291 63,-285 63,-285 63,-273 63,-273 63,-267 69,-261 75,-261 75,-261 105,-261 105,-261 111,-261 117,-267 117,-273 117,-273 117,-285 117,-285 117,-291 111,-297 105,-297"/>
<text text-anchor="middle" x="90" y="-275.3" font-family="Times,serif" font-size="14.00">X1</text>
</g>
<!-- Y1 -->
<g id="node2" class="node">
<title>Y1</title>
<path fill="none" stroke="black" d="M42,-210C42,-210 12,-210 12,-210 6,-210 0,-204 0,-198 0,-198 0,-186 0,-186 0,-180 6,-174 12,-174 12,-174 42,-174 42,-174 48,-174 54,-180 54,-186 54,-186 54,-198 54,-198 54,-204 48,-210 42,-210"/>
<text text-anchor="middle" x="27" y="-188.3" font-family="Times,serif" font-size="14.00">Y1</text>
</g>
<!-- X1&#45;&gt;Y1 -->
<g id="edge1" class="edge">
<title>X1&#45;&gt;Y1</title>
<path fill="none" stroke="black" d="M77.25,-260.8C68.2,-248.59 55.9,-231.99 45.74,-218.28"/>
<polygon fill="black" stroke="black" points="48.5,-216.13 39.73,-210.18 42.87,-220.29 48.5,-216.13"/>
<text text-anchor="middle" x="68" y="-231.8" font-family="Times,serif" font-size="14.00">1</text>
</g>
<!-- Y2 -->
<g id="node3" class="node">
<title>Y2</title>
<path fill="none" stroke="black" d="M116,-123C116,-123 86,-123 86,-123 80,-123 74,-117 74,-111 74,-111 74,-99 74,-99 74,-93 80,-87 86,-87 86,-87 116,-87 116,-87 122,-87 128,-93 128,-99 128,-99 128,-111 128,-111 128,-117 122,-123 116,-123"/>
<text text-anchor="middle" x="101" y="-101.3" font-family="Times,serif" font-size="14.00">Y2</text>
</g>
<!-- X1&#45;&gt;Y2 -->
<g id="edge2" class="edge">
<title>X1&#45;&gt;Y2</title>
<path fill="none" stroke="black" d="M91.09,-260.88C93.01,-231 96.96,-169.11 99.26,-133.27"/>
<polygon fill="black" stroke="black" points="102.76,-133.25 99.91,-123.05 95.78,-132.81 102.76,-133.25"/>
<text text-anchor="middle" x="116.5" y="-188.3" font-family="Times,serif" font-size="14.00">11.93</text>
</g>
<!-- Y3 -->
<g id="node5" class="node">
<title>Y3</title>
<path fill="none" stroke="black" d="M163,-36C163,-36 133,-36 133,-36 127,-36 121,-30 121,-24 121,-24 121,-12 121,-12 121,-6 127,0 133,0 133,0 163,0 163,0 169,0 175,-6 175,-12 175,-12 175,-24 175,-24 175,-30 169,-36 163,-36"/>
<text text-anchor="middle" x="148" y="-14.3" font-family="Times,serif" font-size="14.00">Y3</text>
</g>
<!-- X1&#45;&gt;Y3 -->
<g id="edge4" class="edge">
<title>X1&#45;&gt;Y3</title>
<path fill="none" stroke="black" d="M117.07,-271.56C146.37,-263 191.61,-244.71 212,-210 244.2,-155.19 198.42,-81.93 169.15,-44.05"/>
<polygon fill="black" stroke="black" points="171.79,-41.74 162.84,-36.08 166.31,-46.09 171.79,-41.74"/>
<text text-anchor="middle" x="242.5" y="-144.8" font-family="Times,serif" font-size="14.00">12.93</text>
</g>
<!-- Y1&#45;&gt;Y2 -->
<g id="edge6" class="edge">
<title>Y1&#45;&gt;Y2</title>
<path fill="none" stroke="black" d="M26.06,-173.81C26.33,-163.44 28.25,-150.44 35,-141 42.31,-130.78 53.54,-123.28 64.67,-117.91"/>
<polygon fill="black" stroke="black" points="66.15,-121.09 73.92,-113.89 63.35,-114.67 66.15,-121.09"/>
<text text-anchor="middle" x="55.5" y="-144.8" font-family="Times,serif" font-size="14.00">11.93</text>
</g>
<!-- Y1&#45;&gt;Y3 -->
<g id="edge7" class="edge">
<title>Y1&#45;&gt;Y3</title>
<path fill="none" stroke="black" d="M21.24,-173.77C15.05,-151.93 8.08,-113.89 24,-87 42.63,-55.53 81.56,-37.66 110.85,-28.22"/>
<polygon fill="black" stroke="black" points="112.21,-31.47 120.77,-25.22 110.18,-24.77 112.21,-31.47"/>
<text text-anchor="middle" x="44.5" y="-101.3" font-family="Times,serif" font-size="14.00">12.93</text>
</g>
<!-- Y2&#45;&gt;Y3 -->
<g id="edge8" class="edge">
<title>Y2&#45;&gt;Y3</title>
<path fill="none" stroke="black" d="M110.51,-86.8C117.14,-74.82 126.09,-58.62 133.59,-45.06"/>
<polygon fill="black" stroke="black" points="136.73,-46.62 138.5,-36.18 130.6,-43.23 136.73,-46.62"/>
<text text-anchor="middle" x="132" y="-57.8" font-family="Times,serif" font-size="14.00">1</text>
</g>
<!-- X2 -->
<g id="node4" class="node">
<title>X2</title>
<path fill="none" stroke="black" d="M191,-210C191,-210 161,-210 161,-210 155,-210 149,-204 149,-198 149,-198 149,-186 149,-186 149,-180 155,-174 161,-174 161,-174 191,-174 191,-174 197,-174 203,-180 203,-186 203,-186 203,-198 203,-198 203,-204 197,-210 191,-210"/>
<text text-anchor="middle" x="176" y="-188.3" font-family="Times,serif" font-size="14.00">X2</text>
</g>
<!-- X2&#45;&gt;Y2 -->
<g id="edge3" class="edge">
<title>X2&#45;&gt;Y2</title>
<path fill="none" stroke="black" d="M160.82,-173.8C149.95,-161.47 135.13,-144.68 122.96,-130.89"/>
<polygon fill="black" stroke="black" points="125.4,-128.36 116.15,-123.18 120.15,-132.99 125.4,-128.36"/>
<text text-anchor="middle" x="147" y="-144.8" font-family="Times,serif" font-size="14.00">1</text>
</g>
<!-- X2&#45;&gt;Y3 -->
<g id="edge5" class="edge">
<title>X2&#45;&gt;Y3</title>
<path fill="none" stroke="black" d="M173.21,-173.88C168.35,-144 158.27,-82.11 152.44,-46.27"/>
<polygon fill="black" stroke="black" points="155.84,-45.36 150.78,-36.05 148.93,-46.48 155.84,-45.36"/>
<text text-anchor="middle" x="169" y="-101.3" font-family="Times,serif" font-size="14.00">1</text>
</g>
</g>
</svg>
