<?xml version="1.0" encoding="UTF-8" standalone="no"?>
<!DOCTYPE svg PUBLIC "-//W3C//DTD SVG 1.1//EN"
 "http://www.w3.org/Graphics/SVG/1.1/DTD/svg11.dtd">
<!-- Generated by graphviz version 2.43.0 (0)
 -->
<!-- Title: G Pages: 1 -->
<svg width="141pt" height="305pt"
 viewBox="0.00 0.00 141.00 305.00" xmlns="http://www.w3.org/2000/svg" xmlns:xlink="http://www.w3.org/1999/xlink">
<g id="graph0" class="graph" transform="scale(1 1) rotate(0) translate(4 301)">
<title>G</title>
<polygon fill="white" stroke="transparent" points="-4,4 -4,-301 137,-301 137,4 -4,4"/>
<!-- X1 -->
<g id="node1" class="node">
<title>X1</title>
<path fill="none" stroke="black" d="M42,-297C42,-297 12,-297 12,-297 6,-297 0,-291 0,-285 0,-285 0,-273 0,-273 0,-267 6,-261 12,-261 12,-261 42,-261 42,-261 48,-261 54,-267 54,-273 54,-273 54,-285 54,-285 54,-291 48,-297 42,-297"/>
<text text-anchor="middle" x="27" y="-275.3" font-family="Times,serif" font-size="14.00">X1</text>
</g>
<!-- Y1 -->
<g id="node2" class="node">
<title>Y1</title>
<path fill="none" stroke="black" d="M42,-210C42,-210 12,-210 12,-210 6,-210 0,-204 0,-198 0,-198 0,-186 0,-186 0,-180 6,-174 12,-174 12,-174 42,-174 42,-174 48,-174 54,-180 54,-186 54,-186 54,-198 54,-198 54,-204 48,-210 42,-210"/>
<text text-anchor="middle" x="27" y="-188.3" font-family="Times,serif" font-size="14.00">Y1</text>
</g>
<!-- X1&#45;&gt;Y1 -->
<g id="edge1" class="edge">
<title>X1&#45;&gt;Y1</title>
<path fill="none" stroke="#1a9850" stroke-width="2" d="M27,-260.8C27,-249.16 27,-233.55 27,-220.24"/>
<polygon fill="#1a9850" stroke="#1a9850" stroke-width="2" points="30.5,-220.18 27,-210.18 23.5,-220.18 30.5,-220.18"/>
<text text-anchor="middle" x="38.5" y="-231.8" font-family="Times,serif" font-size="14.00">2.1</text>
</g>
<!-- Y2 -->
<g id="node4" class="node">
<title>Y2</title>
<path fill="none" stroke="black" d="M116,-123C116,-123 86,-123 86,-123 80,-123 74,-117 74,-111 74,-111 74,-99 74,-99 74,-93 80,-87 86,-87 86,-87 116,-87 116,-87 122,-87 128,-93 128,-99 128,-99 128,-111 128,-111 128,-117 122,-123 116,-123"/>
<text text-anchor="middle" x="101" y="-101.3" font-family="Times,serif" font-size="14.00">Y2</text>
</g>
<!-- Y1&#45;&gt;Y2 -->
<g id="edge3" class="edge">
<title>Y1&#45;&gt;Y2</title>
<path fill="none" stroke="#1a9850" stroke-width="2" d="M41.98,-173.8C52.71,-161.47 67.33,-144.68 79.33,-130.89"/>
<polygon fill="#1a9850" stroke="#1a9850" stroke-width="2" points="82.12,-133.02 86.05,-123.18 76.84,-128.42 82.12,-133.02"/>
<text text-anchor="middle" x="73" y="-144.8" font-family="Times,serif" font-size="14.00">2</text>
</g>
<!-- Y3 -->
<g id="node5" class="node">
<title>Y3</title>
<path fill="none" stroke="black" d="M55,-36C55,-36 25,-36 25,-36 19,-36 13,-30 13,-24 13,-24 13,-12 13,-12 13,-6 19,0 25,0 25,0 55,0 55,0 61,0 67,-6 67,-12 67,-12 67,-24 67,-24 67,-30 61,-36 55,-36"/>
<text text-anchor="middle" x="40" y="-14.3" font-family="Times,serif" font-size="14.00">Y3</text>
</g>
<!-- Y1&#45;&gt;Y3 -->
<g id="edge4" class="edge">
<title>Y1&#45;&gt;Y3</title>
<path fill="none" stroke="#cdc9c9" stroke-width="2" d="M27.76,-173.69C28.72,-153.03 30.55,-117.47 33,-87 34.08,-73.55 35.58,-58.63 36.92,-46.21"/>
<polygon fill="#cdc9c9" stroke="#cdc9c9" stroke-width="2" points="40.42,-46.35 38.03,-36.03 33.46,-45.59 40.42,-46.35"/>
<text text-anchor="middle" x="49" y="-101.3" font-family="Times,serif" font-size="14.00">0.11</text>
</g>
<!-- X2 -->
<g id="node3" class="node">
<title>X2</title>
<path fill="none" stroke="black" d="M116,-210C116,-210 86,-210 86,-210 80,-210 74,-204 74,-198 74,-198 74,-186 74,-186 74,-180 80,-174 86,-174 86,-174 116,-174 116,-174 122,-174 128,-180 128,-186 128,-186 128,-198 128,-198 128,-204 122,-210 116,-210"/>
<text text-anchor="middle" x="101" y="-188.3" font-family="Times,serif" font-size="14.00">X2</text>
</g>
<!-- X2&#45;&gt;Y2 -->
<g id="edge2" class="edge">
<title>X2&#45;&gt;Y2</title>
<path fill="none" stroke="#66bd63" stroke-width="2" d="M101,-173.8C101,-162.16 101,-146.55 101,-133.24"/>
<polygon fill="#66bd63" stroke="#66bd63" stroke-width="2" points="104.5,-133.18 101,-123.18 97.5,-133.18 104.5,-133.18"/>
<text text-anchor="middle" x="117" y="-144.8" font-family="Times,serif" font-size="14.00">1.31</text>
</g>
<!-- Y2&#45;&gt;Y3 -->
<g id="edge5" class="edge">
<title>Y2&#45;&gt;Y3</title>
<path fill="none" stroke="#66bd63" stroke-width="2" d="M88.66,-86.8C79.97,-74.7 68.21,-58.3 58.42,-44.67"/>
<polygon fill="#66bd63" stroke="#66bd63" stroke-width="2" points="61,-42.26 52.33,-36.18 55.31,-46.34 61,-42.26"/>
<text text-anchor="middle" x="90" y="-57.8" font-family="Times,serif" font-size="14.00">1.35</text>
</g>
</g>
</svg>
