<?xml version="1.0" encoding="UTF-8" standalone="no"?>
<!DOCTYPE svg PUBLIC "-//W3C//DTD SVG 1.1//EN"
 "http://www.w3.org/Graphics/SVG/1.1/DTD/svg11.dtd">
<!-- Generated by graphviz version 2.43.0 (0)
 -->
<!-- Title: G Pages: 1 -->
<svg width="134pt" height="305pt"
 viewBox="0.00 0.00 134.00 305.00" xmlns="http://www.w3.org/2000/svg" xmlns:xlink="http://www.w3.org/1999/xlink">
<g id="graph0" class="graph" transform="scale(1 1) rotate(0) translate(4 301)">
<title>G</title>
<polygon fill="white" stroke="transparent" points="-4,4 -4,-301 130,-301 130,4 -4,4"/>
<!-- X1 -->
<g id="node1" class="node">
<title>X1</title>
<path fill="none" stroke="black" d="M42,-297C42,-297 12,-297 12,-297 6,-297 0,-291 0,-285 0,-285 0,-273 0,-273 0,-267 6,-261 12,-261 12,-261 42,-261 42,-261 48,-261 54,-267 54,-273 54,-273 54,-285 54,-285 54,-291 48,-297 42,-297"/>
<text text-anchor="middle" x="27" y="-275.3" font-family="Times,serif" font-size="14.00">X1</text>
</g>
<!-- Y1 -->
<g id="node2" class="node">
<title>Y1</title>
<path fill="none" stroke="black" d="M42,-210C42,-210 12,-210 12,-210 6,-210 0,-204 0,-198 0,-198 0,-186 0,-186 0,-180 6,-174 12,-174 12,-174 42,-174 42,-174 48,-174 54,-180 54,-186 54,-186 54,-198 54,-198 54,-204 48,-210 42,-210"/>
<text text-anchor="middle" x="27" y="-188.3" font-family="Times,serif" font-size="14.00">Y1</text>
</g>
<!-- X1&#45;&gt;Y1 -->
<g id="edge1" class="edge">
<title>X1&#45;&gt;Y1</title>
<path fill="none" stroke="#cdc9c9" stroke-width="2" d="M27,-260.8C27,-249.16 27,-233.55 27,-220.24"/>
<polygon fill="#cdc9c9" stroke="#cdc9c9" stroke-width="2" points="30.5,-220.18 27,-210.18 23.5,-220.18 30.5,-220.18"/>
<text text-anchor="middle" x="43" y="-231.8" font-family="Times,serif" font-size="14.00">0.01</text>
</g>
<!-- Y2 -->
<g id="node4" class="node">
<title>Y2</title>
<path fill="none" stroke="black" d="M97,-123C97,-123 67,-123 67,-123 61,-123 55,-117 55,-111 55,-111 55,-99 55,-99 55,-93 61,-87 67,-87 67,-87 97,-87 97,-87 103,-87 109,-93 109,-99 109,-99 109,-111 109,-111 109,-117 103,-123 97,-123"/>
<text text-anchor="middle" x="82" y="-101.3" font-family="Times,serif" font-size="14.00">Y2</text>
</g>
<!-- Y1&#45;&gt;Y2 -->
<g id="edge3" class="edge">
<title>Y1&#45;&gt;Y2</title>
<path fill="none" stroke="#cdc9c9" stroke-width="2" d="M38.13,-173.8C45.96,-161.7 56.57,-145.3 65.39,-131.67"/>
<polygon fill="#cdc9c9" stroke="#cdc9c9" stroke-width="2" points="68.39,-133.47 70.89,-123.18 62.52,-129.67 68.39,-133.47"/>
<text text-anchor="middle" x="62" y="-144.8" font-family="Times,serif" font-size="14.00">0</text>
</g>
<!-- Y3 -->
<g id="node5" class="node">
<title>Y3</title>
<path fill="none" stroke="black" d="M58,-36C58,-36 28,-36 28,-36 22,-36 16,-30 16,-24 16,-24 16,-12 16,-12 16,-6 22,0 28,0 28,0 58,0 58,0 64,0 70,-6 70,-12 70,-12 70,-24 70,-24 70,-30 64,-36 58,-36"/>
<text text-anchor="middle" x="43" y="-14.3" font-family="Times,serif" font-size="14.00">Y3</text>
</g>
<!-- Y1&#45;&gt;Y3 -->
<g id="edge4" class="edge">
<title>Y1&#45;&gt;Y3</title>
<path fill="none" stroke="#cdc9c9" stroke-width="2" d="M28.41,-173.69C30.11,-153.05 33.11,-117.49 36,-87 37.27,-73.57 38.8,-58.65 40.1,-46.22"/>
<polygon fill="#cdc9c9" stroke="#cdc9c9" stroke-width="2" points="43.6,-46.35 41.17,-36.04 36.64,-45.62 43.6,-46.35"/>
<text text-anchor="middle" x="41" y="-101.3" font-family="Times,serif" font-size="14.00">0</text>
</g>
<!-- X2 -->
<g id="node3" class="node">
<title>X2</title>
<path fill="none" stroke="black" d="M114,-210C114,-210 84,-210 84,-210 78,-210 72,-204 72,-198 72,-198 72,-186 72,-186 72,-180 78,-174 84,-174 84,-174 114,-174 114,-174 120,-174 126,-180 126,-186 126,-186 126,-198 126,-198 126,-204 120,-210 114,-210"/>
<text text-anchor="middle" x="99" y="-188.3" font-family="Times,serif" font-size="14.00">X2</text>
</g>
<!-- X2&#45;&gt;Y2 -->
<g id="edge2" class="edge">
<title>X2&#45;&gt;Y2</title>
<path fill="none" stroke="#cdc9c9" stroke-width="2" d="M95.56,-173.8C93.23,-162.16 90.11,-146.55 87.45,-133.24"/>
<polygon fill="#cdc9c9" stroke="#cdc9c9" stroke-width="2" points="90.83,-132.29 85.44,-123.18 83.96,-133.67 90.83,-132.29"/>
<text text-anchor="middle" x="107" y="-144.8" font-family="Times,serif" font-size="14.00">0.06</text>
</g>
<!-- Y2&#45;&gt;Y3 -->
<g id="edge5" class="edge">
<title>Y2&#45;&gt;Y3</title>
<path fill="none" stroke="#cdc9c9" stroke-width="2" d="M74.11,-86.8C68.66,-74.93 61.32,-58.93 55.14,-45.45"/>
<polygon fill="#cdc9c9" stroke="#cdc9c9" stroke-width="2" points="58.23,-43.8 50.88,-36.18 51.87,-46.72 58.23,-43.8"/>
<text text-anchor="middle" x="80" y="-57.8" font-family="Times,serif" font-size="14.00">0.01</text>
</g>
</g>
</svg>
