<?xml version="1.0" encoding="UTF-8" standalone="no"?>
<!DOCTYPE svg PUBLIC "-//W3C//DTD SVG 1.1//EN"
 "http://www.w3.org/Graphics/SVG/1.1/DTD/svg11.dtd">
<!-- Generated by graphviz version 2.43.0 (0)
 -->
<!-- Title: G Pages: 1 -->
<svg width="140pt" height="311pt"
 viewBox="0.00 0.00 139.50 311.00" xmlns="http://www.w3.org/2000/svg" xmlns:xlink="http://www.w3.org/1999/xlink">
<g id="graph0" class="graph" transform="scale(1 1) rotate(0) translate(4 307)">
<title>G</title>
<polygon fill="white" stroke="transparent" points="-4,4 -4,-307 135.5,-307 135.5,4 -4,4"/>
<!-- X1 -->
<g id="node1" class="node">
<title>X1</title>
<path fill="#1a9850" stroke="black" d="M45,-303C45,-303 12,-303 12,-303 6,-303 0,-297 0,-291 0,-291 0,-277 0,-277 0,-271 6,-265 12,-265 12,-265 45,-265 45,-265 51,-265 57,-271 57,-277 57,-277 57,-291 57,-291 57,-297 51,-303 45,-303"/>
<text text-anchor="middle" x="28.5" y="-287.8" font-family="Times,serif" font-size="14.00">X1</text>
<text text-anchor="middle" x="28.5" y="-272.8" font-family="Times,serif" font-size="14.00">58.83</text>
</g>
<!-- Y1 -->
<g id="node2" class="node">
<title>Y1</title>
<path fill="#1a9850" stroke="black" d="M43.5,-214C43.5,-214 13.5,-214 13.5,-214 7.5,-214 1.5,-208 1.5,-202 1.5,-202 1.5,-188 1.5,-188 1.5,-182 7.5,-176 13.5,-176 13.5,-176 43.5,-176 43.5,-176 49.5,-176 55.5,-182 55.5,-188 55.5,-188 55.5,-202 55.5,-202 55.5,-208 49.5,-214 43.5,-214"/>
<text text-anchor="middle" x="28.5" y="-198.8" font-family="Times,serif" font-size="14.00">Y1</text>
<text text-anchor="middle" x="28.5" y="-183.8" font-family="Times,serif" font-size="14.00">2.1</text>
</g>
<!-- X1&#45;&gt;Y1 -->
<g id="edge1" class="edge">
<title>X1&#45;&gt;Y1</title>
<path fill="none" stroke="#1a9850" stroke-width="2" d="M28.5,-264.97C28.5,-253.19 28.5,-237.56 28.5,-224.16"/>
<polygon fill="#1a9850" stroke="#1a9850" stroke-width="2" points="32,-224 28.5,-214 25,-224 32,-224"/>
<text text-anchor="middle" x="49" y="-235.8" font-family="Times,serif" font-size="14.00">58.83</text>
</g>
<!-- Y2 -->
<g id="node4" class="node">
<title>Y2</title>
<path fill="#66bd63" stroke="black" d="M108.5,-125C108.5,-125 78.5,-125 78.5,-125 72.5,-125 66.5,-119 66.5,-113 66.5,-113 66.5,-99 66.5,-99 66.5,-93 72.5,-87 78.5,-87 78.5,-87 108.5,-87 108.5,-87 114.5,-87 120.5,-93 120.5,-99 120.5,-99 120.5,-113 120.5,-113 120.5,-119 114.5,-125 108.5,-125"/>
<text text-anchor="middle" x="93.5" y="-109.8" font-family="Times,serif" font-size="14.00">Y2</text>
<text text-anchor="middle" x="93.5" y="-94.8" font-family="Times,serif" font-size="14.00">1.35</text>
</g>
<!-- Y1&#45;&gt;Y2 -->
<g id="edge3" class="edge">
<title>Y1&#45;&gt;Y2</title>
<path fill="none" stroke="#1a9850" stroke-width="2" d="M41.97,-175.97C51.21,-163.61 63.61,-147 73.94,-133.18"/>
<polygon fill="#1a9850" stroke="#1a9850" stroke-width="2" points="76.87,-135.11 80.05,-125 71.26,-130.92 76.87,-135.11"/>
<text text-anchor="middle" x="76" y="-146.8" font-family="Times,serif" font-size="14.00">2.1</text>
</g>
<!-- Y3 -->
<g id="node5" class="node">
<title>Y3</title>
<path fill="none" stroke="black" d="M56.5,-36C56.5,-36 26.5,-36 26.5,-36 20.5,-36 14.5,-30 14.5,-24 14.5,-24 14.5,-12 14.5,-12 14.5,-6 20.5,0 26.5,0 26.5,0 56.5,0 56.5,0 62.5,0 68.5,-6 68.5,-12 68.5,-12 68.5,-24 68.5,-24 68.5,-30 62.5,-36 56.5,-36"/>
<text text-anchor="middle" x="41.5" y="-14.3" font-family="Times,serif" font-size="14.00">Y3</text>
</g>
<!-- Y1&#45;&gt;Y3 -->
<g id="edge4" class="edge">
<title>Y1&#45;&gt;Y3</title>
<path fill="none" stroke="#1a9850" stroke-width="2" d="M29.26,-175.81C30.21,-154.5 32.02,-118.16 34.5,-87 35.57,-73.55 37.07,-58.63 38.41,-46.21"/>
<polygon fill="#1a9850" stroke="#1a9850" stroke-width="2" points="41.91,-46.35 39.53,-36.03 34.95,-45.58 41.91,-46.35"/>
<text text-anchor="middle" x="46" y="-102.3" font-family="Times,serif" font-size="14.00">2.1</text>
</g>
<!-- X2 -->
<g id="node3" class="node">
<title>X2</title>
<path fill="#1a9850" stroke="black" d="M119.5,-214C119.5,-214 89.5,-214 89.5,-214 83.5,-214 77.5,-208 77.5,-202 77.5,-202 77.5,-188 77.5,-188 77.5,-182 83.5,-176 89.5,-176 89.5,-176 119.5,-176 119.5,-176 125.5,-176 131.5,-182 131.5,-188 131.5,-188 131.5,-202 131.5,-202 131.5,-208 125.5,-214 119.5,-214"/>
<text text-anchor="middle" x="104.5" y="-198.8" font-family="Times,serif" font-size="14.00">X2</text>
<text text-anchor="middle" x="104.5" y="-183.8" font-family="Times,serif" font-size="14.00">5.28</text>
</g>
<!-- X2&#45;&gt;Y2 -->
<g id="edge2" class="edge">
<title>X2&#45;&gt;Y2</title>
<path fill="none" stroke="#1a9850" stroke-width="2" d="M102.22,-175.97C100.73,-164.19 98.75,-148.56 97.06,-135.16"/>
<polygon fill="#1a9850" stroke="#1a9850" stroke-width="2" points="100.5,-134.49 95.78,-125 93.56,-135.36 100.5,-134.49"/>
<text text-anchor="middle" x="115.5" y="-146.8" font-family="Times,serif" font-size="14.00">5.28</text>
</g>
<!-- Y2&#45;&gt;Y3 -->
<g id="edge5" class="edge">
<title>Y2&#45;&gt;Y3</title>
<path fill="none" stroke="#66bd63" stroke-width="2" d="M82.47,-86.76C75.11,-74.58 65.31,-58.38 57.15,-44.88"/>
<polygon fill="#66bd63" stroke="#66bd63" stroke-width="2" points="59.97,-42.79 51.8,-36.04 53.98,-46.41 59.97,-42.79"/>
<text text-anchor="middle" x="86.5" y="-57.8" font-family="Times,serif" font-size="14.00">1.35</text>
</g>
</g>
</svg>
