<?xml version="1.0" encoding="UTF-8" standalone="no"?>
<!DOCTYPE svg PUBLIC "-//W3C//DTD SVG 1.1//EN"
 "http://www.w3.org/Graphics/SVG/1.1/DTD/svg11.dtd">
<!-- Generated by graphviz version 2.43.0 (0)
 -->
<!-- Title: G Pages: 1 -->
<svg width="142pt" height="311pt"
 viewBox="0.00 0.00 142.00 311.00" xmlns="http://www.w3.org/2000/svg" xmlns:xlink="http://www.w3.org/1999/xlink">
<g id="graph0" class="graph" transform="scale(1 1) rotate(0) translate(4 307)">
<title>G</title>
<polygon fill="white" stroke="transparent" points="-4,4 -4,-307 138,-307 138,4 -4,4"/>
<!-- X1 -->
<g id="node1" class="node">
<title>X1</title>
<path fill="#fee08b" stroke="black" d="M42,-303C42,-303 12,-303 12,-303 6,-303 0,-297 0,-291 0,-291 0,-277 0,-277 0,-271 6,-265 12,-265 12,-265 42,-265 42,-265 48,-265 54,-271 54,-277 54,-277 54,-291 54,-291 54,-297 48,-303 42,-303"/>
<text text-anchor="middle" x="27" y="-287.8" font-family="Times,serif" font-size="14.00">X1</text>
<text text-anchor="middle" x="27" y="-272.8" font-family="Times,serif" font-size="14.00">0.52</text>
</g>
<!-- Y1 -->
<g id="node2" class="node">
<title>Y1</title>
<path fill="#cdc9c9" stroke="black" d="M42,-214C42,-214 12,-214 12,-214 6,-214 0,-208 0,-202 0,-202 0,-188 0,-188 0,-182 6,-176 12,-176 12,-176 42,-176 42,-176 48,-176 54,-182 54,-188 54,-188 54,-202 54,-202 54,-208 48,-214 42,-214"/>
<text text-anchor="middle" x="27" y="-198.8" font-family="Times,serif" font-size="14.00">Y1</text>
<text text-anchor="middle" x="27" y="-183.8" font-family="Times,serif" font-size="14.00">0.01</text>
</g>
<!-- X1&#45;&gt;Y1 -->
<g id="edge1" class="edge">
<title>X1&#45;&gt;Y1</title>
<path fill="none" stroke="#fee08b" stroke-width="2" d="M27,-264.97C27,-253.19 27,-237.56 27,-224.16"/>
<polygon fill="#fee08b" stroke="#fee08b" stroke-width="2" points="30.5,-224 27,-214 23.5,-224 30.5,-224"/>
<text text-anchor="middle" x="43" y="-235.8" font-family="Times,serif" font-size="14.00">0.52</text>
</g>
<!-- Y2 -->
<g id="node4" class="node">
<title>Y2</title>
<path fill="#cdc9c9" stroke="black" d="M111,-125C111,-125 81,-125 81,-125 75,-125 69,-119 69,-113 69,-113 69,-99 69,-99 69,-93 75,-87 81,-87 81,-87 111,-87 111,-87 117,-87 123,-93 123,-99 123,-99 123,-113 123,-113 123,-119 117,-125 111,-125"/>
<text text-anchor="middle" x="96" y="-109.8" font-family="Times,serif" font-size="14.00">Y2</text>
<text text-anchor="middle" x="96" y="-94.8" font-family="Times,serif" font-size="14.00">0.01</text>
</g>
<!-- Y1&#45;&gt;Y2 -->
<g id="edge3" class="edge">
<title>Y1&#45;&gt;Y2</title>
<path fill="none" stroke="#cdc9c9" stroke-width="2" d="M39.59,-175.74C46.55,-165.87 55.5,-153.57 64,-143 66.71,-139.63 69.63,-136.15 72.57,-132.74"/>
<polygon fill="#cdc9c9" stroke="#cdc9c9" stroke-width="2" points="75.39,-134.83 79.36,-125.01 70.13,-130.21 75.39,-134.83"/>
<text text-anchor="middle" x="80" y="-146.8" font-family="Times,serif" font-size="14.00">0.01</text>
</g>
<!-- Y3 -->
<g id="node5" class="node">
<title>Y3</title>
<path fill="none" stroke="black" d="M50,-36C50,-36 20,-36 20,-36 14,-36 8,-30 8,-24 8,-24 8,-12 8,-12 8,-6 14,0 20,0 20,0 50,0 50,0 56,0 62,-6 62,-12 62,-12 62,-24 62,-24 62,-30 56,-36 50,-36"/>
<text text-anchor="middle" x="35" y="-14.3" font-family="Times,serif" font-size="14.00">Y3</text>
</g>
<!-- Y1&#45;&gt;Y3 -->
<g id="edge4" class="edge">
<title>Y1&#45;&gt;Y3</title>
<path fill="none" stroke="#cdc9c9" stroke-width="2" d="M26.65,-175.81C26.37,-154.5 26.25,-118.16 28,-87 28.75,-73.53 30.22,-58.61 31.62,-46.19"/>
<polygon fill="#cdc9c9" stroke="#cdc9c9" stroke-width="2" points="35.12,-46.35 32.8,-36.01 28.17,-45.54 35.12,-46.35"/>
<text text-anchor="middle" x="44" y="-102.3" font-family="Times,serif" font-size="14.00">0.01</text>
</g>
<!-- X2 -->
<g id="node3" class="node">
<title>X2</title>
<path fill="#fee08b" stroke="black" d="M122,-214C122,-214 92,-214 92,-214 86,-214 80,-208 80,-202 80,-202 80,-188 80,-188 80,-182 86,-176 92,-176 92,-176 122,-176 122,-176 128,-176 134,-182 134,-188 134,-188 134,-202 134,-202 134,-208 128,-214 122,-214"/>
<text text-anchor="middle" x="107" y="-198.8" font-family="Times,serif" font-size="14.00">X2</text>
<text text-anchor="middle" x="107" y="-183.8" font-family="Times,serif" font-size="14.00">0.27</text>
</g>
<!-- X2&#45;&gt;Y2 -->
<g id="edge2" class="edge">
<title>X2&#45;&gt;Y2</title>
<path fill="none" stroke="#fee08b" stroke-width="2" d="M104.72,-175.97C103.23,-164.19 101.25,-148.56 99.56,-135.16"/>
<polygon fill="#fee08b" stroke="#fee08b" stroke-width="2" points="103,-134.49 98.28,-125 96.06,-135.36 103,-134.49"/>
<text text-anchor="middle" x="118" y="-146.8" font-family="Times,serif" font-size="14.00">0.27</text>
</g>
<!-- Y2&#45;&gt;Y3 -->
<g id="edge5" class="edge">
<title>Y2&#45;&gt;Y3</title>
<path fill="none" stroke="#cdc9c9" stroke-width="2" d="M83.06,-86.76C74.34,-74.47 62.71,-58.07 53.08,-44.49"/>
<polygon fill="#cdc9c9" stroke="#cdc9c9" stroke-width="2" points="55.73,-42.17 47.09,-36.04 50.02,-46.22 55.73,-42.17"/>
<text text-anchor="middle" x="85" y="-57.8" font-family="Times,serif" font-size="14.00">0.01</text>
</g>
</g>
</svg>
