<?xml version="1.0" encoding="UTF-8" standalone="no"?>
<!DOCTYPE svg PUBLIC "-//W3C//DTD SVG 1.1//EN"
 "http://www.w3.org/Graphics/SVG/1.1/DTD/svg11.dtd">
<!-- Generated by graphviz version 2.43.0 (0)
 -->
<!-- Title: G Pages: 1 -->
<svg width="149pt" height="313pt"
 viewBox="0.00 0.00 148.50 313.00" xmlns="http://www.w3.org/2000/svg" xmlns:xlink="http://www.w3.org/1999/xlink">
<g id="graph0" class="graph" transform="scale(1 1) rotate(0) translate(4 309)">
<title>G</title>
<polygon fill="white" stroke="transparent" points="-4,4 -4,-309 144.5,-309 144.5,4 -4,4"/>
<!-- X1 -->
<g id="node1" class="node">
<title>X1</title>
<path fill="none" stroke="black" d="M45,-305C45,-305 12,-305 12,-305 6,-305 0,-299 0,-293 0,-293 0,-279 0,-279 0,-273 6,-267 12,-267 12,-267 45,-267 45,-267 51,-267 57,-273 57,-279 57,-279 57,-293 57,-293 57,-299 51,-305 45,-305"/>
<text text-anchor="middle" x="28.5" y="-289.8" font-family="Times,serif" font-size="14.00">X1</text>
<text text-anchor="middle" x="28.5" y="-274.8" font-family="Times,serif" font-size="14.00">13.04</text>
</g>
<!-- Y1 -->
<g id="node2" class="node">
<title>Y1</title>
<path fill="none" stroke="black" d="M45,-216C45,-216 12,-216 12,-216 6,-216 0,-210 0,-204 0,-204 0,-190 0,-190 0,-184 6,-178 12,-178 12,-178 45,-178 45,-178 51,-178 57,-184 57,-190 57,-190 57,-204 57,-204 57,-210 51,-216 45,-216"/>
<text text-anchor="middle" x="28.5" y="-200.8" font-family="Times,serif" font-size="14.00">Y1</text>
<text text-anchor="middle" x="28.5" y="-185.8" font-family="Times,serif" font-size="14.00">12.99</text>
</g>
<!-- X1&#45;&gt;Y1 -->
<g id="edge1" class="edge">
<title>X1&#45;&gt;Y1</title>
<path fill="none" stroke="black" d="M28.5,-266.97C28.5,-255.19 28.5,-239.56 28.5,-226.16"/>
<polygon fill="black" stroke="black" points="32,-226 28.5,-216 25,-226 32,-226"/>
<text text-anchor="middle" x="49" y="-237.8" font-family="Times,serif" font-size="14.00">13.04</text>
</g>
<!-- Y2 -->
<g id="node4" class="node">
<title>Y2</title>
<path fill="none" stroke="black" d="M86.5,-127C86.5,-127 56.5,-127 56.5,-127 50.5,-127 44.5,-121 44.5,-115 44.5,-115 44.5,-101 44.5,-101 44.5,-95 50.5,-89 56.5,-89 56.5,-89 86.5,-89 86.5,-89 92.5,-89 98.5,-95 98.5,-101 98.5,-101 98.5,-115 98.5,-115 98.5,-121 92.5,-127 86.5,-127"/>
<text text-anchor="middle" x="71.5" y="-111.8" font-family="Times,serif" font-size="14.00">Y2</text>
<text text-anchor="middle" x="71.5" y="-96.8" font-family="Times,serif" font-size="14.00">1</text>
</g>
<!-- Y1&#45;&gt;Y2 -->
<g id="edge3" class="edge">
<title>Y1&#45;&gt;Y2</title>
<path fill="none" stroke="black" d="M33.69,-177.57C36.81,-167.65 41.19,-155.36 46.5,-145 48.11,-141.86 49.96,-138.67 51.9,-135.56"/>
<polygon fill="black" stroke="black" points="54.91,-137.36 57.53,-127.09 49.08,-133.48 54.91,-137.36"/>
<text text-anchor="middle" x="67" y="-148.8" font-family="Times,serif" font-size="14.00">11.98</text>
</g>
<!-- Y3 -->
<g id="node5" class="node">
<title>Y3</title>
<path fill="none" stroke="black" d="M47.5,-38C47.5,-38 17.5,-38 17.5,-38 11.5,-38 5.5,-32 5.5,-26 5.5,-26 5.5,-12 5.5,-12 5.5,-6 11.5,0 17.5,0 17.5,0 47.5,0 47.5,0 53.5,0 59.5,-6 59.5,-12 59.5,-12 59.5,-26 59.5,-26 59.5,-32 53.5,-38 47.5,-38"/>
<text text-anchor="middle" x="32.5" y="-22.8" font-family="Times,serif" font-size="14.00">Y3</text>
<text text-anchor="middle" x="32.5" y="-7.8" font-family="Times,serif" font-size="14.00">1</text>
</g>
<!-- Y1&#45;&gt;Y3 -->
<g id="edge4" class="edge">
<title>Y1&#45;&gt;Y3</title>
<path fill="none" stroke="black" d="M27.12,-177.82C25.71,-156.52 23.92,-120.18 25.5,-89 26.18,-75.61 27.59,-60.81 28.97,-48.36"/>
<polygon fill="black" stroke="black" points="32.48,-48.46 30.16,-38.12 25.53,-47.65 32.48,-48.46"/>
<text text-anchor="middle" x="30.5" y="-104.3" font-family="Times,serif" font-size="14.00">1</text>
</g>
<!-- X2 -->
<g id="node3" class="node">
<title>X2</title>
<path fill="none" stroke="black" d="M128.5,-216C128.5,-216 98.5,-216 98.5,-216 92.5,-216 86.5,-210 86.5,-204 86.5,-204 86.5,-190 86.5,-190 86.5,-184 92.5,-178 98.5,-178 98.5,-178 128.5,-178 128.5,-178 134.5,-178 140.5,-184 140.5,-190 140.5,-190 140.5,-204 140.5,-204 140.5,-210 134.5,-216 128.5,-216"/>
<text text-anchor="middle" x="113.5" y="-200.8" font-family="Times,serif" font-size="14.00">X2</text>
<text text-anchor="middle" x="113.5" y="-185.8" font-family="Times,serif" font-size="14.00">1.05</text>
</g>
<!-- X2&#45;&gt;Y2 -->
<g id="edge2" class="edge">
<title>X2&#45;&gt;Y2</title>
<path fill="none" stroke="black" d="M106.19,-177.86C102.1,-168.03 96.78,-155.73 91.5,-145 90.05,-142.05 88.47,-139 86.86,-135.97"/>
<polygon fill="black" stroke="black" points="89.9,-134.23 82.03,-127.13 83.75,-137.58 89.9,-134.23"/>
<text text-anchor="middle" x="113.5" y="-148.8" font-family="Times,serif" font-size="14.00">1.05</text>
</g>
<!-- Y2&#45;&gt;Y3 -->
<g id="edge5" class="edge">
<title>Y2&#45;&gt;Y3</title>
<path fill="none" stroke="black" d="M63.42,-88.97C58.03,-76.96 50.85,-60.94 44.77,-47.36"/>
<polygon fill="black" stroke="black" points="47.85,-45.7 40.57,-38 41.47,-48.56 47.85,-45.7"/>
<text text-anchor="middle" x="59.5" y="-59.8" font-family="Times,serif" font-size="14.00">1</text>
</g>
</g>
</svg>
