<?xml version="1.0" encoding="UTF-8" standalone="no"?>
<!DOCTYPE svg PUBLIC "-//W3C//DTD SVG 1.1//EN"
 "http://www.w3.org/Graphics/SVG/1.1/DTD/svg11.dtd">
<!-- Generated by graphviz version 2.43.0 (0)
 -->
<!-- Title: G Pages: 1 -->
<svg width="261pt" height="305pt"
 viewBox="0.00 0.00 261.00 305.00" xmlns="http://www.w3.org/2000/svg" xmlns:xlink="http://www.w3.org/1999/xlink">
<g id="graph0" class="graph" transform="scale(1 1) rotate(0) translate(4 301)">
<title>G</title>
<polygon fill="white" stroke="transparent" points="-4,4 -4,-301 257,-301 257,4 -4,4"/>
<!-- X1 -->
<g id="node1" class="node">
<title>X1</title>
<path fill="none" stroke="black" d="M105,-297C105,-297 75,-297 75,-297 69,-297 63,-291 63,-285 63,-285 63,-273 63,-273 63,-267 69,-261 75,-261 75,-261 105,-261 105,-261 111,-261 117,-267 117,-273 117,-273 117,-285 117,-285 117,-291 111,-297 105,-297"/>
<text text-anchor="middle" x="90" y="-275.3" font-family="Times,serif" font-size="14.00">X1</text>
</g>
<!-- Y1 -->
<g id="node2" class="node">
<title>Y1</title>
<path fill="none" stroke="black" d="M42,-210C42,-210 12,-210 12,-210 6,-210 0,-204 0,-198 0,-198 0,-186 0,-186 0,-180 6,-174 12,-174 12,-174 42,-174 42,-174 48,-174 54,-180 54,-186 54,-186 54,-198 54,-198 54,-204 48,-210 42,-210"/>
<text text-anchor="middle" x="27" y="-188.3" font-family="Times,serif" font-size="14.00">Y1</text>
</g>
<!-- X1&#45;&gt;Y1 -->
<g id="edge1" class="edge">
<title>X1&#45;&gt;Y1</title>
<path fill="none" stroke="#1a9850" stroke-width="2" d="M69.55,-260.95C63.79,-255.56 57.79,-249.35 53,-243 47.49,-235.7 42.54,-227.07 38.48,-219.05"/>
<polygon fill="#1a9850" stroke="#1a9850" stroke-width="2" points="41.62,-217.52 34.13,-210.03 35.32,-220.56 41.62,-217.52"/>
<text text-anchor="middle" x="64.5" y="-231.8" font-family="Times,serif" font-size="14.00">2.1</text>
</g>
<!-- Y2 -->
<g id="node3" class="node">
<title>Y2</title>
<path fill="none" stroke="black" d="M119,-123C119,-123 89,-123 89,-123 83,-123 77,-117 77,-111 77,-111 77,-99 77,-99 77,-93 83,-87 89,-87 89,-87 119,-87 119,-87 125,-87 131,-93 131,-99 131,-99 131,-111 131,-111 131,-117 125,-123 119,-123"/>
<text text-anchor="middle" x="104" y="-101.3" font-family="Times,serif" font-size="14.00">Y2</text>
</g>
<!-- X1&#45;&gt;Y2 -->
<g id="edge2" class="edge">
<title>X1&#45;&gt;Y2</title>
<path fill="none" stroke="#1a9850" stroke-width="2" d="M91.39,-260.88C93.83,-231 98.86,-169.11 101.78,-133.27"/>
<polygon fill="#1a9850" stroke="#1a9850" stroke-width="2" points="105.29,-133.3 102.61,-123.05 98.31,-132.73 105.29,-133.3"/>
<text text-anchor="middle" x="114" y="-188.3" font-family="Times,serif" font-size="14.00">2.04</text>
</g>
<!-- Y3 -->
<g id="node5" class="node">
<title>Y3</title>
<path fill="none" stroke="black" d="M158,-36C158,-36 128,-36 128,-36 122,-36 116,-30 116,-24 116,-24 116,-12 116,-12 116,-6 122,0 128,0 128,0 158,0 158,0 164,0 170,-6 170,-12 170,-12 170,-24 170,-24 170,-30 164,-36 158,-36"/>
<text text-anchor="middle" x="143" y="-14.3" font-family="Times,serif" font-size="14.00">Y3</text>
</g>
<!-- X1&#45;&gt;Y3 -->
<g id="edge4" class="edge">
<title>X1&#45;&gt;Y3</title>
<path fill="none" stroke="#1a9850" stroke-width="2" d="M117.09,-270.6C144.77,-261.43 186.27,-242.84 205,-210 213.98,-194.25 216.67,-126.68 201,-87 194.5,-70.54 182.29,-55.26 170.74,-43.36"/>
<polygon fill="#1a9850" stroke="#1a9850" stroke-width="2" points="172.89,-40.57 163.31,-36.06 167.98,-45.56 172.89,-40.57"/>
<text text-anchor="middle" x="232.5" y="-144.8" font-family="Times,serif" font-size="14.00">58.83</text>
</g>
<!-- Y1&#45;&gt;Y2 -->
<g id="edge6" class="edge">
<title>Y1&#45;&gt;Y2</title>
<path fill="none" stroke="#1a9850" stroke-width="2" d="M39.34,-173.77C46.7,-163.86 56.45,-151.36 66,-141 69.32,-137.4 72.95,-133.74 76.61,-130.21"/>
<polygon fill="#1a9850" stroke="#1a9850" stroke-width="2" points="79.17,-132.61 84.08,-123.22 74.39,-127.5 79.17,-132.61"/>
<text text-anchor="middle" x="71" y="-144.8" font-family="Times,serif" font-size="14.00">2</text>
</g>
<!-- Y1&#45;&gt;Y3 -->
<g id="edge7" class="edge">
<title>Y1&#45;&gt;Y3</title>
<path fill="none" stroke="#1a9850" stroke-width="2" d="M26.07,-173.72C25.73,-151.83 27.95,-113.73 45,-87 59.65,-64.03 85.12,-46.72 106.42,-35.31"/>
<polygon fill="#1a9850" stroke="#1a9850" stroke-width="2" points="108.25,-38.3 115.55,-30.63 105.06,-32.07 108.25,-38.3"/>
<text text-anchor="middle" x="56.5" y="-101.3" font-family="Times,serif" font-size="14.00">2.1</text>
</g>
<!-- Y2&#45;&gt;Y3 -->
<g id="edge8" class="edge">
<title>Y2&#45;&gt;Y3</title>
<path fill="none" stroke="#66bd63" stroke-width="2" d="M110.36,-86.66C114.07,-76.94 118.99,-64.66 124,-54 125.34,-51.15 126.8,-48.21 128.3,-45.29"/>
<polygon fill="#66bd63" stroke="#66bd63" stroke-width="2" points="131.51,-46.71 133.12,-36.24 125.33,-43.42 131.51,-46.71"/>
<text text-anchor="middle" x="140" y="-57.8" font-family="Times,serif" font-size="14.00">1.35</text>
</g>
<!-- X2 -->
<g id="node4" class="node">
<title>X2</title>
<path fill="none" stroke="black" d="M184,-210C184,-210 154,-210 154,-210 148,-210 142,-204 142,-198 142,-198 142,-186 142,-186 142,-180 148,-174 154,-174 154,-174 184,-174 184,-174 190,-174 196,-180 196,-186 196,-186 196,-198 196,-198 196,-204 190,-210 184,-210"/>
<text text-anchor="middle" x="169" y="-188.3" font-family="Times,serif" font-size="14.00">X2</text>
</g>
<!-- X2&#45;&gt;Y2 -->
<g id="edge3" class="edge">
<title>X2&#45;&gt;Y2</title>
<path fill="none" stroke="#66bd63" stroke-width="2" d="M142.13,-173.83C135.56,-168.69 129,-162.64 124,-156 118.86,-149.17 114.84,-140.85 111.8,-132.96"/>
<polygon fill="#66bd63" stroke="#66bd63" stroke-width="2" points="115.05,-131.65 108.45,-123.36 108.44,-133.95 115.05,-131.65"/>
<text text-anchor="middle" x="140" y="-144.8" font-family="Times,serif" font-size="14.00">1.31</text>
</g>
<!-- X2&#45;&gt;Y3 -->
<g id="edge5" class="edge">
<title>X2&#45;&gt;Y3</title>
<path fill="none" stroke="#1a9850" stroke-width="2" d="M168.8,-173.9C168.18,-147.75 165.71,-96.39 156,-54 155.38,-51.31 154.61,-48.54 153.76,-45.81"/>
<polygon fill="#1a9850" stroke="#1a9850" stroke-width="2" points="156.99,-44.46 150.39,-36.17 150.38,-46.77 156.99,-44.46"/>
<text text-anchor="middle" x="181" y="-101.3" font-family="Times,serif" font-size="14.00">5.28</text>
</g>
</g>
</svg>
