<?xml version="1.0" encoding="UTF-8" standalone="no"?>
<!DOCTYPE svg PUBLIC "-//W3C//DTD SVG 1.1//EN"
 "http://www.w3.org/Graphics/SVG/1.1/DTD/svg11.dtd">
<!-- Generated by graphviz version 2.43.0 (0)
 -->
<!-- Title: G Pages: 1 -->
<svg width="252pt" height="305pt"
 viewBox="0.00 0.00 252.00 305.00" xmlns="http://www.w3.org/2000/svg" xmlns:xlink="http://www.w3.org/1999/xlink">
<g id="graph0" class="graph" transform="scale(1 1) rotate(0) translate(4 301)">
<title>G</title>
<polygon fill="white" stroke="transparent" points="-4,4 -4,-301 248,-301 248,4 -4,4"/>
<!-- X1 -->
<g id="node1" class="node">
<title>X1</title>
<path fill="none" stroke="black" d="M105,-297C105,-297 75,-297 75,-297 69,-297 63,-291 63,-285 63,-285 63,-273 63,-273 63,-267 69,-261 75,-261 75,-261 105,-261 105,-261 111,-261 117,-267 117,-273 117,-273 117,-285 117,-285 117,-291 111,-297 105,-297"/>
<text text-anchor="middle" x="90" y="-275.3" font-family="Times,serif" font-size="14.00">X1</text>
</g>
<!-- Y1 -->
<g id="node2" class="node">
<title>Y1</title>
<path fill="none" stroke="black" d="M42,-210C42,-210 12,-210 12,-210 6,-210 0,-204 0,-198 0,-198 0,-186 0,-186 0,-180 6,-174 12,-174 12,-174 42,-174 42,-174 48,-174 54,-180 54,-186 54,-186 54,-198 54,-198 54,-204 48,-210 42,-210"/>
<text text-anchor="middle" x="27" y="-188.3" font-family="Times,serif" font-size="14.00">Y1</text>
</g>
<!-- X1&#45;&gt;Y1 -->
<g id="edge1" class="edge">
<title>X1&#45;&gt;Y1</title>
<path fill="none" stroke="#cdc9c9" stroke-width="2" d="M62.76,-261.46C55.89,-256.25 49.04,-250 44,-243 39.16,-236.27 35.62,-228.06 33.06,-220.26"/>
<polygon fill="#cdc9c9" stroke="#cdc9c9" stroke-width="2" points="36.35,-219.04 30.24,-210.38 29.62,-220.96 36.35,-219.04"/>
<text text-anchor="middle" x="60" y="-231.8" font-family="Times,serif" font-size="14.00">0.01</text>
</g>
<!-- Y2 -->
<g id="node3" class="node">
<title>Y2</title>
<path fill="none" stroke="black" d="M121,-123C121,-123 91,-123 91,-123 85,-123 79,-117 79,-111 79,-111 79,-99 79,-99 79,-93 85,-87 91,-87 91,-87 121,-87 121,-87 127,-87 133,-93 133,-99 133,-99 133,-111 133,-111 133,-117 127,-123 121,-123"/>
<text text-anchor="middle" x="106" y="-101.3" font-family="Times,serif" font-size="14.00">Y2</text>
</g>
<!-- X1&#45;&gt;Y2 -->
<g id="edge2" class="edge">
<title>X1&#45;&gt;Y2</title>
<path fill="none" stroke="#cdc9c9" stroke-width="2" d="M91.59,-260.88C94.37,-231 100.13,-169.11 103.46,-133.27"/>
<polygon fill="#cdc9c9" stroke="#cdc9c9" stroke-width="2" points="106.97,-133.33 104.41,-123.05 100,-132.68 106.97,-133.33"/>
<text text-anchor="middle" x="115" y="-188.3" font-family="Times,serif" font-size="14.00">0.01</text>
</g>
<!-- Y3 -->
<g id="node5" class="node">
<title>Y3</title>
<path fill="none" stroke="black" d="M160,-36C160,-36 130,-36 130,-36 124,-36 118,-30 118,-24 118,-24 118,-12 118,-12 118,-6 124,0 130,0 130,0 160,0 160,0 166,0 172,-6 172,-12 172,-12 172,-24 172,-24 172,-30 166,-36 160,-36"/>
<text text-anchor="middle" x="145" y="-14.3" font-family="Times,serif" font-size="14.00">Y3</text>
</g>
<!-- X1&#45;&gt;Y3 -->
<g id="edge4" class="edge">
<title>X1&#45;&gt;Y3</title>
<path fill="none" stroke="#fee08b" stroke-width="2" d="M117.09,-270.6C144.77,-261.43 186.27,-242.84 205,-210 213.89,-194.42 216.43,-127.09 201,-87 194.74,-70.73 182.94,-55.46 171.79,-43.53"/>
<polygon fill="#fee08b" stroke="#fee08b" stroke-width="2" points="174.11,-40.9 164.61,-36.2 169.1,-45.79 174.11,-40.9"/>
<text text-anchor="middle" x="228" y="-144.8" font-family="Times,serif" font-size="14.00">0.52</text>
</g>
<!-- Y1&#45;&gt;Y2 -->
<g id="edge6" class="edge">
<title>Y1&#45;&gt;Y2</title>
<path fill="none" stroke="#cdc9c9" stroke-width="2" d="M39.24,-173.68C46.57,-163.74 56.32,-151.24 66,-141 69.55,-137.24 73.47,-133.45 77.42,-129.82"/>
<polygon fill="#cdc9c9" stroke="#cdc9c9" stroke-width="2" points="79.83,-132.36 84.96,-123.09 75.17,-127.13 79.83,-132.36"/>
<text text-anchor="middle" x="71" y="-144.8" font-family="Times,serif" font-size="14.00">0</text>
</g>
<!-- Y1&#45;&gt;Y3 -->
<g id="edge7" class="edge">
<title>Y1&#45;&gt;Y3</title>
<path fill="none" stroke="#cdc9c9" stroke-width="2" d="M24.5,-173.71C22.24,-151.8 21.45,-113.7 38,-87 54.08,-61.07 84.11,-43.29 108.27,-32.43"/>
<polygon fill="#cdc9c9" stroke="#cdc9c9" stroke-width="2" points="109.72,-35.62 117.54,-28.47 106.97,-29.18 109.72,-35.62"/>
<text text-anchor="middle" x="54" y="-101.3" font-family="Times,serif" font-size="14.00">0.01</text>
</g>
<!-- Y2&#45;&gt;Y3 -->
<g id="edge8" class="edge">
<title>Y2&#45;&gt;Y3</title>
<path fill="none" stroke="#cdc9c9" stroke-width="2" d="M111.36,-86.54C114.58,-76.78 119.02,-64.5 124,-54 125.43,-50.99 127.04,-47.91 128.72,-44.88"/>
<polygon fill="#cdc9c9" stroke="#cdc9c9" stroke-width="2" points="131.83,-46.48 133.84,-36.08 125.79,-42.96 131.83,-46.48"/>
<text text-anchor="middle" x="140" y="-57.8" font-family="Times,serif" font-size="14.00">0.01</text>
</g>
<!-- X2 -->
<g id="node4" class="node">
<title>X2</title>
<path fill="none" stroke="black" d="M184,-210C184,-210 154,-210 154,-210 148,-210 142,-204 142,-198 142,-198 142,-186 142,-186 142,-180 148,-174 154,-174 154,-174 184,-174 184,-174 190,-174 196,-180 196,-186 196,-186 196,-198 196,-198 196,-204 190,-210 184,-210"/>
<text text-anchor="middle" x="169" y="-188.3" font-family="Times,serif" font-size="14.00">X2</text>
</g>
<!-- X2&#45;&gt;Y2 -->
<g id="edge3" class="edge">
<title>X2&#45;&gt;Y2</title>
<path fill="none" stroke="#cdc9c9" stroke-width="2" d="M141.97,-173.95C135.41,-168.81 128.88,-162.73 124,-156 119.05,-149.17 115.34,-140.85 112.61,-132.96"/>
<polygon fill="#cdc9c9" stroke="#cdc9c9" stroke-width="2" points="115.95,-131.9 109.67,-123.36 109.25,-133.95 115.95,-131.9"/>
<text text-anchor="middle" x="140" y="-144.8" font-family="Times,serif" font-size="14.00">0.06</text>
</g>
<!-- X2&#45;&gt;Y3 -->
<g id="edge5" class="edge">
<title>X2&#45;&gt;Y3</title>
<path fill="none" stroke="#fee08b" stroke-width="2" d="M168.53,-173.96C167.55,-147.88 164.62,-96.62 156,-54 155.46,-51.34 154.8,-48.6 154.07,-45.87"/>
<polygon fill="#fee08b" stroke="#fee08b" stroke-width="2" points="157.41,-44.85 151.21,-36.26 150.7,-46.84 157.41,-44.85"/>
<text text-anchor="middle" x="181" y="-101.3" font-family="Times,serif" font-size="14.00">0.27</text>
</g>
</g>
</svg>
