<?xml version="1.0" encoding="UTF-8" standalone="no"?>
<!DOCTYPE svg PUBLIC "-//W3C//DTD SVG 1.1//EN"
 "http://www.w3.org/Graphics/SVG/1.1/DTD/svg11.dtd">
<!-- Generated by graphviz version 2.43.0 (0)
 -->
<!-- Title: G Pages: 1 -->
<svg width="265pt" height="305pt"
 viewBox="0.00 0.00 265.00 305.00" xmlns="http://www.w3.org/2000/svg" xmlns:xlink="http://www.w3.org/1999/xlink">
<g id="graph0" class="graph" transform="scale(1 1) rotate(0) translate(4 301)">
<title>G</title>
<polygon fill="white" stroke="transparent" points="-4,4 -4,-301 261,-301 261,4 -4,4"/>
<!-- X1 -->
<g id="node1" class="node">
<title>X1</title>
<path fill="none" stroke="black" d="M105,-297C105,-297 75,-297 75,-297 69,-297 63,-291 63,-285 63,-285 63,-273 63,-273 63,-267 69,-261 75,-261 75,-261 105,-261 105,-261 111,-261 117,-267 117,-273 117,-273 117,-285 117,-285 117,-291 111,-297 105,-297"/>
<text text-anchor="middle" x="90" y="-275.3" font-family="Times,serif" font-size="14.00">X1</text>
</g>
<!-- Y1 -->
<g id="node2" class="node">
<title>Y1</title>
<path fill="none" stroke="black" d="M42,-210C42,-210 12,-210 12,-210 6,-210 0,-204 0,-198 0,-198 0,-186 0,-186 0,-180 6,-174 12,-174 12,-174 42,-174 42,-174 48,-174 54,-180 54,-186 54,-186 54,-198 54,-198 54,-204 48,-210 42,-210"/>
<text text-anchor="middle" x="27" y="-188.3" font-family="Times,serif" font-size="14.00">Y1</text>
</g>
<!-- X1&#45;&gt;Y1 -->
<g id="edge1" class="edge">
<title>X1&#45;&gt;Y1</title>
<path fill="none" stroke="black" d="M77.25,-260.8C68.2,-248.59 55.9,-231.99 45.74,-218.28"/>
<polygon fill="black" stroke="black" points="48.5,-216.13 39.73,-210.18 42.87,-220.29 48.5,-216.13"/>
<text text-anchor="middle" x="68" y="-231.8" font-family="Times,serif" font-size="14.00">1</text>
</g>
<!-- Y2 -->
<g id="node3" class="node">
<title>Y2</title>
<path fill="none" stroke="black" d="M113,-123C113,-123 83,-123 83,-123 77,-123 71,-117 71,-111 71,-111 71,-99 71,-99 71,-93 77,-87 83,-87 83,-87 113,-87 113,-87 119,-87 125,-93 125,-99 125,-99 125,-111 125,-111 125,-117 119,-123 113,-123"/>
<text text-anchor="middle" x="98" y="-101.3" font-family="Times,serif" font-size="14.00">Y2</text>
</g>
<!-- X1&#45;&gt;Y2 -->
<g id="edge2" class="edge">
<title>X1&#45;&gt;Y2</title>
<path fill="none" stroke="black" d="M90.8,-260.88C92.19,-231 95.06,-169.11 96.73,-133.27"/>
<polygon fill="black" stroke="black" points="100.24,-133.2 97.21,-123.05 93.25,-132.88 100.24,-133.2"/>
<text text-anchor="middle" x="114.5" y="-188.3" font-family="Times,serif" font-size="14.00">11.98</text>
</g>
<!-- Y3 -->
<g id="node5" class="node">
<title>Y3</title>
<path fill="none" stroke="black" d="M173,-36C173,-36 143,-36 143,-36 137,-36 131,-30 131,-24 131,-24 131,-12 131,-12 131,-6 137,0 143,0 143,0 173,0 173,0 179,0 185,-6 185,-12 185,-12 185,-24 185,-24 185,-30 179,-36 173,-36"/>
<text text-anchor="middle" x="158" y="-14.3" font-family="Times,serif" font-size="14.00">Y3</text>
</g>
<!-- X1&#45;&gt;Y3 -->
<g id="edge4" class="edge">
<title>X1&#45;&gt;Y3</title>
<path fill="none" stroke="black" d="M117.07,-271.56C146.37,-263 191.61,-244.71 212,-210 222.32,-192.43 216.92,-123.15 204,-87 198.47,-71.51 188.58,-56.18 179.38,-44"/>
<polygon fill="black" stroke="black" points="182.12,-41.81 173.19,-36.11 176.61,-46.13 182.12,-41.81"/>
<text text-anchor="middle" x="236.5" y="-144.8" font-family="Times,serif" font-size="14.00">13.04</text>
</g>
<!-- Y1&#45;&gt;Y2 -->
<g id="edge6" class="edge">
<title>Y1&#45;&gt;Y2</title>
<path fill="none" stroke="black" d="M26.13,-173.86C26.42,-163.5 28.34,-150.5 35,-141 41.6,-131.59 51.57,-124.42 61.65,-119.1"/>
<polygon fill="black" stroke="black" points="63.32,-122.19 70.85,-114.73 60.31,-115.86 63.32,-122.19"/>
<text text-anchor="middle" x="55.5" y="-144.8" font-family="Times,serif" font-size="14.00">11.93</text>
</g>
<!-- Y1&#45;&gt;Y3 -->
<g id="edge7" class="edge">
<title>Y1&#45;&gt;Y3</title>
<path fill="none" stroke="black" d="M20.32,-173.68C13.05,-151.74 4.51,-113.59 21,-87 42.65,-52.08 88.19,-34.53 120.82,-26.11"/>
<polygon fill="black" stroke="black" points="122.01,-29.42 130.92,-23.69 120.38,-22.62 122.01,-29.42"/>
<text text-anchor="middle" x="41.5" y="-101.3" font-family="Times,serif" font-size="14.00">12.99</text>
</g>
<!-- Y2&#45;&gt;Y3 -->
<g id="edge8" class="edge">
<title>Y2&#45;&gt;Y3</title>
<path fill="none" stroke="black" d="M110.14,-86.8C118.68,-74.7 130.26,-58.3 139.88,-44.67"/>
<polygon fill="black" stroke="black" points="142.97,-46.36 145.88,-36.18 137.25,-42.33 142.97,-46.36"/>
<text text-anchor="middle" x="136" y="-57.8" font-family="Times,serif" font-size="14.00">1</text>
</g>
<!-- X2 -->
<g id="node4" class="node">
<title>X2</title>
<path fill="none" stroke="black" d="M191,-210C191,-210 161,-210 161,-210 155,-210 149,-204 149,-198 149,-198 149,-186 149,-186 149,-180 155,-174 161,-174 161,-174 191,-174 191,-174 197,-174 203,-180 203,-186 203,-186 203,-198 203,-198 203,-204 197,-210 191,-210"/>
<text text-anchor="middle" x="176" y="-188.3" font-family="Times,serif" font-size="14.00">X2</text>
</g>
<!-- X2&#45;&gt;Y2 -->
<g id="edge3" class="edge">
<title>X2&#45;&gt;Y2</title>
<path fill="none" stroke="black" d="M148.88,-176.38C140.2,-170.81 131.03,-163.87 124,-156 117.82,-149.08 112.65,-140.42 108.59,-132.26"/>
<polygon fill="black" stroke="black" points="111.7,-130.66 104.34,-123.05 105.35,-133.59 111.7,-130.66"/>
<text text-anchor="middle" x="140" y="-144.8" font-family="Times,serif" font-size="14.00">1.05</text>
</g>
<!-- X2&#45;&gt;Y3 -->
<g id="edge5" class="edge">
<title>X2&#45;&gt;Y3</title>
<path fill="none" stroke="black" d="M174.21,-173.88C171.08,-144 164.6,-82.11 160.85,-46.27"/>
<polygon fill="black" stroke="black" points="164.31,-45.63 159.78,-36.05 157.34,-46.36 164.31,-45.63"/>
<text text-anchor="middle" x="184" y="-101.3" font-family="Times,serif" font-size="14.00">1.05</text>
</g>
</g>
</svg>
