<?xml version="1.0" encoding="UTF-8" standalone="no"?>
<!DOCTYPE svg PUBLIC "-//W3C//DTD SVG 1.1//EN"
 "http://www.w3.org/Graphics/SVG/1.1/DTD/svg11.dtd">
<!-- Generated by graphviz version 2.43.0 (0)
 -->
<!-- Title: G Pages: 1 -->
<svg width="148pt" height="305pt"
 viewBox="0.00 0.00 148.00 305.00" xmlns="http://www.w3.org/2000/svg" xmlns:xlink="http://www.w3.org/1999/xlink">
<g id="graph0" class="graph" transform="scale(1 1) rotate(0) translate(4 301)">
<title>G</title>
<polygon fill="white" stroke="transparent" points="-4,4 -4,-301 144,-301 144,4 -4,4"/>
<!-- X1 -->
<g id="node1" class="node">
<title>X1</title>
<path fill="none" stroke="black" d="M42,-297C42,-297 12,-297 12,-297 6,-297 0,-291 0,-285 0,-285 0,-273 0,-273 0,-267 6,-261 12,-261 12,-261 42,-261 42,-261 48,-261 54,-267 54,-273 54,-273 54,-285 54,-285 54,-291 48,-297 42,-297"/>
<text text-anchor="middle" x="27" y="-275.3" font-family="Times,serif" font-size="14.00">X1</text>
</g>
<!-- Y1 -->
<g id="node2" class="node">
<title>Y1</title>
<path fill="none" stroke="black" d="M42,-210C42,-210 12,-210 12,-210 6,-210 0,-204 0,-198 0,-198 0,-186 0,-186 0,-180 6,-174 12,-174 12,-174 42,-174 42,-174 48,-174 54,-180 54,-186 54,-186 54,-198 54,-198 54,-204 48,-210 42,-210"/>
<text text-anchor="middle" x="27" y="-188.3" font-family="Times,serif" font-size="14.00">Y1</text>
</g>
<!-- X1&#45;&gt;Y1 -->
<g id="edge1" class="edge">
<title>X1&#45;&gt;Y1</title>
<path fill="none" stroke="#cdc9c9" stroke-width="2" d="M27,-260.8C27,-249.16 27,-233.55 27,-220.24"/>
<polygon fill="#cdc9c9" stroke="#cdc9c9" stroke-width="2" points="30.5,-220.18 27,-210.18 23.5,-220.18 30.5,-220.18"/>
<text text-anchor="middle" x="43" y="-231.8" font-family="Times,serif" font-size="14.00">1.86</text>
</g>
<!-- Y2 -->
<g id="node4" class="node">
<title>Y2</title>
<path fill="none" stroke="black" d="M107,-123C107,-123 77,-123 77,-123 71,-123 65,-117 65,-111 65,-111 65,-99 65,-99 65,-93 71,-87 77,-87 77,-87 107,-87 107,-87 113,-87 119,-93 119,-99 119,-99 119,-111 119,-111 119,-117 113,-123 107,-123"/>
<text text-anchor="middle" x="92" y="-101.3" font-family="Times,serif" font-size="14.00">Y2</text>
</g>
<!-- Y1&#45;&gt;Y2 -->
<g id="edge3" class="edge">
<title>Y1&#45;&gt;Y2</title>
<path fill="none" stroke="#1a9850" stroke-width="2" d="M35.13,-173.53C40.17,-163.55 47.17,-151.05 55,-141 57.83,-137.37 61.03,-133.77 64.35,-130.34"/>
<polygon fill="#1a9850" stroke="#1a9850" stroke-width="2" points="66.99,-132.65 71.67,-123.15 62.09,-127.65 66.99,-132.65"/>
<text text-anchor="middle" x="75.5" y="-144.8" font-family="Times,serif" font-size="14.00">35.58</text>
</g>
<!-- Y3 -->
<g id="node5" class="node">
<title>Y3</title>
<path fill="none" stroke="black" d="M46,-36C46,-36 16,-36 16,-36 10,-36 4,-30 4,-24 4,-24 4,-12 4,-12 4,-6 10,0 16,0 16,0 46,0 46,0 52,0 58,-6 58,-12 58,-12 58,-24 58,-24 58,-30 52,-36 46,-36"/>
<text text-anchor="middle" x="31" y="-14.3" font-family="Times,serif" font-size="14.00">Y3</text>
</g>
<!-- Y1&#45;&gt;Y3 -->
<g id="edge4" class="edge">
<title>Y1&#45;&gt;Y3</title>
<path fill="none" stroke="#cdc9c9" stroke-width="2" d="M25.65,-173.69C24.24,-153.05 22.43,-117.49 24,-87 24.69,-73.52 26.15,-58.61 27.56,-46.18"/>
<polygon fill="#cdc9c9" stroke="#cdc9c9" stroke-width="2" points="31.06,-46.35 28.76,-36.01 24.11,-45.53 31.06,-46.35"/>
<text text-anchor="middle" x="40" y="-101.3" font-family="Times,serif" font-size="14.00">1.86</text>
</g>
<!-- X2 -->
<g id="node3" class="node">
<title>X2</title>
<path fill="none" stroke="black" d="M127,-210C127,-210 97,-210 97,-210 91,-210 85,-204 85,-198 85,-198 85,-186 85,-186 85,-180 91,-174 97,-174 97,-174 127,-174 127,-174 133,-174 139,-180 139,-186 139,-186 139,-198 139,-198 139,-204 133,-210 127,-210"/>
<text text-anchor="middle" x="112" y="-188.3" font-family="Times,serif" font-size="14.00">X2</text>
</g>
<!-- X2&#45;&gt;Y2 -->
<g id="edge2" class="edge">
<title>X2&#45;&gt;Y2</title>
<path fill="none" stroke="#cdc9c9" stroke-width="2" d="M107.95,-173.8C105.21,-162.16 101.54,-146.55 98.41,-133.24"/>
<polygon fill="#cdc9c9" stroke="#cdc9c9" stroke-width="2" points="101.74,-132.11 96.04,-123.18 94.92,-133.71 101.74,-132.11"/>
<text text-anchor="middle" x="121.5" y="-144.8" font-family="Times,serif" font-size="14.00">&#45;0.93</text>
</g>
<!-- Y2&#45;&gt;Y3 -->
<g id="edge5" class="edge">
<title>Y2&#45;&gt;Y3</title>
<path fill="none" stroke="#66bd63" stroke-width="2" d="M79.66,-86.8C70.97,-74.7 59.21,-58.3 49.42,-44.67"/>
<polygon fill="#66bd63" stroke="#66bd63" stroke-width="2" points="52,-42.26 43.33,-36.18 46.31,-46.34 52,-42.26"/>
<text text-anchor="middle" x="85.5" y="-57.8" font-family="Times,serif" font-size="14.00">27.47</text>
</g>
</g>
</svg>
