<?xml version="1.0" encoding="UTF-8" standalone="no"?>
<!DOCTYPE svg PUBLIC "-//W3C//DTD SVG 1.1//EN"
 "http://www.w3.org/Graphics/SVG/1.1/DTD/svg11.dtd">
<!-- Generated by graphviz version 2.43.0 (0)
 -->
<!-- Title: G Pages: 1 -->
<svg width="152pt" height="313pt"
 viewBox="0.00 0.00 151.50 313.00" xmlns="http://www.w3.org/2000/svg" xmlns:xlink="http://www.w3.org/1999/xlink">
<g id="graph0" class="graph" transform="scale(1 1) rotate(0) translate(4 309)">
<title>G</title>
<polygon fill="white" stroke="transparent" points="-4,4 -4,-309 147.5,-309 147.5,4 -4,4"/>
<!-- X1 -->
<g id="node1" class="node">
<title>X1</title>
<path fill="#1a9850" stroke="black" d="M45,-305C45,-305 12,-305 12,-305 6,-305 0,-299 0,-293 0,-293 0,-279 0,-279 0,-273 6,-267 12,-267 12,-267 45,-267 45,-267 51,-267 57,-273 57,-279 57,-279 57,-293 57,-293 57,-299 51,-305 45,-305"/>
<text text-anchor="middle" x="28.5" y="-289.8" font-family="Times,serif" font-size="14.00">X1</text>
<text text-anchor="middle" x="28.5" y="-274.8" font-family="Times,serif" font-size="14.00">37.44</text>
</g>
<!-- Y1 -->
<g id="node2" class="node">
<title>Y1</title>
<path fill="#1a9850" stroke="black" d="M45,-216C45,-216 12,-216 12,-216 6,-216 0,-210 0,-204 0,-204 0,-190 0,-190 0,-184 6,-178 12,-178 12,-178 45,-178 45,-178 51,-178 57,-184 57,-190 57,-190 57,-204 57,-204 57,-210 51,-216 45,-216"/>
<text text-anchor="middle" x="28.5" y="-200.8" font-family="Times,serif" font-size="14.00">Y1</text>
<text text-anchor="middle" x="28.5" y="-185.8" font-family="Times,serif" font-size="14.00">37.44</text>
</g>
<!-- X1&#45;&gt;Y1 -->
<g id="edge1" class="edge">
<title>X1&#45;&gt;Y1</title>
<path fill="none" stroke="#1a9850" stroke-width="2" d="M28.5,-266.97C28.5,-255.19 28.5,-239.56 28.5,-226.16"/>
<polygon fill="#1a9850" stroke="#1a9850" stroke-width="2" points="32,-226 28.5,-216 25,-226 32,-226"/>
<text text-anchor="middle" x="49" y="-237.8" font-family="Times,serif" font-size="14.00">37.44</text>
</g>
<!-- Y2 -->
<g id="node4" class="node">
<title>Y2</title>
<path fill="#66bd63" stroke="black" d="M112,-127C112,-127 79,-127 79,-127 73,-127 67,-121 67,-115 67,-115 67,-101 67,-101 67,-95 73,-89 79,-89 79,-89 112,-89 112,-89 118,-89 124,-95 124,-101 124,-101 124,-115 124,-115 124,-121 118,-127 112,-127"/>
<text text-anchor="middle" x="95.5" y="-111.8" font-family="Times,serif" font-size="14.00">Y2</text>
<text text-anchor="middle" x="95.5" y="-96.8" font-family="Times,serif" font-size="14.00">27.47</text>
</g>
<!-- Y1&#45;&gt;Y2 -->
<g id="edge3" class="edge">
<title>Y1&#45;&gt;Y2</title>
<path fill="none" stroke="#1a9850" stroke-width="2" d="M37.67,-177.78C43.12,-167.7 50.51,-155.18 58.5,-145 61.32,-141.41 64.47,-137.83 67.73,-134.39"/>
<polygon fill="#1a9850" stroke="#1a9850" stroke-width="2" points="70.35,-136.71 74.9,-127.15 65.38,-131.79 70.35,-136.71"/>
<text text-anchor="middle" x="79" y="-148.8" font-family="Times,serif" font-size="14.00">35.58</text>
</g>
<!-- Y3 -->
<g id="node5" class="node">
<title>Y3</title>
<path fill="#1a9850" stroke="black" d="M49,-38C49,-38 16,-38 16,-38 10,-38 4,-32 4,-26 4,-26 4,-12 4,-12 4,-6 10,0 16,0 16,0 49,0 49,0 55,0 61,-6 61,-12 61,-12 61,-26 61,-26 61,-32 55,-38 49,-38"/>
<text text-anchor="middle" x="32.5" y="-22.8" font-family="Times,serif" font-size="14.00">Y3</text>
<text text-anchor="middle" x="32.5" y="-7.8" font-family="Times,serif" font-size="14.00">29.34</text>
</g>
<!-- Y1&#45;&gt;Y3 -->
<g id="edge4" class="edge">
<title>Y1&#45;&gt;Y3</title>
<path fill="none" stroke="#cdc9c9" stroke-width="2" d="M27.12,-177.82C25.71,-156.52 23.92,-120.18 25.5,-89 26.18,-75.61 27.59,-60.81 28.97,-48.36"/>
<polygon fill="#cdc9c9" stroke="#cdc9c9" stroke-width="2" points="32.48,-48.46 30.16,-38.12 25.53,-47.65 32.48,-48.46"/>
<text text-anchor="middle" x="41.5" y="-104.3" font-family="Times,serif" font-size="14.00">1.86</text>
</g>
<!-- X2 -->
<g id="node3" class="node">
<title>X2</title>
<path fill="#cdc9c9" stroke="black" d="M128.5,-216C128.5,-216 98.5,-216 98.5,-216 92.5,-216 86.5,-210 86.5,-204 86.5,-204 86.5,-190 86.5,-190 86.5,-184 92.5,-178 98.5,-178 98.5,-178 128.5,-178 128.5,-178 134.5,-178 140.5,-184 140.5,-190 140.5,-190 140.5,-204 140.5,-204 140.5,-210 134.5,-216 128.5,-216"/>
<text text-anchor="middle" x="113.5" y="-200.8" font-family="Times,serif" font-size="14.00">X2</text>
<text text-anchor="middle" x="113.5" y="-185.8" font-family="Times,serif" font-size="14.00">&#45;0.93</text>
</g>
<!-- X2&#45;&gt;Y2 -->
<g id="edge2" class="edge">
<title>X2&#45;&gt;Y2</title>
<path fill="none" stroke="#cdc9c9" stroke-width="2" d="M109.77,-177.97C107.33,-166.19 104.1,-150.56 101.33,-137.16"/>
<polygon fill="#cdc9c9" stroke="#cdc9c9" stroke-width="2" points="104.68,-136.09 99.22,-127 97.82,-137.51 104.68,-136.09"/>
<text text-anchor="middle" x="125" y="-148.8" font-family="Times,serif" font-size="14.00">&#45;0.93</text>
</g>
<!-- Y2&#45;&gt;Y3 -->
<g id="edge5" class="edge">
<title>Y2&#45;&gt;Y3</title>
<path fill="none" stroke="#66bd63" stroke-width="2" d="M82.45,-88.97C73.49,-76.61 61.47,-60 51.46,-46.18"/>
<polygon fill="#66bd63" stroke="#66bd63" stroke-width="2" points="54.24,-44.05 45.54,-38 48.57,-48.16 54.24,-44.05"/>
<text text-anchor="middle" x="89" y="-59.8" font-family="Times,serif" font-size="14.00">27.47</text>
</g>
</g>
</svg>
