<?xml version="1.0" encoding="UTF-8" standalone="no"?>
<!DOCTYPE svg PUBLIC "-//W3C//DTD SVG 1.1//EN"
 "http://www.w3.org/Graphics/SVG/1.1/DTD/svg11.dtd">
<!-- Generated by graphviz version 2.43.0 (0)
 -->
<!-- Title: %3 Pages: 1 -->
<svg width="141pt" height="313pt" viewBox="0.0 0.0 141.0 313.0" xmlns="http://www.w3.org/2000/svg" xlink="http://www.w3.org/1999/xlink" >
<g id="graph0" class="graph" transform="scale(1 1) rotate(0) translate(4 309)">
<title>%3</title>
<polygon fill="white" stroke="transparent" points="-4,4 -4,-309 137,-309 137,4 -4,4"/>
<!-- X1 -->
<g id="node1" class="node">
<title>X1</title>
<path fill="#75cf73" stroke="#444444" d="M42,-305C42,-305 12,-305 12,-305 6,-305 0,-299 0,-293 0,-293 0,-279 0,-279 0,-273 6,-267 12,-267 12,-267 42,-267 42,-267 48,-267 54,-273 54,-279 54,-279 54,-293 54,-293 54,-299 48,-305 42,-305"/>
<text text-anchor="middle" x="27" y="-289.8" font-family="Times,serif" font-size="14.00">X1</text>
<text text-anchor="middle" x="27" y="-274.8" font-family="Times,serif" font-size="14.00">29.81</text>
</g>
<!-- Y1 -->
<g id="node2" class="node">
<title>Y1</title>
<path fill="#75cf73" stroke="#444444" d="M42,-216C42,-216 12,-216 12,-216 6,-216 0,-210 0,-204 0,-204 0,-190 0,-190 0,-184 6,-178 12,-178 12,-178 42,-178 42,-178 48,-178 54,-184 54,-190 54,-190 54,-204 54,-204 54,-210 48,-216 42,-216"/>
<text text-anchor="middle" x="27" y="-200.8" font-family="Times,serif" font-size="14.00">Y1</text>
<text text-anchor="middle" x="27" y="-185.8" font-family="Times,serif" font-size="14.00">29.81</text>
</g>
<!-- X1&#45;&gt;Y1 -->
<g id="edge1" class="edge">
<title>X1&#45;&gt;Y1</title>
<path fill="none" stroke="#75cf73" stroke-width="6" d="M27,-266.97C27,-255.19 27,-239.56 27,-226.16"/>
<polygon fill="#75cf73" stroke="#75cf73" stroke-width="6" points="32.25,-226 27,-216 21.75,-226 32.25,-226"/>
<text text-anchor="middle" x="42.5" y="-237.8" font-family="Times,serif" font-size="14.00">29.81</text>
</g>
<!-- Y2 -->
<g id="node4" class="node">
<title>Y2</title>
<path fill="#75cf73" stroke="#444444" d="M104,-127C104,-127 74,-127 74,-127 68,-127 62,-121 62,-115 62,-115 62,-101 62,-101 62,-95 68,-89 74,-89 74,-89 104,-89 104,-89 110,-89 116,-95 116,-101 116,-101 116,-115 116,-115 116,-121 110,-127 104,-127"/>
<text text-anchor="middle" x="89" y="-111.8" font-family="Times,serif" font-size="14.00">Y2</text>
<text text-anchor="middle" x="89" y="-96.8" font-family="Times,serif" font-size="14.00">25.27</text>
</g>
<!-- Y1&#45;&gt;Y2 -->
<g id="edge2" class="edge">
<title>Y1&#45;&gt;Y2</title>
<path fill="none" stroke="#75cf73" stroke-width="6" d="M38.64,-177.84C45.07,-168 53.28,-155.7 61,-145 63.33,-141.77 65.82,-138.42 68.33,-135.12"/>
<polygon fill="#75cf73" stroke="#75cf73" stroke-width="6" points="72.55,-138.24 74.49,-127.12 64.23,-131.83 72.55,-138.24"/>
<text text-anchor="middle" x="76.5" y="-148.8" font-family="Times,serif" font-size="14.00">28.00</text>
</g>
<!-- Y3 -->
<g id="node5" class="node">
<title>Y3</title>
<path fill="#75cf73" stroke="#444444" d="M62,-38C62,-38 32,-38 32,-38 26,-38 20,-32 20,-26 20,-26 20,-12 20,-12 20,-6 26,0 32,0 32,0 62,0 62,0 68,0 74,-6 74,-12 74,-12 74,-26 74,-26 74,-32 68,-38 62,-38"/>
<text text-anchor="middle" x="47" y="-22.8" font-family="Times,serif" font-size="14.00">Y3</text>
<text text-anchor="middle" x="47" y="-7.8" font-family="Times,serif" font-size="14.00">27.07</text>
</g>
<!-- Y1&#45;&gt;Y3 -->
<g id="edge3" class="edge">
<title>Y1&#45;&gt;Y3</title>
<path fill="none" stroke="#bbbbbb" stroke-width="2" d="M25.74,-177.72C24.6,-156.33 23.68,-119.91 28,-89 29.92,-75.25 33.79,-60.36 37.53,-47.95"/>
<polygon fill="#bbbbbb" stroke="#bbbbbb" stroke-width="2" points="40.94,-48.77 40.6,-38.18 34.26,-46.67 40.94,-48.77"/>
<text text-anchor="middle" x="40.5" y="-104.3" font-family="Times,serif" font-size="14.00">1.80</text>
</g>
<!-- X2 -->
<g id="node3" class="node">
<title>X2</title>
<path fill="#eeeeee" stroke="#444444" d="M121,-216C121,-216 91,-216 91,-216 85,-216 79,-210 79,-204 79,-204 79,-190 79,-190 79,-184 85,-178 91,-178 91,-178 121,-178 121,-178 127,-178 133,-184 133,-190 133,-190 133,-204 133,-204 133,-210 127,-216 121,-216"/>
<text text-anchor="middle" x="106" y="-200.8" font-family="Times,serif" font-size="14.00">X2</text>
<text text-anchor="middle" x="106" y="-185.8" font-family="Times,serif" font-size="14.00">&#45;0.97</text>
</g>
<!-- X2&#45;&gt;Y2 -->
<g id="edge4" class="edge">
<title>X2&#45;&gt;Y2</title>
<path fill="none" stroke="#bbbbbb" stroke-width="2" d="M102.48,-177.97C100.18,-166.19 97.12,-150.56 94.5,-137.16"/>
<polygon fill="#bbbbbb" stroke="#bbbbbb" stroke-width="2" points="97.87,-136.15 92.52,-127 91,-137.49 97.87,-136.15"/>
<text text-anchor="middle" x="112.5" y="-148.8" font-family="Times,serif" font-size="14.00">&#45;0.97</text>
</g>
<!-- Y2&#45;&gt;Y3 -->
<g id="edge5" class="edge">
<title>Y2&#45;&gt;Y3</title>
<path fill="none" stroke="#75cf73" stroke-width="6" d="M80.3,-88.97C74.5,-76.96 66.76,-60.94 60.21,-47.36"/>
<polygon fill="#75cf73" stroke="#75cf73" stroke-width="6" points="64.77,-44.73 55.69,-38 55.31,-49.29 64.77,-44.73"/>
<text text-anchor="middle" x="86.5" y="-59.8" font-family="Times,serif" font-size="14.00">25.27</text>
</g>
</g>
</svg>
