<?xml version="1.0" encoding="UTF-8" standalone="no"?>
<!DOCTYPE svg PUBLIC "-//W3C//DTD SVG 1.1//EN"
 "http://www.w3.org/Graphics/SVG/1.1/DTD/svg11.dtd">
<!-- Generated by graphviz version 2.43.0 (0)
 -->
<!-- Title: G Pages: 1 -->
<svg width="270pt" height="305pt"
 viewBox="0.00 0.00 270.00 305.00" xmlns="http://www.w3.org/2000/svg" xmlns:xlink="http://www.w3.org/1999/xlink">
<g id="graph0" class="graph" transform="scale(1 1) rotate(0) translate(4 301)">
<title>G</title>
<polygon fill="white" stroke="transparent" points="-4,4 -4,-301 266,-301 266,4 -4,4"/>
<!-- X1 -->
<g id="node1" class="node">
<title>X1</title>
<path fill="none" stroke="black" d="M105,-297C105,-297 75,-297 75,-297 69,-297 63,-291 63,-285 63,-285 63,-273 63,-273 63,-267 69,-261 75,-261 75,-261 105,-261 105,-261 111,-261 117,-267 117,-273 117,-273 117,-285 117,-285 117,-291 111,-297 105,-297"/>
<text text-anchor="middle" x="90" y="-275.3" font-family="Times,serif" font-size="14.00">X1</text>
</g>
<!-- Y1 -->
<g id="node2" class="node">
<title>Y1</title>
<path fill="none" stroke="black" d="M42,-210C42,-210 12,-210 12,-210 6,-210 0,-204 0,-198 0,-198 0,-186 0,-186 0,-180 6,-174 12,-174 12,-174 42,-174 42,-174 48,-174 54,-180 54,-186 54,-186 54,-198 54,-198 54,-204 48,-210 42,-210"/>
<text text-anchor="middle" x="27" y="-188.3" font-family="Times,serif" font-size="14.00">Y1</text>
</g>
<!-- X1&#45;&gt;Y1 -->
<g id="edge1" class="edge">
<title>X1&#45;&gt;Y1</title>
<path fill="none" stroke="#cdc9c9" stroke-width="2" d="M62.76,-261.46C55.89,-256.25 49.04,-250 44,-243 39.16,-236.27 35.62,-228.06 33.06,-220.26"/>
<polygon fill="#cdc9c9" stroke="#cdc9c9" stroke-width="2" points="36.35,-219.04 30.24,-210.38 29.62,-220.96 36.35,-219.04"/>
<text text-anchor="middle" x="60" y="-231.8" font-family="Times,serif" font-size="14.00">1.86</text>
</g>
<!-- Y2 -->
<g id="node3" class="node">
<title>Y2</title>
<path fill="none" stroke="black" d="M112,-123C112,-123 82,-123 82,-123 76,-123 70,-117 70,-111 70,-111 70,-99 70,-99 70,-93 76,-87 82,-87 82,-87 112,-87 112,-87 118,-87 124,-93 124,-99 124,-99 124,-111 124,-111 124,-117 118,-123 112,-123"/>
<text text-anchor="middle" x="97" y="-101.3" font-family="Times,serif" font-size="14.00">Y2</text>
</g>
<!-- X1&#45;&gt;Y2 -->
<g id="edge2" class="edge">
<title>X1&#45;&gt;Y2</title>
<path fill="none" stroke="#1a9850" stroke-width="2" d="M90.7,-260.88C91.91,-231 94.43,-169.11 95.89,-133.27"/>
<polygon fill="#1a9850" stroke="#1a9850" stroke-width="2" points="99.4,-133.19 96.31,-123.05 92.4,-132.9 99.4,-133.19"/>
<text text-anchor="middle" x="114.5" y="-188.3" font-family="Times,serif" font-size="14.00">35.58</text>
</g>
<!-- Y3 -->
<g id="node5" class="node">
<title>Y3</title>
<path fill="none" stroke="black" d="M168,-36C168,-36 138,-36 138,-36 132,-36 126,-30 126,-24 126,-24 126,-12 126,-12 126,-6 132,0 138,0 138,0 168,0 168,0 174,0 180,-6 180,-12 180,-12 180,-24 180,-24 180,-30 174,-36 168,-36"/>
<text text-anchor="middle" x="153" y="-14.3" font-family="Times,serif" font-size="14.00">Y3</text>
</g>
<!-- X1&#45;&gt;Y3 -->
<g id="edge4" class="edge">
<title>X1&#45;&gt;Y3</title>
<path fill="none" stroke="#1a9850" stroke-width="2" d="M117.07,-271.56C146.37,-263 191.61,-244.71 212,-210 219.72,-196.86 228.14,-132.7 211,-87 204.83,-70.55 192.78,-55.36 181.25,-43.52"/>
<polygon fill="#1a9850" stroke="#1a9850" stroke-width="2" points="183.41,-40.74 173.82,-36.24 178.51,-45.74 183.41,-40.74"/>
<text text-anchor="middle" x="241.5" y="-144.8" font-family="Times,serif" font-size="14.00">37.44</text>
</g>
<!-- Y1&#45;&gt;Y2 -->
<g id="edge6" class="edge">
<title>Y1&#45;&gt;Y2</title>
<path fill="none" stroke="#1a9850" stroke-width="2" d="M26.15,-173.88C26.45,-163.52 28.37,-150.53 35,-141 41.37,-131.85 50.94,-124.8 60.67,-119.51"/>
<polygon fill="#1a9850" stroke="#1a9850" stroke-width="2" points="62.51,-122.51 69.95,-114.97 59.43,-116.22 62.51,-122.51"/>
<text text-anchor="middle" x="55.5" y="-144.8" font-family="Times,serif" font-size="14.00">35.58</text>
</g>
<!-- Y1&#45;&gt;Y3 -->
<g id="edge7" class="edge">
<title>Y1&#45;&gt;Y3</title>
<path fill="none" stroke="#1a9850" stroke-width="2" d="M20.12,-173.71C12.6,-151.81 3.66,-113.7 20,-87 40.76,-53.07 84.4,-35.38 116.04,-26.66"/>
<polygon fill="#1a9850" stroke="#1a9850" stroke-width="2" points="117.04,-30.02 125.85,-24.13 115.29,-23.24 117.04,-30.02"/>
<text text-anchor="middle" x="40.5" y="-101.3" font-family="Times,serif" font-size="14.00">37.44</text>
</g>
<!-- Y2&#45;&gt;Y3 -->
<g id="edge8" class="edge">
<title>Y2&#45;&gt;Y3</title>
<path fill="none" stroke="#66bd63" stroke-width="2" d="M103.37,-86.6C107.41,-76.64 113.16,-64.14 120,-54 122.36,-50.5 125.08,-47.01 127.93,-43.67"/>
<polygon fill="#66bd63" stroke="#66bd63" stroke-width="2" points="130.56,-45.97 134.67,-36.2 125.37,-41.28 130.56,-45.97"/>
<text text-anchor="middle" x="140.5" y="-57.8" font-family="Times,serif" font-size="14.00">27.47</text>
</g>
<!-- X2 -->
<g id="node4" class="node">
<title>X2</title>
<path fill="none" stroke="black" d="M191,-210C191,-210 161,-210 161,-210 155,-210 149,-204 149,-198 149,-198 149,-186 149,-186 149,-180 155,-174 161,-174 161,-174 191,-174 191,-174 197,-174 203,-180 203,-186 203,-186 203,-198 203,-198 203,-204 197,-210 191,-210"/>
<text text-anchor="middle" x="176" y="-188.3" font-family="Times,serif" font-size="14.00">X2</text>
</g>
<!-- X2&#45;&gt;Y2 -->
<g id="edge3" class="edge">
<title>X2&#45;&gt;Y2</title>
<path fill="none" stroke="#cdc9c9" stroke-width="2" d="M148.95,-176.31C140.28,-170.74 131.09,-163.82 124,-156 117.71,-149.07 112.38,-140.41 108.15,-132.25"/>
<polygon fill="#cdc9c9" stroke="#cdc9c9" stroke-width="2" points="111.21,-130.53 103.71,-123.04 104.9,-133.57 111.21,-130.53"/>
<text text-anchor="middle" x="142.5" y="-144.8" font-family="Times,serif" font-size="14.00">&#45;0.93</text>
</g>
<!-- X2&#45;&gt;Y3 -->
<g id="edge5" class="edge">
<title>X2&#45;&gt;Y3</title>
<path fill="none" stroke="#cdc9c9" stroke-width="2" d="M174.74,-173.61C172.71,-147.51 168.19,-96.71 161,-54 160.55,-51.33 160.02,-48.55 159.45,-45.78"/>
<polygon fill="#cdc9c9" stroke="#cdc9c9" stroke-width="2" points="162.87,-45.03 157.3,-36.01 156.03,-46.53 162.87,-45.03"/>
<text text-anchor="middle" x="188.5" y="-101.3" font-family="Times,serif" font-size="14.00">&#45;0.93</text>
</g>
</g>
</svg>
